<svg id="Layer_1" data-name="Layer 1" xmlns="http://www.w3.org/2000/svg" viewBox="0 0 326.78 272.65"><defs><style>.cls-1{fill:#231f20;}.cls-2{fill:#00a651;}.cls-3{fill:#ef3a24;}.cls-4{fill:none;stroke:#231f20;stroke-miterlimit:10;}.cls-5{fill:#0d93d1;}.cls-6{fill:#fff;}</style></defs><path class="cls-1" d="M435.22,440.33a94.05,94.05,0,0,1-1,13.72c-.07.51-.15,1-.23,1.54a101,101,0,0,1-4.05,16.15c-.23.7-.48,1.4-.74,2.1-.77,2.14-1.61,4.26-2.53,6.34a107.38,107.38,0,0,1-13.07,22h0q-2.73,3.6-5.74,7-2.1,2.37-4.31,4.62c-.65.66-1.31,1.32-2,2q-2.79,2.7-5.76,5.21-3.78,3.23-7.78,6.14a133.07,133.07,0,0,1-17.32,10.82c-24.11,12.77-51.69,18.44-78.85,17.36s-54.18-8.75-77.46-23a139.11,139.11,0,0,1-16.57-12c-1.28-1.13-2.63-2.19-3.86-3.38l-.69-.65h0l-3-2.87-3.54-3.72c-1.18-1.24-2.25-2.58-3.38-3.87-1.4-1.68-2.76-3.4-4-5.16a102,102,0,0,1-7.58-11.8c-.79-1.53-1.63-3-2.36-4.59l-2.12-4.71-1.81-4.84c-.37-1.06-.69-2.15-1-3.23-.16-.57-.33-1.15-.51-1.72l-.12-.46a86.21,86.21,0,0,1-2.81-17c0-.54-.06-1.07-.08-1.6s-.05-.94-.06-1.41a91.19,91.19,0,0,1,.31-10.33l.57-5.07c.21-1.68.32-3.38.64-5.05l.85-5c.15-.84.27-1.68.44-2.52l.58-2.49,1.17-5c.45-1.66,1-3.28,1.49-4.92a98.94,98.94,0,0,1,3.55-9.66c.67-1.58,1.51-3.09,2.25-4.64l1.15-2.31c.38-.77.88-1.48,1.31-2.22l2.68-4.41c1-1.4,2-2.78,3-4.17.51-.69,1-1.4,1.53-2.07l1.68-1.95c1.13-1.29,2.23-2.62,3.38-3.88l3.65-3.61c.61-.59,1.19-1.22,1.83-1.79l1.94-1.67,3.88-3.34,4.06-3.08a229,229,0,0,1,34.66-20.7l.1-.05.18-.09h0a1.46,1.46,0,0,1,.49-.08v3a1.33,1.33,0,0,0,.51-.09h0l.11,0-.12.07-2.88,1.57c-10.7,5.87-21.17,12.14-30.7,19.58l-3.9,3.06-3.7,3.27-1.85,1.64c-.61.55-1.16,1.16-1.74,1.74l-3.45,3.52c-1.09,1.22-2.12,2.5-3.18,3.74l-1.58,1.88c-.49.65-.95,1.33-1.43,2-.94,1.34-1.91,2.66-2.83,4L179,392.26c-.4.71-.86,1.39-1.21,2.13l-1.06,2.21c-.69,1.48-1.47,2.91-2.08,4.43-1.13,3.07-2.49,6.05-3.33,9.23-.46,1.57-1,3.12-1.4,4.71l-1.1,4.81-.56,2.4c-.16.81-.27,1.63-.41,2.44l-.8,4.88c-.31,1.62-.4,3.28-.61,4.92l-.53,4.93a88.42,88.42,0,0,0-.25,9.76,81.49,81.49,0,0,0,2.21,16.23,1,1,0,0,0,.06.25c.22.92.46,1.84.71,2.75.49,1.56.9,3.13,1.44,4.67l1.71,4.58,2,4.46c.69,1.48,1.5,2.9,2.24,4.36a101.41,101.41,0,0,0,11.06,16.17c1.08,1.23,2.1,2.51,3.23,3.71l3.39,3.56,3.56,3.4c1.18,1.15,2.48,2.17,3.7,3.26a134.76,134.76,0,0,0,16,11.58c22.47,13.84,48.71,21.34,75.1,22.43s53.15-4.4,76.56-16.63a128.5,128.5,0,0,0,16.82-10.39,122.29,122.29,0,0,0,15-12.8,109.38,109.38,0,0,0,22.41-32.2,98.3,98.3,0,0,0,3.71-9.67c.08-.24.16-.48.23-.73a96,96,0,0,0,3.17-13c0-.22.07-.45.1-.67a91,91,0,0,0,1.22-14.09,108.65,108.65,0,0,0-1.61-19.65c-.45-3.27-1.38-6.43-2.15-9.63-.43-1.58-1-3.12-1.51-4.69l-.77-2.34c-.28-.77-.63-1.52-.94-2.28l-1.91-4.54-2.25-4.39c-.39-.72-.72-1.48-1.16-2.18l-1.3-2.1-1.29-2.1a21.46,21.46,0,0,0-1.35-2.06l-2.89-4-.73-1-.8-.94L409,376.51c-2.05-2.59-4.44-4.87-6.73-7.25a124.53,124.53,0,0,0-26.87-19.4c-1.49-.82-3-1.6-4.5-2.36-.41-.22-.83-.42-1.24-.63l.19-.4.91-1.88.2-.42a132.38,132.38,0,0,1,33.62,22.7c2.38,2.43,4.86,4.77,7,7.43l1.66,1.94.83,1,.77,1,3,4.12a24.63,24.63,0,0,1,1.42,2.13l1.36,2.17,1.36,2.18c.46.71.81,1.5,1.22,2.25l2.38,4.54,2,4.71c.32.78.69,1.56,1,2.36l.83,2.43c.53,1.62,1.15,3.22,1.61,4.86.83,3.32,1.81,6.6,2.31,10A112.21,112.21,0,0,1,435.22,440.33Z" transform="translate(-133.02 -285.52)"/><path class="cls-1" d="M349.07,359l-1.69.63h0a16.78,16.78,0,0,1-3.72.8,28.3,28.3,0,0,1-3.68.14,38.14,38.14,0,0,1-7.23-.91,62,62,0,0,1-13.54-4.93,99.55,99.55,0,0,0-12.88-5c-2.2-.65-4.42-1.22-6.65-1.67-1.12-.21-2.24-.41-3.35-.54s-2.19-.23-3.12-.25c-4.59.91-9.25,2-13.77,3.26a82.85,82.85,0,0,0-13.34,4.78,115.65,115.65,0,0,0-12.35,7.2c-4,2.59-8,5.36-11.92,8.15l-4,2.83,2.48-4.11h0c2.75-4.71,5.63-9.31,8.7-13.81,1.55-2.25,3.15-4.46,4.87-6.61.86-1.07,1.76-2.11,2.72-3.13s2-1.93,3-2.83c1.44-1.29,2.94-2.55,4.49-3.74.86-.67,1.74-1.32,2.64-1.93a45.91,45.91,0,0,1,6.41-3.72c.63-.29,1.25-.58,1.89-.85a15.11,15.11,0,0,1,2.06-.7,18.23,18.23,0,0,1,4.25-.56,27.18,27.18,0,0,1,3.14.15,26.18,26.18,0,0,1,3.16.47c.68.13,1.36.3,2,.48l-.58,1.92c-.67-.18-1.36-.35-2.06-.48l-.41-.08a27.4,27.4,0,0,0-5.25-.46,16.48,16.48,0,0,0-3.79.5,12.43,12.43,0,0,0-1.78.6c-.61.26-1.21.54-1.81.82A55,55,0,0,0,261,344.5c-1,.89-2,1.81-2.91,2.73s-1.77,2-2.6,3c-1.67,2.08-3.25,4.26-4.78,6.48q-2.94,4.31-5.67,8.77c2.32-1.83,4.69-3.6,7.08-5.35a117.43,117.43,0,0,1,12.46-7.85A78,78,0,0,1,278.4,347c4.72-1.36,9.44-2.52,14.3-3.42l.16,0H293a29.78,29.78,0,0,1,3.79.29c1.22.15,2.42.37,3.61.61a66,66,0,0,1,7,1.83,88.75,88.75,0,0,1,13.26,5.54A60.29,60.29,0,0,0,333.4,357a34.67,34.67,0,0,0,6.69,1.21c.56.05,1.12.06,1.69.09s1.12,0,1.68,0c.4,0,.8,0,1.2-.07q-3.93-3.09-7.74-6.32a93.83,93.83,0,0,1-9-8.46c-.33-.38-.7-.86-1-1.16a7.94,7.94,0,0,0-1-1,16.45,16.45,0,0,0-2.35-1.6,34.08,34.08,0,0,0-5.43-2.31,71.5,71.5,0,0,0-11.64-2.8l.28-2a73.94,73.94,0,0,1,12,2.88,35.33,35.33,0,0,1,5.75,2.47,17.84,17.84,0,0,1,2.68,1.82,6.93,6.93,0,0,1,1.06,1l.13.14c.41.42.66.76,1,1.14s.63.7.95,1a104.84,104.84,0,0,0,7.79,7.21c3.08,2.61,6.23,5.16,9.43,7.62Z" transform="translate(-133.02 -285.52)"/><path class="cls-1" d="M377.6,357.86h0c-8.3-2.77-16.49-5.81-24.72-8.6-4.11-1.39-8.22-2.73-12.37-3.87-2.08-.57-4.17-1.1-6.26-1.55-1.26-.27-2.56-.53-3.83-.72-.82-.13-1.63-.23-2.41-.3l-.12-2a3.55,3.55,0,0,1,.46,0,32.72,32.72,0,0,1,6.36.21c2.22.25,4.42.64,6.6,1.1a109.1,109.1,0,0,1,12.77,3.67q6.24,2.16,12.32,4.73c3.24,1.37,6.45,2.79,9.61,4.33a29.49,29.49,0,0,0-3.62-5.67,21.14,21.14,0,0,0-1.48-1.66c-.34-.35-.69-.7-1.05-1l-.73-.67a24.09,24.09,0,0,0-3.83-2.67c-5.63-3-11.55-5.8-17.43-8.45-2.95-1.31-5.93-2.59-8.93-3.71a23.37,23.37,0,0,0-4.47-1.28,30.4,30.4,0,0,0-4.69-.22c-1.59,0-3.19.14-4.77.31s-3.31.23-4.94.29-3.28,0-4.92,0l-4.84-.2v-2l4.89.2c1.61,0,3.21.05,4.82,0,1.25,0,2.49-.08,3.72-.18l1.05-.09c.74-.09,1.48-.16,2.23-.2h0c.9-.07,1.8-.11,2.71-.13a32.77,32.77,0,0,1,5,.24,25,25,0,0,1,4.87,1.39c3.08,1.15,6.08,2.43,9.05,3.75,6,2.68,11.8,5.43,17.61,8.54a25.8,25.8,0,0,1,4.14,2.89l.34.31a29.14,29.14,0,0,1,3.17,3.31c.51.64,1,1.29,1.47,2a29.41,29.41,0,0,1,3.53,6.77l.7,1.91Z" transform="translate(-133.02 -285.52)"/><path class="cls-2" d="M273.07,319.33a93,93,0,0,1-11.19-3.09l-2.8-.93a17.75,17.75,0,0,0-2.63-.68,47.82,47.82,0,0,0-5.66-.7c-1.91-.12-3.87-.2-5.76-.19a37.26,37.26,0,0,0-5.66.47,54.55,54.55,0,0,0-7.76,1.8q6.54,1.42,13,3.27c2.73.77,5.44,1.62,8.14,2.58,1.34.48,2.69,1,4,1.57.67.29,1.34.61,2,1a8.66,8.66,0,0,1,2,1.43,2.81,2.81,0,0,1,.26.3,2.19,2.19,0,0,1,.27.39,2,2,0,0,1,.22.55,1.93,1.93,0,0,1,.05.73A2,2,0,0,1,261,329a3.13,3.13,0,0,1-.72.54,10.56,10.56,0,0,1-2.3.76l-4.11,1-2.08.5c-.76.16-1.3.27-2,.48l-2,.57c-.32.1-.7.19-1,.3l-.85.32a13.71,13.71,0,0,0-5.5,5.33,28.57,28.57,0,0,0-1.71,3.19l.11,0-.12.07c-.26.55-.49,1.11-.71,1.68,1.58-.93,3.19-1.77,4.84-2.57a47.8,47.8,0,0,1,7.75-3,28.58,28.58,0,0,1,4.13-.87l1.06-.12c.35,0,.72,0,1.07-.05.74,0,1.42,0,2.09,0l7.83.21a45.91,45.91,0,0,1,6.41-3.72c.63-.29,1.25-.58,1.89-.85a15.11,15.11,0,0,1,2.06-.7,18.23,18.23,0,0,1,4.25-.56,27.18,27.18,0,0,1,3.14.15ZM239.6,341.15a1.58,1.58,0,0,1-.38.57,1.65,1.65,0,0,1-.33.23l.8-1.31A1.56,1.56,0,0,1,239.6,341.15Z" transform="translate(-133.02 -285.52)"/><path class="cls-1" d="M288.36,332.86l-1.28,1.19-.18.17-.23-.25-2.15-2.31-11.45-12.33a93,93,0,0,1-11.19-3.09l-2.8-.93a17.75,17.75,0,0,0-2.63-.68,47.82,47.82,0,0,0-5.66-.7c-1.91-.12-3.87-.2-5.76-.19a37.26,37.26,0,0,0-5.66.47,54.55,54.55,0,0,0-7.76,1.8q6.54,1.42,13,3.27c2.73.77,5.44,1.62,8.14,2.58,1.34.48,2.69,1,4,1.57.67.29,1.34.61,2,1a8.66,8.66,0,0,1,2,1.43,2.81,2.81,0,0,1,.26.3,2.19,2.19,0,0,1,.27.39,2,2,0,0,1,.22.55,1.93,1.93,0,0,1,.05.73A2,2,0,0,1,261,329a3.13,3.13,0,0,1-.72.54,10.56,10.56,0,0,1-2.3.76l-4.11,1-2.08.5c-.76.16-1.3.27-2,.48l-2,.57c-.32.1-.7.19-1,.3l-.85.32a13.71,13.71,0,0,0-5.5,5.33,28.57,28.57,0,0,0-1.71,3.19v0c-.26.55-.49,1.11-.71,1.68,1.58-.93,3.19-1.77,4.84-2.57a47.8,47.8,0,0,1,7.75-3,28.58,28.58,0,0,1,4.13-.87l1.06-.12c.35,0,.72,0,1.07-.05.74,0,1.42,0,2.09,0l7.83.21h.32l0,2-2.91-.08-5.24-.14c-.69,0-1.36,0-2,0-.32,0-.64,0-1,0l-1,.12a25.7,25.7,0,0,0-3.84.8A47.45,47.45,0,0,0,243.7,343a68,68,0,0,0-7,3.89l-2.15,1.39.63-2.47h0c.2-.72.42-1.44.65-2.14a32.4,32.4,0,0,1,1.88-4.42c.26-.51.54-1,.83-1.52a15.29,15.29,0,0,1,6.4-6.34l1.12-.44c.38-.15.69-.22,1-.33l2-.61c.65-.21,1.49-.4,2.11-.54l2-.51,4.08-1.08a12.93,12.93,0,0,0,1.4-.41,8.15,8.15,0,0,0-1.19-.75c-.58-.31-1.19-.59-1.81-.86-1.25-.54-2.55-1-3.86-1.49-2.63-.92-5.31-1.72-8-2.53-5.38-1.58-10.82-3.06-16.24-4.56l-2.57-.71,2.38-1.17a45.28,45.28,0,0,1,5.62-2.23,46.78,46.78,0,0,1,5.84-1.51,40.77,40.77,0,0,1,6.05-.71c2-.09,4,0,6,.06a54.28,54.28,0,0,1,6,.68,20.58,20.58,0,0,1,3.07.77l2.81.89c2.28.73,4.54,1.5,6.78,2.37,1.42.55,2.84,1.14,4.23,1.79l.25.08.17.2,0,0,13.33,14.36Z" transform="translate(-133.02 -285.52)"/><path class="cls-1" d="M360,308.27l-4.26,2.42c-2.67,1.52-5.38,2.93-8.09,4.35l-8.08,4.21a78,78,0,0,0-7.66,4.53A42.42,42.42,0,0,0,327,327.6s0,0,0,0c-.64.58-1.25,1.18-1.82,1.79l-1.7-1.06.24-.44a19.9,19.9,0,0,1,2.6-3.55,31.9,31.9,0,0,1,3.48-3.3,46.37,46.37,0,0,1,8-5.05q3-1.55,6.09-2.91l-3.67.68c-5.08,1-10.17,1.83-15.27,2.66-.61.1-1.33.22-2,.29l-1.93.22a17.89,17.89,0,0,0-3.48.65,15,15,0,0,0-5.88,3.58,65.9,65.9,0,0,0-5.17,5.49c-1.66,1.91-3.23,3.94-4.73,6L299,336.45l1-4.57c.72-3.22,1.5-6.41,2.36-9.59a96.77,96.77,0,0,1,3-9.46,33,33,0,0,1,5.17-8.65l0-.05-.27.19c-1.38.94-2.76,1.9-4.16,2.8L304,308.5l-2,1.36a28.58,28.58,0,0,0-6.72,6.31,12.51,12.51,0,0,0-1.84,3.83,6.84,6.84,0,0,0-.21,1,5.61,5.61,0,0,0-.07,1,7.93,7.93,0,0,0,.07,1,3.4,3.4,0,0,0,.08.46,3.29,3.29,0,0,1,.08.34l.13.31c.58,2.56,1.11,5.13,1.54,7.73l-1.92.55c-1-2.43-1.91-4.88-2.77-7.35v0a9.31,9.31,0,0,1-.64-2.14,9.85,9.85,0,0,1,.09-3.87,15.59,15.59,0,0,1,2.11-5.06,28,28,0,0,1,7.74-7.44c.73-.47,1.47-1,2.2-1.41L304,303.8c1.44-.86,2.91-1.66,4.37-2.48,2.93-1.61,5.89-3.2,8.93-4.64l1.22,1.58a72.26,72.26,0,0,0-6.5,7.16,31.11,31.11,0,0,0-4.88,8.14,94.94,94.94,0,0,0-2.92,9.26q-.47,1.73-.9,3.45a55.63,55.63,0,0,1,6.06-7.47,17.53,17.53,0,0,1,7.13-4.54,21.35,21.35,0,0,1,4.12-.83l1.92-.2c.62-.06,1.17-.15,1.84-.25,5.1-.81,10.21-1.58,15.33-2.26s10.24-1.38,15.38-1.93h0Z" transform="translate(-133.02 -285.52)"/><path class="cls-1" d="M271.7,289.13h0a4.28,4.28,0,0,0-.53-1.43,4.6,4.6,0,0,0-3-2,8.38,8.38,0,0,0-3.07-.06,14.77,14.77,0,0,0-5.36,2,16.07,16.07,0,0,0-4.38,3.66,8.56,8.56,0,0,0-1.5,2.69,4.25,4.25,0,0,0,2,5.26,4.76,4.76,0,0,0,1.16.48,8.93,8.93,0,0,0,2.42.31c.26,0,.51,0,.76,0a13.73,13.73,0,0,0,5.62-1.85,14.43,14.43,0,0,0,4.4-4,9,9,0,0,0,1-1.81,8.39,8.39,0,0,0,.36-1.07A5,5,0,0,0,271.7,289.13Zm-2.82,1.42a6,6,0,0,1-1.06,1.82,12.47,12.47,0,0,1-3.59,2.95,13.34,13.34,0,0,1-4.36,1.62,6,6,0,0,1-2.1,0,1.75,1.75,0,0,1-1.53-2.37,5.88,5.88,0,0,1,.92-2,9.75,9.75,0,0,1,1.6-1.81,14.43,14.43,0,0,1,2-1.43,11.74,11.74,0,0,1,4.61-1.5,5.9,5.9,0,0,1,2.21.19,1.75,1.75,0,0,1,1.28,2.52Z" transform="translate(-133.02 -285.52)"/><path class="cls-2" d="M268.88,290.55a6,6,0,0,1-1.06,1.82,12.47,12.47,0,0,1-3.59,2.95,13.34,13.34,0,0,1-4.36,1.62,6,6,0,0,1-2.1,0,1.75,1.75,0,0,1-1.53-2.37,5.88,5.88,0,0,1,.92-2,9.75,9.75,0,0,1,1.6-1.81,14.43,14.43,0,0,1,2-1.43,11.74,11.74,0,0,1,4.61-1.5,5.9,5.9,0,0,1,2.21.19,1.75,1.75,0,0,1,1.28,2.52Z" transform="translate(-133.02 -285.52)"/><path class="cls-1" d="M274.35,317.77l-1.52,1.29q-1.62-1.67-3.16-3.39c-2.13-2.35-4.18-4.77-6.2-7.21-2.58-3-5.1-6.13-7.58-9.24l-1.37-1.72,1.53-1.29q1.72,1.89,3.42,3.8,3,3.38,5.94,6.8c3.07,3.56,6.1,7.15,8.91,10.93Z" transform="translate(-133.02 -285.52)"/><path class="cls-2" d="M376,354.83c-3.16-1.54-6.37-3-9.61-4.33q-6.07-2.56-12.32-4.73a109.1,109.1,0,0,0-12.77-3.67c-2.18-.46-4.38-.85-6.6-1.1a32.72,32.72,0,0,0-6.36-.21,6.93,6.93,0,0,0-1.06-1,17.84,17.84,0,0,0-2.68-1.82,35.33,35.33,0,0,0-5.75-2.47,73.94,73.94,0,0,0-12-2.88l-.28,2a71.5,71.5,0,0,1,11.64,2.8,34.08,34.08,0,0,1,5.43,2.31,16.45,16.45,0,0,1,2.35,1.6,7.94,7.94,0,0,1,1,1c.3.3.67.78,1,1.16a93.83,93.83,0,0,0,9,8.46q3.81,3.24,7.74,6.32c-.4,0-.8.06-1.2.07-.56,0-1.12,0-1.68,0s-1.13,0-1.69-.09A34.67,34.67,0,0,1,333.4,357a60.29,60.29,0,0,1-12.75-5.15,88.75,88.75,0,0,0-13.26-5.54,66,66,0,0,0-7-1.83c-1.19-.24-2.39-.46-3.61-.61a29.78,29.78,0,0,0-3.79-.29h-.13l-.16,0c-4.86.9-9.58,2.06-14.3,3.42a78,78,0,0,0-13.85,5.29,117.43,117.43,0,0,0-12.46,7.85c-2.39,1.75-4.76,3.52-7.08,5.35q2.73-4.46,5.67-8.77c1.53-2.22,3.11-4.4,4.78-6.48.83-1,1.7-2.05,2.6-3s1.9-1.84,2.91-2.73A55,55,0,0,1,274,335.43c.6-.28,1.2-.56,1.81-.82a12.43,12.43,0,0,1,1.78-.6,16.48,16.48,0,0,1,3.79-.5,27.4,27.4,0,0,1,5.25.46l.23.25.18-.17c.7.13,1.39.3,2.06.48l.58-1.92c-.68-.18-1.36-.35-2-.48l-13.33-14.36,0,0c-2.81-3.78-5.84-7.37-8.91-10.93q-2.93-3.44-5.94-6.8c.26,0,.51,0,.76,0a13.73,13.73,0,0,0,5.62-1.85,14.43,14.43,0,0,0,4.4-4,9,9,0,0,0,1-1.81c1.1,1.87,2.22,3.73,3.33,5.59,1.82,3,3.61,6.06,5.46,9.06,3.23,5.28,6.44,10.58,9.69,15.84a9.31,9.31,0,0,0,.64,2.14v0c.86,2.47,1.76,4.92,2.77,7.35l1.92-.55c-.43-2.6-1-5.17-1.54-7.73l-.13-.31a3.29,3.29,0,0,0-.08-.34,3.4,3.4,0,0,1-.08-.46,7.93,7.93,0,0,1-.07-1,5.61,5.61,0,0,1,.07-1,6.84,6.84,0,0,1,.21-1,12.51,12.51,0,0,1,1.84-3.83,28.58,28.58,0,0,1,6.72-6.31l2-1.36,2.1-1.38c1.4-.9,2.78-1.86,4.16-2.8l.27-.19,0,.05a33,33,0,0,0-5.17,8.65,96.77,96.77,0,0,0-3,9.46c-.86,3.18-1.64,6.37-2.36,9.59l-1,4.57,2.83-3.83c1.5-2,3.07-4.06,4.73-6a65.9,65.9,0,0,1,5.17-5.49,15,15,0,0,1,5.88-3.58,17.89,17.89,0,0,1,3.48-.65l1.93-.22c.66-.07,1.38-.19,2-.29,5.1-.83,10.19-1.7,15.27-2.66l3.67-.68q-3.07,1.37-6.09,2.91a46.37,46.37,0,0,0-8,5.05,31.9,31.9,0,0,0-3.48,3.3,19.9,19.9,0,0,0-2.6,3.55c-1.23.1-2.47.14-3.72.18-1.61,0-3.21,0-4.82,0l-4.89-.2v2l4.84.2c1.64,0,3.28.05,4.92,0s3.28-.11,4.94-.29,3.18-.28,4.77-.31a30.4,30.4,0,0,1,4.69.22,23.37,23.37,0,0,1,4.47,1.28c3,1.12,6,2.4,8.93,3.71,5.88,2.65,11.8,5.43,17.43,8.45a24.09,24.09,0,0,1,3.83,2.67l.73.67-.19.4c.41.21.83.41,1.24.63a21.14,21.14,0,0,1,1.48,1.66A29.49,29.49,0,0,1,376,354.83Z" transform="translate(-133.02 -285.52)"/><path class="cls-1" d="M292.81,324l-1.72,1c-.46-.73-.91-1.47-1.36-2.2-3.25-5.26-6.46-10.56-9.69-15.84-1.85-3-3.64-6-5.46-9.06-1.11-1.86-2.23-3.72-3.33-5.59-.7-1.16-1.39-2.33-2.07-3.5l1.71-1,.81,1.3h0c1.6,2.56,3.17,5.13,4.74,7.7,1.83,3,3.69,6,5.5,9,2.62,4.37,5.26,8.74,7.88,13.12Q291.32,321.5,292.81,324Z" transform="translate(-133.02 -285.52)"/><path class="cls-3" d="M456,491.93a14.61,14.61,0,0,1-1.83,1.46c-.72.5-1.48,1-2.25,1.46-3.08,1.9-6.32,3.69-9.55,5.49s-6.48,3.58-9.7,5.43c-1.63.9-3.21,1.88-4.81,2.86-.79.49-1.59,1-2.38,1.52l-.6.43-.33.28-.11.11a.77.77,0,0,0-.19.63.62.62,0,0,0,.13.27l0,0,.08.09a1.9,1.9,0,0,0,1.37.59c.25.66.51,1.31.79,1.95a10.38,10.38,0,0,0,1.27,2.28,3,3,0,0,0,.23.25c.06.07.05,0,.07.1a3.59,3.59,0,0,1,.09.47l.12,1.21a6.57,6.57,0,0,1-.14,2.39,13.82,13.82,0,0,1-1.75,4.11,15.52,15.52,0,0,1-1.19,1.73,6.74,6.74,0,0,1-1.42,1.33,20.49,20.49,0,0,1-2,1l-2.23,1c-1.51.63-3,1.26-4.57,1.83-.78.29-1.55.57-2.33.83-.4.14-.78.26-1.2.43a2.53,2.53,0,0,0-.36.16,1.49,1.49,0,0,0-.24.19.71.71,0,0,0-.17.52.91.91,0,0,0,.29.55l.24.24a2.77,2.77,0,0,1,.66.83,1.18,1.18,0,0,1,.12.84,1.36,1.36,0,0,1-.39.57,4.18,4.18,0,0,0-.56.37c-.13.09-.22.16-.31.21l-.07,0h0l0,0,.51,1.26.05,0a3.31,3.31,0,0,0,.68-.32,2.13,2.13,0,0,1,.45-.21,3.11,3.11,0,0,1,1-.08c.11,0,.15,0,.13.05a.48.48,0,0,1,.06.15,4.26,4.26,0,0,0,.31.74,1.19,1.19,0,0,0,.52.44,1.22,1.22,0,0,0,.74.05,1.64,1.64,0,0,0,.71-.42,2.79,2.79,0,0,0,.19-.24l.09-.13.17-.22.37-.47.83-.93c.57-.61,1.15-1.21,1.74-1.81a4.82,4.82,0,0,1,3.36-1,5.51,5.51,0,0,1,3.26,1.65,5.27,5.27,0,0,1,1.58,3.24,12,12,0,0,1-.8,3.92c-.92,2.75-1.72,5.56-3.24,7.79a10.61,10.61,0,0,1-6.32,4.52,8.47,8.47,0,0,1-1.93.13,7.22,7.22,0,0,1-1.83-.46,25.7,25.7,0,0,1-3.77-1.84,38.92,38.92,0,0,1-3.56-2.33c-1.16-.85-2.27-1.74-3.33-2.69a22,22,0,0,1-5.23-6.42,26.77,26.77,0,0,1-1.32-4,32.11,32.11,0,0,1-.9-4.13,17.86,17.86,0,0,1-.16-2c0-.7,0-1.41.05-2.09a19.58,19.58,0,0,1,.78-4,31.3,31.3,0,0,1,3.64-7.61c.62-.95,1.26-1.89,1.94-2.8.66-.64,1.32-1.3,2-2q2.21-2.25,4.31-4.62c1.15-1,2.35-2,3.57-2.89a111.38,111.38,0,0,1,14.77-9.05,84,84,0,0,0,7.67-4.44,12.7,12.7,0,0,0,3.44-3.25,5.3,5.3,0,0,0,.9-2.51,5.13,5.13,0,0,0-.54-2.63l0,0,0,0c-1.67-2.78-3.3-5.58-5-8.33q-1.29-2.13-2.66-4.23A101,101,0,0,0,434,455.59a2.77,2.77,0,0,1,.86.43,3,3,0,0,1,.72.82l.71,1.16,1.44,2.38,5.77,9.51,5.74,9.51c1.88,3.17,3.78,6.36,5.47,9.56.41.8.81,1.61,1.14,2.37C455.89,491.53,456,491.75,456,491.93Z" transform="translate(-133.02 -285.52)"/><path class="cls-1" d="M459.8,492.19a2.1,2.1,0,0,1,0,.36,2.9,2.9,0,0,1-.32.93,4.55,4.55,0,0,1-.69.92,15.62,15.62,0,0,1-2.45,2c-.81.56-1.62,1.07-2.43,1.57-3.26,1.95-6.57,3.67-9.92,5.32s-6.72,3.21-10.11,4.71c-1.69.78-3.41,1.47-5.11,2.21-.85.37-1.7.74-2.51,1.14l-.34.17.23,0h.47l.12.31h0c.29.76.58,1.52.91,2.26a9.29,9.29,0,0,0,1.11,2,1.63,1.63,0,0,0,.19.21,1.22,1.22,0,0,1,.27.4,3.76,3.76,0,0,1,.16.73l.13,1.24h0a7.84,7.84,0,0,0,.15,1.16c.08.45.17.91.21,1.37a10.47,10.47,0,0,1-.47,5c0,.12-.09.23-.14.35a8.69,8.69,0,0,1-1.26,2.08l-.25.3a7.79,7.79,0,0,1-2.3,1.88,13.68,13.68,0,0,1-2.55.92c-.81.23-1.63.42-2.44.6l-4.86,1c-.8.18-1.61.37-2.4.58l-1.1.3,0,0a3,3,0,0,1,1.17,2.57l.21,0a2,2,0,0,1,1.09.3,1.71,1.71,0,0,1,.48.49c.09-.12.18-.24.28-.35.29-.34.58-.67.88-1,.59-.65,1.19-1.28,1.79-1.9l.05,0,.05,0a6.66,6.66,0,0,1,4.76-1.4,7.4,7.4,0,0,1,4.42,2.18,7.17,7.17,0,0,1,2.15,4.47,13.86,13.86,0,0,1-.87,4.62,38.85,38.85,0,0,1-2.93,7.46c-.17.29-.34.57-.53.85a11.87,11.87,0,0,1-.81,1.06,14.38,14.38,0,0,1-2.42,2.32,9.92,9.92,0,0,1-6.78,2.17,9.17,9.17,0,0,1-2.4-.57,27.56,27.56,0,0,1-4.09-2,39.72,39.72,0,0,1-3.77-2.44c-1.19-.87-2.36-1.8-3.49-2.79a24,24,0,0,1-5.74-7.06,12.6,12.6,0,0,1-.84-2.19l-.63-2.12a34.88,34.88,0,0,1-1-4.41,21.59,21.59,0,0,1-.19-2.31c0-.76,0-1.51.07-2.28a20.78,20.78,0,0,1,.88-4.52,29.37,29.37,0,0,1,1.86-4.57,38.77,38.77,0,0,1,2-3.55,40,40,0,0,1,5.6-7,61.91,61.91,0,0,1,6.74-5.8c1.11-.84,2.25-1.64,3.41-2.41h0c3.75-2.49,7.7-4.67,11.63-6.76a82.3,82.3,0,0,0,7.48-4.3,10.81,10.81,0,0,0,2.91-2.69,3,3,0,0,0,.29-3.08l0-.08c-1.63-2.77-3.32-5.51-4.9-8.3-.6-1-1.19-2.06-1.77-3.11-.91-1.64-1.79-3.31-2.62-5-.08-.15-.15-.31-.23-.46l.46-.27.45-.27c.92,1.28,1.81,2.59,2.68,3.91s1.8,2.81,2.66,4.23c1.72,2.75,3.35,5.55,5,8.33l0,0,0,0a5.13,5.13,0,0,1,.54,2.63,5.3,5.3,0,0,1-.9,2.51,12.7,12.7,0,0,1-3.44,3.25,84,84,0,0,1-7.67,4.44,111.38,111.38,0,0,0-14.77,9.05c-1.22.92-2.42,1.88-3.57,2.89s-2,1.78-2.93,2.72a33.48,33.48,0,0,0-3.35,3.86c-.68.91-1.32,1.85-1.94,2.8a31.3,31.3,0,0,0-3.64,7.61,19.58,19.58,0,0,0-.78,4c-.05.68-.06,1.39-.05,2.09a17.86,17.86,0,0,0,.16,2,32.11,32.11,0,0,0,.9,4.13,26.77,26.77,0,0,0,1.32,4,22,22,0,0,0,5.23,6.42c1.06.95,2.17,1.84,3.33,2.69a38.92,38.92,0,0,0,3.56,2.33,25.7,25.7,0,0,0,3.77,1.84,7.22,7.22,0,0,0,1.83.46,8.47,8.47,0,0,0,1.93-.13,10.61,10.61,0,0,0,6.32-4.52c1.52-2.23,2.32-5,3.24-7.79a12,12,0,0,0,.8-3.92,5.27,5.27,0,0,0-1.58-3.24,5.51,5.51,0,0,0-3.26-1.65,4.82,4.82,0,0,0-3.36,1c-.59.6-1.17,1.2-1.74,1.81l-.83.93-.37.47-.17.22-.09.13a2.79,2.79,0,0,1-.19.24,1.64,1.64,0,0,1-.71.42,1.22,1.22,0,0,1-.74-.05,1.19,1.19,0,0,1-.52-.44,4.26,4.26,0,0,1-.31-.74.48.48,0,0,0-.06-.15s0,0-.13-.05a3.11,3.11,0,0,0-1,.08,2.13,2.13,0,0,0-.45.21,3.31,3.31,0,0,1-.68.32l-.05,0-.51-1.26,0,0h0l.07,0c.09-.05.18-.12.31-.21a4.18,4.18,0,0,1,.56-.37,1.36,1.36,0,0,0,.39-.57,1.18,1.18,0,0,0-.12-.84,2.77,2.77,0,0,0-.66-.83l-.24-.24a.91.91,0,0,1-.29-.55.71.71,0,0,1,.17-.52,1.49,1.49,0,0,1,.24-.19,2.53,2.53,0,0,1,.36-.16c.42-.17.8-.29,1.2-.43.78-.26,1.55-.54,2.33-.83,1.54-.57,3.06-1.2,4.57-1.83l2.23-1a20.49,20.49,0,0,0,2-1,6.74,6.74,0,0,0,1.42-1.33,15.52,15.52,0,0,0,1.19-1.73,13.82,13.82,0,0,0,1.75-4.11,6.57,6.57,0,0,0,.14-2.39l-.12-1.21a3.59,3.59,0,0,0-.09-.47s0,0-.07-.1a3,3,0,0,1-.23-.25,10.38,10.38,0,0,1-1.27-2.28c-.28-.64-.54-1.29-.79-1.95a1.9,1.9,0,0,1-1.37-.59l-.08-.09,0,0a.62.62,0,0,1-.13-.27.77.77,0,0,1,.19-.63l.11-.11.33-.28.6-.43c.79-.54,1.59-1,2.38-1.52,1.6-1,3.18-2,4.81-2.86,3.22-1.85,6.48-3.63,9.7-5.43s6.47-3.59,9.55-5.49c.77-.48,1.53-1,2.25-1.46a14.61,14.61,0,0,0,1.83-1.46c-.07-.18-.15-.4-.24-.6-.33-.76-.73-1.57-1.14-2.37-1.69-3.2-3.59-6.39-5.47-9.56l-5.74-9.51-5.77-9.51L436.24,458l-.71-1.16a3,3,0,0,0-.72-.82,2.77,2.77,0,0,0-.86-.43,8.82,8.82,0,0,0-1.38-.29l-.68-.09a2.09,2.09,0,0,0-.54,0,4.71,4.71,0,0,0-1.18.34l-.23-.46-.24-.48.34-.19a5.37,5.37,0,0,1,1.09-.41,3.21,3.21,0,0,1,.84-.08h.71a8.82,8.82,0,0,1,1.5.14,4.72,4.72,0,0,1,1.57.59,5.22,5.22,0,0,1,1.23,1.15l.85,1.14,1.65,2.26c2.2,3,4.31,6.06,6.42,9.12,4.17,6.17,8.3,12.32,12,18.95.45.84.89,1.69,1.3,2.63a8.69,8.69,0,0,1,.57,1.71,2.53,2.53,0,0,1,.05.38Z" transform="translate(-133.02 -285.52)"/><path class="cls-1" d="M441.54,532c-.17.6-.37,1.15-.55,1.68s-.41,1.11-.65,1.65a21.67,21.67,0,0,1-1.73,3.08c-.56,1.13-1.2,2.23-1.79,3.34s-1.44,2.23-2.21,3.31a38.93,38.93,0,0,1-2.54,3,30.69,30.69,0,0,1-2.86,2.73h0l-.09.08,0,0-4.78,2.74-1.46.84-.5-.86,3.3-1.89,2.84-1.63,2-3.22c.66-1.09,1.32-2.16,1.93-3.27s1.13-2.09,1.67-3.15l.09-.18c.53-1.14,1-2.29,1.59-3.4l.07-.14.05-.08a16.67,16.67,0,0,0,.85-1.48,28.25,28.25,0,0,0,1.69-4.12,8,8,0,0,0,.37-2.72,8.9,8.9,0,0,0-.58-2.77,9.66,9.66,0,0,0-3.49-4.6,5.79,5.79,0,0,0-2.55-1.22,5.54,5.54,0,0,0-2.58.14,2.42,2.42,0,0,0-.36.1l-.44-.9a5.93,5.93,0,0,1,.65-.36h0a6.57,6.57,0,0,1,2.86-.67,7.24,7.24,0,0,1,3.61,1,11.52,11.52,0,0,1,5,5.36,12.08,12.08,0,0,1,1,3.66A10.14,10.14,0,0,1,441.54,532Z" transform="translate(-133.02 -285.52)"/><path class="cls-3" d="M434.12,540.49c-.54,1.06-1.07,2.12-1.67,3.15s-1.27,2.18-1.93,3.27l-2,3.22-2.84,1.63a38.85,38.85,0,0,0,2.93-7.46,13.86,13.86,0,0,0,.87-4.62,7.17,7.17,0,0,0-2.15-4.47,7.4,7.4,0,0,0-4.42-2.18,6.66,6.66,0,0,0-4.76,1.4l-.05,0-.05,0c-.6.62-1.2,1.25-1.79,1.9-.3.32-.59.65-.88,1-.1.11-.19.23-.28.35a1.71,1.71,0,0,0-.48-.49,2,2,0,0,0-1.09-.3l-.21,0a3,3,0,0,0-1.17-2.57l0,0,1.1-.3c.79-.21,1.6-.4,2.4-.58l4.86-1c.81-.18,1.63-.37,2.44-.6a13.68,13.68,0,0,0,2.55-.92,7.79,7.79,0,0,0,2.3-1.88l.25-.3a8,8,0,0,1,2.66.44,3.52,3.52,0,0,1,1.55,1.09,7.46,7.46,0,0,1,1,2,19.83,19.83,0,0,1,1,5.13A26,26,0,0,1,434.12,540.49Z" transform="translate(-133.02 -285.52)"/><path class="cls-3" d="M438.83,528.37a8,8,0,0,1-.37,2.72,28.25,28.25,0,0,1-1.69,4.12,15.53,15.53,0,0,0-.61-3.86,8.69,8.69,0,0,0-1.54-3.07,5.63,5.63,0,0,0-3.24-1.87,6.86,6.86,0,0,0-2-.09,10.47,10.47,0,0,0,.47-5c0-.46-.13-.92-.21-1.37a5.54,5.54,0,0,1,2.58-.14,5.79,5.79,0,0,1,2.55,1.22,9.66,9.66,0,0,1,3.49,4.6A8.9,8.9,0,0,1,438.83,528.37Z" transform="translate(-133.02 -285.52)"/><path class="cls-1" d="M436.77,535.21a15.8,15.8,0,0,1-1.87,8l-1-.3c.08-.83.14-1.64.18-2.44a26,26,0,0,0,0-3.06,19.83,19.83,0,0,0-1-5.13,7.46,7.46,0,0,0-1-2,3.52,3.52,0,0,0-1.55-1.09,8,8,0,0,0-2.66-.44,21.25,21.25,0,0,0-2.37.08l-.38-.92a8.39,8.39,0,0,1,4.15-1.59,6.86,6.86,0,0,1,2,.09,5.63,5.63,0,0,1,3.24,1.87,8.69,8.69,0,0,1,1.54,3.07A15.53,15.53,0,0,1,436.77,535.21Z" transform="translate(-133.02 -285.52)"/><path class="cls-1" d="M272,398.79a15.05,15.05,0,0,1-4.48,1.95,50.07,50.07,0,0,1-9.55,1.8l-.47,0a104.29,104.29,0,0,1-11.69.7,26.33,26.33,0,0,1-8.26-1.42l-6.91-2.27L207.37,392s14.65,1.18,19.29,1.26,16.39-2.18,22.9-4.52l17-6.09Z" transform="translate(-133.02 -285.52)"/><path class="cls-1" d="M360.7,391.09s-15.3,6.83-25.9,10.14c-1.27.41-2.47.76-3.57,1a25.6,25.6,0,0,1-2.87.6c-.41.06-.83.11-1.27.14a41.29,41.29,0,0,1-10.2-.79c-1.71-.32-3.37-.69-4.89-1.07l-1.76-.45h0c-3.64-1-6.19-1.87-6.19-1.87l3.9-16s9.49,5,17.52,7.25,10.71,2.65,15.74,3S360.7,391.09,360.7,391.09Z" transform="translate(-133.02 -285.52)"/><path class="cls-1" d="M235.27,461.68a1,1,0,0,1-.1.48,1,1,0,0,1-.09.17,2.6,2.6,0,0,1-.33.48l-.88.48a2.28,2.28,0,0,1-.76,0,1,1,0,0,1-.36-.13l-.1-.07c-.11-.1-.22-.18-.22-.33s.18-.39.73-.81l.89-.45c.67-.2.94-.2,1.08-.14S235.25,461.55,235.27,461.68Z" transform="translate(-133.02 -285.52)"/><path class="cls-1" d="M278.75,439.75v.1l-.07,1.42-.1,1.5c-.08,1-.19,2-.32,3a53.58,53.58,0,0,1-1.19,5.9,43.84,43.84,0,0,1-1.94,5.69c-.34.94-.85,1.8-1.28,2.7-.34.64-.66,1.3-1,1.94l-.41.7-.88-.47c.08-.17.15-.34.22-.51.31-.72.56-1.47.84-2.2a27.72,27.72,0,0,0,1-2.72A45.82,45.82,0,0,0,275,451.2a52.56,52.56,0,0,0,.78-5.71c.09-1,.15-1.91.18-2.87l0-1.44v-1.43c0-1.18-.09-2.46-.18-3.64,0-.6-.1-1.22-.16-1.82s-.14-1.18-.23-1.78a49.39,49.39,0,0,0-1.56-7,38.65,38.65,0,0,0-6.47-12.68,28,28,0,0,0-2.38-2.61,28.3,28.3,0,0,0-2.7-2.21,10.45,10.45,0,0,0-1.47-.89c-.51-.27-1-.59-1.52-.83a16.47,16.47,0,0,0-3.22-1.08,16,16,0,0,0-13,2.83,30.08,30.08,0,0,0-2.7,2.25,28.45,28.45,0,0,0-2.4,2.62,33.37,33.37,0,0,0-3.81,6.05,44.12,44.12,0,0,0-4.16,13.86,51.77,51.77,0,0,0,4,28.7l-.9.44a47.13,47.13,0,0,1-4.76-14.28,53.19,53.19,0,0,1-.43-15.12,46.32,46.32,0,0,1,4-14.67,31,31,0,0,1,9.52-12.14,19.21,19.21,0,0,1,4.29-2.42,18.24,18.24,0,0,1,11-1.05c.4.09.8.18,1.19.3a24.09,24.09,0,0,1,11.85,8.32C276.35,419.06,279,429.64,278.75,439.75Z" transform="translate(-133.02 -285.52)"/><path class="cls-1" d="M271.24,462.8a2.91,2.91,0,0,1-.83-.62c0-.08,0-.1.11-.13a1.05,1.05,0,0,1,.36,0,3.8,3.8,0,0,1,.67.17l.88.47a4.06,4.06,0,0,1,.52.45,1.09,1.09,0,0,1,.2.3c0,.07,0,.14,0,.16a3.3,3.3,0,0,1-1-.33Z" transform="translate(-133.02 -285.52)"/><path class="cls-1" d="M282.12,464.74l-.28,1-13.28-3.1a67.06,67.06,0,0,0-13.34-2,61.06,61.06,0,0,0-6.73.35l-3.39.31c-1.1.11-2.2.34-3.3.56a116.18,116.18,0,0,0-13,3.84l-.35-.94c1.44-.56,2.88-1.1,4.33-1.61.77-.28,1.55-.55,2.33-.81,2.11-.7,4.24-1.33,6.41-1.85.82-.18,1.64-.36,2.47-.5h0l.95-.14,2.53-.28h0l.86-.1a54.71,54.71,0,0,1,6.92-.43,64.42,64.42,0,0,1,13.67,2c.95.22,1.9.46,2.85.7l1.07.28Q277.54,463.21,282.12,464.74Z" transform="translate(-133.02 -285.52)"/><path class="cls-4" d="M244.92,459.84,244,460a6.63,6.63,0,0,0,1.18.08,6.34,6.34,0,0,0,2.3-.5Z" transform="translate(-133.02 -285.52)"/><path class="cls-1" d="M303.21,459.1a1.23,1.23,0,0,1-.36.53l-.21.21-.88.48a1.53,1.53,0,0,1-.93.06c-.14-.07-.16-.21-.19-.34a1,1,0,0,1,0-.45v0A1.91,1.91,0,0,1,301,459l.9-.45a2.1,2.1,0,0,1,.71.06,1,1,0,0,1,.4.2C303.14,458.86,303.24,458.94,303.21,459.1Z" transform="translate(-133.02 -285.52)"/><path class="cls-1" d="M346.18,436.78v.06l-.06,1.25L346,439.4c-.06.87-.14,1.74-.24,2.6-.2,1.73-.49,3.46-.85,5.16a45.8,45.8,0,0,1-1.39,5c-.44,1.24-.91,2.48-1.43,3.69q-.22.53-.48,1.05a.42.42,0,0,1,0,.1l-.36-.16-.55-.25c.11-.26.21-.52.31-.78.51-1.32.95-2.67,1.36-4a44.42,44.42,0,0,0,1.16-4.95q.45-2.5.66-5c.06-.84.11-1.69.14-2.53l0-1.27,0-1.33v.07a63.19,63.19,0,0,0-.56-7.31,46.18,46.18,0,0,0-1.6-7.1,37.85,37.85,0,0,0-6.67-12.73,30,30,0,0,0-2.43-2.61,28.89,28.89,0,0,0-2.74-2.22,10.77,10.77,0,0,0-1.5-.89c-.52-.27-1-.58-1.54-.82l-.24-.1a15.47,15.47,0,0,0-3-1,15.25,15.25,0,0,0-7.17.17A17.34,17.34,0,0,0,311,405a31.85,31.85,0,0,0-2.67,2.28,28.26,28.26,0,0,0-2.36,2.65,33.94,33.94,0,0,0-3.73,6.08,38.8,38.8,0,0,0-2.58,6.73c-.18.58-.32,1.18-.48,1.77s-.28,1.13-.41,1.74c-.25,1.19-.4,2.39-.61,3.58a55.44,55.44,0,0,0-.1,14.56,49.85,49.85,0,0,0,3.84,14.11l-.9.45a49.83,49.83,0,0,1-5.41-29.43,45.19,45.19,0,0,1,4.12-14.71,31.12,31.12,0,0,1,9.67-12.06,20.66,20.66,0,0,1,2.58-1.61,18.33,18.33,0,0,1,12.63-1.72,20,20,0,0,1,6.6,2.84,26.44,26.44,0,0,1,6.25,5.81C343.83,416.29,346.39,426.73,346.18,436.78Z" transform="translate(-133.02 -285.52)"/><path class="cls-1" d="M350.62,456.79l-.12,1c-1.55,0-3.08-.14-4.61-.27s-2.84-.3-4.24-.58l-.33-.06.07-1h.74c1.3,0,2.59.15,3.89.27C347.56,456.33,349.1,456.5,350.62,456.79Z" transform="translate(-133.02 -285.52)"/><path class="cls-1" d="M341.39,455.88l-.07,1h-.07c-1.74-.1-3.46-.17-5.18-.18a27.08,27.08,0,0,0-5.13.36,6.58,6.58,0,0,0-2.27.79,12.12,12.12,0,0,1-2.47,1.23,32.2,32.2,0,0,1-5.26,1.21,71.74,71.74,0,0,1-10.63.78,96.31,96.31,0,0,1-10.6-.5l.07-1h.9c.72,0,1.44,0,2.17,0,2.48,0,5,0,7.44,0a83.92,83.92,0,0,0,10.42-.75,32.43,32.43,0,0,0,5-1.12,10.2,10.2,0,0,0,2.27-1.08,8.19,8.19,0,0,1,2.7-.9,25.78,25.78,0,0,1,5.39-.24c1.65.06,3.29.18,4.92.32Z" transform="translate(-133.02 -285.52)"/><path class="cls-3" d="M195,529.15c0,.68,0,1.39-.08,2.09a18.79,18.79,0,0,1-.3,2,29.13,29.13,0,0,1-1.17,4.06,27.61,27.61,0,0,1-1.57,3.87,21.91,21.91,0,0,1-5.64,6.07c-1.12.87-2.28,1.69-3.49,2.47a38.34,38.34,0,0,1-3.71,2.08,25.15,25.15,0,0,1-3.88,1.59,7.07,7.07,0,0,1-1.86.34,8,8,0,0,1-1.92-.25,10.6,10.6,0,0,1-6-4.93c-1.36-2.32-2-5.18-2.73-8a12.47,12.47,0,0,1-.54-4,5.26,5.26,0,0,1,1.79-3.13,5.52,5.52,0,0,1,3.36-1.44,4.85,4.85,0,0,1,3.32,1.19c.54.62,1.07,1.26,1.59,1.9l.77,1,.34.48.16.24.08.13a1.51,1.51,0,0,0,.18.25,1.44,1.44,0,0,0,.67.47,1.13,1.13,0,0,0,1.29-.41,4.23,4.23,0,0,0,.36-.72c.05-.12.07-.14.06-.15s0,0,.14,0a3.64,3.64,0,0,1,1,.15,2.52,2.52,0,0,1,.44.24,3.69,3.69,0,0,0,.66.36l0,0,.6-1.22-.05,0-.17-.1-.22-.19a4.46,4.46,0,0,0-.54-.4,1.29,1.29,0,0,1-.35-.6,1.15,1.15,0,0,1,.17-.83,2.78,2.78,0,0,1,.72-.79l.25-.22a.92.92,0,0,0,.33-.53.67.67,0,0,0-.14-.52.86.86,0,0,0-.23-.21,3.25,3.25,0,0,0-.34-.19c-.42-.19-.78-.34-1.17-.5-.76-.31-1.52-.64-2.27-1-1.5-.67-3-1.4-4.44-2.13l-2.16-1.11a20.81,20.81,0,0,1-1.93-1.12,6.77,6.77,0,0,1-1.33-1.42,15.25,15.25,0,0,1-1.07-1.8,13.79,13.79,0,0,1-1.48-4.22,6.62,6.62,0,0,1,0-2.39l.21-1.2a2.24,2.24,0,0,1,.12-.47s0,0,.08-.09.16-.15.24-.23a10.4,10.4,0,0,0,1.41-2.19c.32-.64.63-1.27.92-1.91a1.87,1.87,0,0,0,1.41-.49L167,509l.05,0a.8.8,0,0,0,.14-.26.68.68,0,0,0,0-.28.77.77,0,0,0-.16-.36l-.1-.12a2.8,2.8,0,0,0-.31-.3l-.57-.47c-.76-.59-1.52-1.13-2.28-1.68-1.53-1.08-3.05-2.16-4.61-3.17-3.09-2.05-6.23-4-9.33-6.05s-6.21-4-9.17-6.1c-.73-.52-1.46-1.06-2.14-1.6A13.91,13.91,0,0,1,136.8,487c.07-.17.17-.39.27-.58.38-.74.83-1.52,1.3-2.29,1.89-3.08,4-6.14,6.08-9.18l6.35-9.12,6.38-9.11,1.59-2.28.78-1.11a3.3,3.3,0,0,1,.77-.77,2.49,2.49,0,0,1,.59-.29,86.21,86.21,0,0,0,2.81,17c-.84,1.11-1.66,2.25-2.46,3.39-1.89,2.63-3.69,5.32-5.55,8l0,0,0,0a5.11,5.11,0,0,0-.71,2.59,5.37,5.37,0,0,0,.73,2.56,12.76,12.76,0,0,0,3.22,3.46,84.33,84.33,0,0,0,7.36,4.93,111.88,111.88,0,0,1,14.15,10,59.06,59.06,0,0,1,6.12,6,38.15,38.15,0,0,1,4.85,7,32.13,32.13,0,0,1,3.13,7.83A19.09,19.09,0,0,1,195,529.15Z" transform="translate(-133.02 -285.52)"/><path class="cls-1" d="M197.18,529.13c0,.77,0,1.52-.08,2.28a20.67,20.67,0,0,1-.34,2.29A34,34,0,0,1,195.5,538l-.77,2.07a13.47,13.47,0,0,1-1,2.13,23.72,23.72,0,0,1-6.2,6.67c-1.18.92-2.41,1.77-3.66,2.56a40.74,40.74,0,0,1-3.92,2.19,28.48,28.48,0,0,1-4.21,1.7,9.14,9.14,0,0,1-2.43.41,10,10,0,0,1-2.41-.33,10.16,10.16,0,0,1-4.21-2.28,14.47,14.47,0,0,1-2.28-2.48c-.26-.35-.5-.72-.73-1.1s-.33-.6-.48-.9a39.83,39.83,0,0,1-2.43-7.62,13.94,13.94,0,0,1-.56-4.67,7.16,7.16,0,0,1,2.44-4.32,7.33,7.33,0,0,1,4.55-1.89,6.74,6.74,0,0,1,4.66,1.71l.09.09c.56.66,1.12,1.32,1.67,2q.41.51.81,1l.25.36a1.65,1.65,0,0,1,.52-.45,1.85,1.85,0,0,1,1.1-.23l.22,0a3,3,0,0,1,1.32-2.5l0,0c-.33-.13-.71-.26-1.07-.37-.78-.27-1.57-.5-2.36-.74l-4.78-1.36c-.8-.24-1.6-.48-2.4-.77a13.54,13.54,0,0,1-2.48-1.08,8,8,0,0,1-2.17-2,3.71,3.71,0,0,1-.23-.32h0a9.2,9.2,0,0,1-1.13-2.15c0-.12-.08-.24-.11-.36a10.51,10.51,0,0,1-.14-5c.07-.46.19-.92.3-1.36a8.36,8.36,0,0,0,.23-1.15l.21-1.23a3.32,3.32,0,0,1,.2-.72,1.38,1.38,0,0,1,.3-.39,2.09,2.09,0,0,0,.21-.19,10,10,0,0,0,1.24-2c.37-.72.71-1.46,1-2.2h0l.14-.31.47,0a.57.57,0,0,0,.22,0l-.32-.19c-.78-.45-1.61-.87-2.43-1.3-1.64-.85-3.32-1.65-5-2.54q-4.94-2.58-9.79-5.36c-3.23-1.87-6.42-3.8-9.54-6-.78-.55-1.56-1.11-2.33-1.72a15.77,15.77,0,0,1-2.31-2.17,4.56,4.56,0,0,1-.62-1,2.79,2.79,0,0,1-.27-.95,2.16,2.16,0,0,1,0-.36l0-.22a2.1,2.1,0,0,1,.08-.37,7.84,7.84,0,0,1,.68-1.67c.47-.91,1-1.72,1.47-2.54,4.09-6.37,8.61-12.24,13.18-18.12,2.3-2.92,4.61-5.84,7-8.69l1.79-2.14.93-1.09a5.06,5.06,0,0,1,1.3-1.06,4.87,4.87,0,0,1,1.35-.45,8.21,8.21,0,0,1,1.76-.08l.71,0a3.3,3.3,0,0,1,.83.13,5.16,5.16,0,0,1,1.39.69l-.54.92a4,4,0,0,0-1.14-.42,1.65,1.65,0,0,0-.55,0l-.68,0a7.08,7.08,0,0,0-1.7.29,2.49,2.49,0,0,0-.59.29,3.3,3.3,0,0,0-.77.77l-.78,1.11-1.59,2.28-6.38,9.11L144.45,475c-2.09,3-4.19,6.1-6.08,9.18-.47.77-.92,1.55-1.3,2.29-.1.19-.2.41-.27.58a13.91,13.91,0,0,0,1.73,1.58c.68.54,1.41,1.08,2.14,1.6,3,2.1,6.07,4.09,9.17,6.1s6.24,4,9.33,6.05c1.56,1,3.08,2.09,4.61,3.17.76.55,1.52,1.09,2.28,1.68l.57.47a2.8,2.8,0,0,1,.31.3l.1.12a.77.77,0,0,1,.16.36.68.68,0,0,1,0,.28.8.8,0,0,1-.14.26l-.05,0-.08.08a1.87,1.87,0,0,1-1.41.49c-.29.64-.6,1.27-.92,1.91a10.4,10.4,0,0,1-1.41,2.19c-.08.08-.19.17-.24.23s-.06,0-.08.09a2.24,2.24,0,0,0-.12.47l-.21,1.2a6.62,6.62,0,0,0,0,2.39,13.79,13.79,0,0,0,1.48,4.22,15.25,15.25,0,0,0,1.07,1.8,6.77,6.77,0,0,0,1.33,1.42,20.81,20.81,0,0,0,1.93,1.12l2.16,1.11c1.46.73,2.94,1.46,4.44,2.13.75.34,1.51.67,2.27,1,.39.16.75.31,1.17.5a3.25,3.25,0,0,1,.34.19.86.86,0,0,1,.23.21.67.67,0,0,1,.14.52.92.92,0,0,1-.33.53l-.25.22a2.78,2.78,0,0,0-.72.79,1.15,1.15,0,0,0-.17.83,1.29,1.29,0,0,0,.35.6,4.46,4.46,0,0,1,.54.4l.22.19.17.1.05,0-.6,1.22,0,0a3.69,3.69,0,0,1-.66-.36,2.52,2.52,0,0,0-.44-.24,3.64,3.64,0,0,0-1-.15c-.1,0-.14,0-.14,0s0,0-.06.15a4.23,4.23,0,0,1-.36.72,1.13,1.13,0,0,1-1.29.41,1.44,1.44,0,0,1-.67-.47,1.51,1.51,0,0,1-.18-.25l-.08-.13-.16-.24-.34-.48-.77-1c-.52-.64-1.05-1.28-1.59-1.9a4.85,4.85,0,0,0-3.32-1.19,5.52,5.52,0,0,0-3.36,1.44,5.26,5.26,0,0,0-1.79,3.13,12.47,12.47,0,0,0,.54,4c.75,2.8,1.37,5.66,2.73,8a10.6,10.6,0,0,0,6,4.93,8,8,0,0,0,1.92.25,7.07,7.07,0,0,0,1.86-.34,25.15,25.15,0,0,0,3.88-1.59,38.34,38.34,0,0,0,3.71-2.08c1.21-.78,2.37-1.6,3.49-2.47a21.91,21.91,0,0,0,5.64-6.07,27.61,27.61,0,0,0,1.57-3.87,29.13,29.13,0,0,0,1.17-4.06,18.79,18.79,0,0,0,.3-2c.05-.7.09-1.41.08-2.09a19.09,19.09,0,0,0-.51-4.1,32.13,32.13,0,0,0-3.13-7.83,38.15,38.15,0,0,0-4.85-7,59.06,59.06,0,0,0-6.12-6,111.88,111.88,0,0,0-14.15-10,84.33,84.33,0,0,1-7.36-4.93,12.76,12.76,0,0,1-3.22-3.46,5.37,5.37,0,0,1-.73-2.56,5.11,5.11,0,0,1,.71-2.59l0,0,0,0c1.86-2.66,3.66-5.35,5.55-8,.8-1.14,1.62-2.28,2.46-3.39q1.65-2.24,3.41-4.38l.72.5.15.1-.09.15q-1.69,3-3.56,5.81c-.5.77-1,1.53-1.52,2.29-1.76,2.69-3.62,5.31-5.43,8a3,3,0,0,0,0,3.17,10.87,10.87,0,0,0,2.73,2.88,86,86,0,0,0,7.18,4.78,126.93,126.93,0,0,1,11.89,8.08c.86.66,1.7,1.35,2.53,2.06a62.14,62.14,0,0,1,6.35,6.22,40.05,40.05,0,0,1,5.11,7.34h0a33.27,33.27,0,0,1,3.36,8.36A21.18,21.18,0,0,1,197.18,529.13Z" transform="translate(-133.02 -285.52)"/><path class="cls-1" d="M166.4,550.79l-.55.83-1.42-.94-4.58-3,0,0-.1-.1a30.8,30.8,0,0,1-2.68-2.91,36.83,36.83,0,0,1-2.33-3.2,39.12,39.12,0,0,1-2-3.45c-.52-1.13-1.07-2.25-1.55-3.4l0,0a22.88,22.88,0,0,1-1.52-3.2c-.21-.56-.39-1.15-.54-1.7s-.31-1.09-.44-1.7a9.86,9.86,0,0,1-.13-3.87,11.8,11.8,0,0,1,1.21-3.59,11.46,11.46,0,0,1,5.33-5,7.35,7.35,0,0,1,3.68-.81,6.47,6.47,0,0,1,2.81.87,5,5,0,0,1,.62.4l-.5.87a2.42,2.42,0,0,0-.35-.12,5.55,5.55,0,0,0-2.56-.31,5.67,5.67,0,0,0-2.63,1,9.71,9.71,0,0,0-3.78,4.36,8.91,8.91,0,0,0-.76,2.73,8,8,0,0,0,.19,2.74,26.82,26.82,0,0,0,1.42,4.22A15.45,15.45,0,0,0,154,533l0,.08.06.15c.49,1.15.91,2.33,1.37,3.5l.07.16c.47,1.1.94,2.2,1.47,3.27s1.12,2.26,1.71,3.4l1.82,3.33,2.73,1.81Z" transform="translate(-133.02 -285.52)"/><path class="cls-3" d="M177.89,532.24l0,0a3,3,0,0,0-1.32,2.5l-.22,0a1.85,1.85,0,0,0-1.1.23,1.65,1.65,0,0,0-.52.45l-.25-.36q-.4-.54-.81-1c-.55-.69-1.11-1.35-1.67-2l-.09-.09a6.74,6.74,0,0,0-4.66-1.71,7.33,7.33,0,0,0-4.55,1.89,7.16,7.16,0,0,0-2.44,4.32,13.94,13.94,0,0,0,.56,4.67,39.83,39.83,0,0,0,2.43,7.62l-2.73-1.81-1.82-3.33c-.59-1.14-1.18-2.25-1.71-3.4s-1-2.17-1.47-3.27a25.3,25.3,0,0,1,.2-3,19.33,19.33,0,0,1,1.3-5.05,7.36,7.36,0,0,1,1.11-1.95,3.5,3.5,0,0,1,1.61-1,7.9,7.9,0,0,1,2.69-.28h0a3.71,3.71,0,0,0,.23.32,8,8,0,0,0,2.17,2,13.54,13.54,0,0,0,2.48,1.08c.8.29,1.6.53,2.4.77l4.78,1.36c.79.24,1.58.47,2.36.74C177.18,532,177.56,532.11,177.89,532.24Z" transform="translate(-133.02 -285.52)"/><path class="cls-3" d="M161.16,523.06a6.73,6.73,0,0,0-2,0,5.67,5.67,0,0,0-3.36,1.65,8.7,8.7,0,0,0-1.73,3,14.9,14.9,0,0,0-.86,3.81,26.82,26.82,0,0,1-1.42-4.22,8,8,0,0,1-.19-2.74,8.91,8.91,0,0,1,.76-2.73,9.71,9.71,0,0,1,3.78-4.36,5.67,5.67,0,0,1,2.63-1,5.55,5.55,0,0,1,2.56.31c-.11.44-.23.9-.3,1.36A10.51,10.51,0,0,0,161.16,523.06Z" transform="translate(-133.02 -285.52)"/><path class="cls-1" d="M165.19,524.92l-.43.9a19.67,19.67,0,0,0-2.36-.24h0a7.9,7.9,0,0,0-2.69.28,3.5,3.5,0,0,0-1.61,1,7.36,7.36,0,0,0-1.11,1.95,19.33,19.33,0,0,0-1.3,5.05,25.3,25.3,0,0,0-.2,3c0,.81,0,1.63,0,2.47l-1,.23a15.74,15.74,0,0,1-1.34-8.12,14.9,14.9,0,0,1,.86-3.81,8.7,8.7,0,0,1,1.73-3,5.67,5.67,0,0,1,3.36-1.65,6.73,6.73,0,0,1,2,0,8,8,0,0,1,1.32.33A8.06,8.06,0,0,1,165.19,524.92Z" transform="translate(-133.02 -285.52)"/><path class="cls-4" d="M207.37,543.08" transform="translate(-133.02 -285.52)"/><path class="cls-4" d="M158.05,591.6" transform="translate(-133.02 -285.52)"/><path class="cls-3" d="M431.26,440.3a108.65,108.65,0,0,0-1.61-19.65c-.45-3.27-1.38-6.43-2.15-9.63-.43-1.58-1-3.12-1.51-4.69l-.77-2.34c-.28-.77-.63-1.52-.94-2.28l-1.91-4.54-2.25-4.39c-.39-.72-.72-1.48-1.16-2.18l-1.3-2.1-1.29-2.1a21.46,21.46,0,0,0-1.35-2.06l-2.89-4-.73-1-.8-.94L409,376.51c-2.05-2.59-4.44-4.87-6.73-7.25a124.53,124.53,0,0,0-26.87-19.4,29.41,29.41,0,0,1,3.53,6.77l.7,1.91-2-.68h0c-8.3-2.77-16.49-5.81-24.72-8.6-4.11-1.39-8.22-2.73-12.37-3.87-2.08-.57-4.17-1.1-6.26-1.55-1.26-.27-2.56-.53-3.83-.72a104.84,104.84,0,0,0,7.79,7.21c3.08,2.61,6.23,5.16,9.43,7.62l1.43,1.1-1.69.63h0a16.78,16.78,0,0,1-3.72.8,28.3,28.3,0,0,1-3.68.14,38.14,38.14,0,0,1-7.23-.91,62,62,0,0,1-13.54-4.93,99.55,99.55,0,0,0-12.88-5c-2.2-.65-4.42-1.22-6.65-1.67-1.12-.21-2.24-.41-3.35-.54s-2.19-.23-3.12-.25c-4.59.91-9.25,2-13.77,3.26a82.85,82.85,0,0,0-13.34,4.78,115.65,115.65,0,0,0-12.35,7.2c-4,2.59-8,5.36-11.92,8.15l-4,2.83,2.48-4.11h0c2.75-4.71,5.63-9.31,8.7-13.81,1.55-2.25,3.15-4.46,4.87-6.61.86-1.07,1.76-2.11,2.72-3.13s2-1.93,3-2.83c1.44-1.29,2.94-2.55,4.49-3.74l-5.24-.14c-.69,0-1.36,0-2,0-.32,0-.64,0-1,0l-1,.12a25.7,25.7,0,0,0-3.84.8A47.45,47.45,0,0,0,243.7,343a68,68,0,0,0-7,3.89l-2.15,1.39.63-2.47h0c.2-.72.42-1.44.65-2.14-10.7,5.87-21.17,12.14-30.7,19.58l-3.9,3.06-3.7,3.27-1.85,1.64c-.61.55-1.16,1.16-1.74,1.74l-3.45,3.52c-1.09,1.22-2.12,2.5-3.18,3.74l-1.58,1.88c-.49.65-.95,1.33-1.43,2-.94,1.34-1.91,2.66-2.83,4L179,392.26c-.4.71-.86,1.39-1.21,2.13l-1.06,2.21c-.69,1.48-1.47,2.91-2.08,4.43-1.13,3.07-2.49,6.05-3.33,9.23-.46,1.57-1,3.12-1.4,4.71l-1.1,4.81-.56,2.4c-.16.81-.27,1.63-.41,2.44l-.8,4.88c-.31,1.62-.4,3.28-.61,4.92l-.53,4.93a88.42,88.42,0,0,0-.25,9.76,81.49,81.49,0,0,0,2.21,16.23l.15.1-.09.15c.22.92.46,1.84.71,2.75.49,1.56.9,3.13,1.44,4.67l1.71,4.58,2,4.46c.69,1.48,1.5,2.9,2.24,4.36a101.41,101.41,0,0,0,11.06,16.17c1.08,1.23,2.1,2.51,3.23,3.71l3.39,3.56,3.56,3.4c1.18,1.15,2.48,2.17,3.7,3.26a134.76,134.76,0,0,0,16,11.58c22.47,13.84,48.71,21.34,75.1,22.43s53.15-4.4,76.56-16.63a128.5,128.5,0,0,0,16.82-10.39,122.29,122.29,0,0,0,15-12.8,109.38,109.38,0,0,0,22.41-32.2,98.3,98.3,0,0,0,3.71-9.67c-.08-.15-.15-.31-.23-.46l.46-.27a96,96,0,0,0,3.17-13l-.24-.48.34-.19A91,91,0,0,0,431.26,440.3ZM228.42,464.75c1.44-.56,2.88-1.1,4.33-1.61l-.1-.07c-.11-.1-.22-.18-.22-.33s.18-.39.73-.81l.89-.45-.9.44a47.13,47.13,0,0,1-4.76-14.28,53.19,53.19,0,0,1-.43-15.12,46.32,46.32,0,0,1,4-14.67,31,31,0,0,1,9.52-12.14,19.21,19.21,0,0,1,4.29-2.42,26.33,26.33,0,0,1-8.26-1.42l-6.91-2.27L207.37,392s14.65,1.18,19.29,1.26,16.39-2.18,22.9-4.52l17-6.09L272,398.79a15.05,15.05,0,0,1-4.48,1.95,50.07,50.07,0,0,1-9.55,1.8,24.09,24.09,0,0,1,11.85,8.32c6.53,8.2,9.18,18.78,8.93,28.89v.1l-.07,1.42-.1,1.5c-.08,1-.19,2-.32,3a53.58,53.58,0,0,1-1.19,5.9,43.84,43.84,0,0,1-1.94,5.69c-.34.94-.85,1.8-1.28,2.7-.34.64-.66,1.3-1,1.94q4.7,1.22,9.28,2.75l-.28,1-13.28-3.1a67.06,67.06,0,0,0-13.34-2,61.06,61.06,0,0,0-6.73.35l-3.39.31c-1.1.11-2.2.34-3.3.56a116.18,116.18,0,0,0-13,3.84Zm115.4,33.9a70.5,70.5,0,0,1-15.31,8.66,87.5,87.5,0,0,1-16.84,5,96,96,0,0,1-17.49,1.79,97.28,97.28,0,0,1-34.55-5.63A74.26,74.26,0,0,1,244,500.56a52.7,52.7,0,0,1-12.75-12l.79-.61a53.9,53.9,0,0,0,12.92,11.18,72.77,72.77,0,0,0,15.45,7.36,98.31,98.31,0,0,0,33.77,5.15c1.43-.06,2.87,0,4.29-.14l4.29-.32,4.25-.52c1.43-.17,2.82-.48,4.24-.7a92.37,92.37,0,0,0,16.48-4.65,68.91,68.91,0,0,0,15.08-8,49.48,49.48,0,0,0,12.13-12l.84.54A48.34,48.34,0,0,1,343.82,498.65Zm-9-97.42c-1.27.41-2.47.76-3.57,1a26.44,26.44,0,0,1,6.25,5.81c6.35,8.22,8.91,18.66,8.7,28.71v.06l-.06,1.25L346,439.4c-.06.87-.14,1.74-.24,2.6-.2,1.73-.49,3.46-.85,5.16a45.8,45.8,0,0,1-1.39,5c-.44,1.24-.91,2.48-1.43,3.69,1.3,0,2.59.15,3.89.27,1.54.17,3.08.34,4.6.63l-.12,1c-1.55,0-3.08-.14-4.61-.27s-2.84-.3-4.24-.58a.42.42,0,0,1,0,.1l-.36-.16c-1.74-.1-3.46-.17-5.18-.18a27.08,27.08,0,0,0-5.13.36,6.58,6.58,0,0,0-2.27.79,12.12,12.12,0,0,1-2.47,1.23,32.2,32.2,0,0,1-5.26,1.21,71.74,71.74,0,0,1-10.63.78,96.31,96.31,0,0,1-10.6-.5l.07-1h.9v0A1.91,1.91,0,0,1,301,459a49.83,49.83,0,0,1-5.41-29.43,45.19,45.19,0,0,1,4.12-14.71,31.12,31.12,0,0,1,9.67-12.06,20.66,20.66,0,0,1,2.58-1.61l-1.76-.45h0c-3.64-1-6.19-1.87-6.19-1.87l3.9-16s9.49,5,17.52,7.25,10.71,2.65,15.74,3,19.5-2,19.5-2S345.4,397.92,334.8,401.23Z" transform="translate(-133.02 -285.52)"/><path class="cls-5" d="M255.19,442.14c-.28-9.73-5.24-17.51-11.06-17.36S233.77,433,234.06,442.7c.26,9.07,4.59,16.43,9.9,17.28h0l.95-.14,2.53-.28h0C252.12,457.66,255.43,450.54,255.19,442.14Zm-9.61,16.51c-3.63,0-6.61-4.08-6.66-9.16s2.84-9.25,6.47-9.28,6.59,4.07,6.64,9.16S249.18,458.61,245.58,458.65Z" transform="translate(-133.02 -285.52)"/><path class="cls-1" d="M245.39,440.21c-3.63,0-6.52,4.19-6.47,9.28s3,9.19,6.66,9.16,6.5-4.2,6.45-9.28S249,440.17,245.39,440.21Zm.47,11.26c-1.39,0-2.53-1.5-2.55-3.37s1.09-3.41,2.48-3.42,2.52,1.5,2.54,3.37S247.24,451.46,245.86,451.47Z" transform="translate(-133.02 -285.52)"/><path class="cls-6" d="M248.33,448.05c0,1.87-1.09,3.41-2.47,3.42s-2.53-1.5-2.55-3.37,1.09-3.41,2.48-3.42S248.31,446.18,248.33,448.05Z" transform="translate(-133.02 -285.52)"/><path class="cls-6" d="M276,439.65v1.53l0,1.44c0,1-.09,1.91-.18,2.87a52.56,52.56,0,0,1-.78,5.71,45.82,45.82,0,0,1-1.43,5.59,27.72,27.72,0,0,1-1,2.72c-.28.73-.53,1.48-.84,2.2-.95-.24-1.9-.48-2.85-.7a64.42,64.42,0,0,0-13.67-2,54.71,54.71,0,0,0-6.92.43l-.86.1c4.65-1.9,8-9,7.72-17.42-.28-9.73-5.24-17.51-11.06-17.36S233.77,433,234.06,442.7c.26,9.07,4.59,16.43,9.9,17.28-.83.14-1.65.32-2.47.5-2.17.52-4.3,1.15-6.41,1.85a1,1,0,0,0,.09-.17,1,1,0,0,0,.1-.48c0-.13,0-.26-.14-.34s-.41-.06-1.08.14a51.77,51.77,0,0,1-4-28.7,44.12,44.12,0,0,1,4.16-13.86,33.37,33.37,0,0,1,3.81-6.05,28.45,28.45,0,0,1,2.4-2.62,30.08,30.08,0,0,1,2.7-2.25,16,16,0,0,1,13-2.83,16.47,16.47,0,0,1,3.22,1.08c.53.24,1,.56,1.52.83a10.45,10.45,0,0,1,1.47.89,28.3,28.3,0,0,1,2.7,2.21,28,28,0,0,1,2.38,2.61,38.65,38.65,0,0,1,6.47,12.68,49.39,49.39,0,0,1,1.56,7c.09.6.17,1.19.23,1.78s.13,1.22.16,1.82c.09,1.18.14,2.46.18,3.64Z" transform="translate(-133.02 -285.52)"/><path class="cls-6" d="M344.37,436.78a63.19,63.19,0,0,0-.56-7.31,46.18,46.18,0,0,0-1.6-7.1,37.85,37.85,0,0,0-6.67-12.73,30,30,0,0,0-2.43-2.61,28.89,28.89,0,0,0-2.74-2.22,10.77,10.77,0,0,0-1.5-.89c-.52-.27-1-.58-1.54-.82l-.24-.1a41.29,41.29,0,0,1-10.2-.79A17.34,17.34,0,0,0,311,405a31.85,31.85,0,0,0-2.67,2.28,28.26,28.26,0,0,0-2.36,2.65,33.94,33.94,0,0,0-3.73,6.08,38.8,38.8,0,0,0-2.58,6.73c-.18.58-.32,1.18-.48,1.77s-.28,1.13-.41,1.74c-.25,1.19-.4,2.39-.61,3.58a55.44,55.44,0,0,0-.1,14.56,49.85,49.85,0,0,0,3.84,14.11,2.1,2.1,0,0,1,.71.06,1,1,0,0,1,.4.2c.09.1.19.18.16.34a1.23,1.23,0,0,1-.36.53c2.48,0,5,0,7.44,0a83.92,83.92,0,0,0,10.42-.75,32.43,32.43,0,0,0,5-1.12,10.2,10.2,0,0,0,2.27-1.08,8.19,8.19,0,0,1,2.7-.9,25.78,25.78,0,0,1,5.39-.24c1.65.06,3.29.18,4.92.32.51-1.32.95-2.67,1.36-4a44.42,44.42,0,0,0,1.16-4.95q.45-2.5.66-5c.06-.84.11-1.69.14-2.53l0-1.27,0-1.33Zm-23.56,21.93c-5.84.42-11.18-7.12-11.95-16.83S312.19,424,318,423.52s11.15,7.13,11.91,16.84S326.62,458.3,320.81,458.71Z" transform="translate(-133.02 -285.52)"/><path class="cls-5" d="M329.94,440.36c-.76-9.71-6.11-17.25-11.91-16.84s-9.94,8.65-9.17,18.36,6.11,17.25,11.95,16.83S330.71,450.07,329.94,440.36Zm-8.77,16.92c-3.63.2-6.81-3.76-7.11-8.84s2.38-9.37,6-9.57,6.78,3.77,7.09,8.85S324.77,457.09,321.17,457.28Z" transform="translate(-133.02 -285.52)"/><path class="cls-1" d="M327.15,447.72c-.31-5.08-3.49-9-7.09-8.85s-6.31,4.49-6,9.57,3.48,9,7.11,8.84S327.45,452.8,327.15,447.72Zm-6.06,2.38c-1.39.08-2.61-1.38-2.72-3.25s.92-3.45,2.31-3.53,2.6,1.39,2.71,3.26S322.47,450,321.09,450.1Z" transform="translate(-133.02 -285.52)"/><path class="cls-6" d="M323.39,446.58c.11,1.87-.92,3.45-2.3,3.52s-2.61-1.38-2.72-3.25.92-3.45,2.31-3.53S323.28,444.71,323.39,446.58Z" transform="translate(-133.02 -285.52)"/><path class="cls-1" d="M355.74,485.79a48.34,48.34,0,0,1-11.92,12.86,70.5,70.5,0,0,1-15.31,8.66,87.5,87.5,0,0,1-16.84,5,96,96,0,0,1-17.49,1.79,97.28,97.28,0,0,1-34.55-5.63A74.26,74.26,0,0,1,244,500.56a52.7,52.7,0,0,1-12.75-12l.79-.61a53.9,53.9,0,0,0,12.92,11.18,72.77,72.77,0,0,0,15.45,7.36,98.31,98.31,0,0,0,33.77,5.15c1.43-.06,2.87,0,4.29-.14l4.29-.32,4.25-.52c1.43-.17,2.82-.48,4.24-.7a92.37,92.37,0,0,0,16.48-4.65,68.91,68.91,0,0,0,15.08-8,49.48,49.48,0,0,0,12.13-12Z" transform="translate(-133.02 -285.52)"/></svg>