<svg id="Layer_1" data-name="Layer 1" xmlns="http://www.w3.org/2000/svg" viewBox="0 0 274.5 269.86"><defs><style>.cls-1{fill:#231f20;}.cls-2{fill:#00a651;}.cls-3{fill:none;stroke:#231f20;stroke-miterlimit:10;}.cls-4{fill:#ef3a24;}.cls-5{fill:#0d93d1;}.cls-6{fill:#fff;}</style></defs><path class="cls-1" d="M445.51,440.33a100,100,0,0,1-8.59,39.85,113.73,113.73,0,0,1-23.13,33.58,125.94,125.94,0,0,1-15.51,13.31A133.07,133.07,0,0,1,381,537.89c-24.11,12.77-51.69,18.44-78.85,17.36s-54.18-8.75-77.46-23a139.11,139.11,0,0,1-16.57-12c-1.28-1.13-2.63-2.19-3.86-3.38l-3.72-3.53L197,509.6c-1.18-1.24-2.25-2.58-3.38-3.87a106.54,106.54,0,0,1-11.63-17c-.79-1.53-1.63-3-2.36-4.59l-2.12-4.71-1.81-4.84c-.57-1.63-1-3.3-1.53-4.95a86.5,86.5,0,0,1-3.07-20.42,91.19,91.19,0,0,1,.31-10.33l.57-5.07c.21-1.68.32-3.38.64-5.05l.85-5c.15-.84.27-1.68.44-2.52l.58-2.49,1.17-5c.45-1.66,1-3.28,1.49-4.92a98.94,98.94,0,0,1,3.55-9.66c.67-1.58,1.51-3.09,2.25-4.64l1.15-2.31c.38-.77.88-1.48,1.31-2.22l2.68-4.41c1-1.4,2-2.78,3-4.17.51-.69,1-1.4,1.53-2.07l1.68-1.95c1.13-1.29,2.23-2.62,3.38-3.88l3.65-3.61c.61-.59,1.19-1.22,1.83-1.79l1.94-1.67,3.88-3.34,4.06-3.08a229,229,0,0,1,34.66-20.7l.1-.05.18-.09h0a1.46,1.46,0,0,1,.49-.08v3A1.33,1.33,0,0,0,249,342h0l.11,0-.12.07-2.88,1.57c-10.7,5.87-21.17,12.14-30.7,19.58l-3.9,3.06-3.7,3.27L206,371.17c-.61.55-1.16,1.16-1.74,1.74l-3.45,3.52c-1.09,1.22-2.12,2.5-3.18,3.74L196,382.05c-.49.65-1,1.33-1.43,2-.94,1.34-1.91,2.66-2.83,4l-2.49,4.22c-.4.71-.86,1.39-1.21,2.13L187,396.6c-.69,1.48-1.47,2.91-2.08,4.43-1.13,3.07-2.49,6.05-3.33,9.23-.46,1.57-1,3.12-1.4,4.71l-1.1,4.81-.56,2.4c-.16.81-.27,1.63-.41,2.44l-.8,4.88c-.31,1.62-.4,3.28-.61,4.92l-.53,4.93a88.42,88.42,0,0,0-.25,9.76,81.79,81.79,0,0,0,3,19.23c.49,1.56.9,3.13,1.44,4.67l1.71,4.58,2,4.46c.69,1.48,1.5,2.9,2.24,4.36a101.41,101.41,0,0,0,11.06,16.17c1.08,1.23,2.1,2.51,3.23,3.71l3.39,3.56,3.56,3.4c1.18,1.15,2.48,2.17,3.7,3.26a134.76,134.76,0,0,0,16,11.58c22.47,13.84,48.71,21.34,75.1,22.43s53.15-4.4,76.56-16.63a128.5,128.5,0,0,0,16.82-10.39,122.29,122.29,0,0,0,15-12.8,109.38,109.38,0,0,0,22.41-32.2,96.43,96.43,0,0,0,8.43-38.2,108.65,108.65,0,0,0-1.61-19.65c-.45-3.27-1.38-6.43-2.15-9.63-.43-1.58-1-3.12-1.51-4.69l-.77-2.34c-.28-.77-.63-1.52-.94-2.28l-1.91-4.54-2.25-4.39c-.39-.72-.72-1.48-1.16-2.18l-1.3-2.1-1.29-2.1a21.46,21.46,0,0,0-1.35-2.06l-2.89-4-.73-1-.8-.94-1.59-1.89c-2.05-2.59-4.44-4.87-6.73-7.25a124.53,124.53,0,0,0-26.87-19.4c-1.49-.82-3-1.6-4.5-2.36-.41-.22-.83-.42-1.24-.63l.19-.4.91-1.88.2-.42a132.38,132.38,0,0,1,33.62,22.7c2.38,2.43,4.86,4.77,7,7.43l1.66,1.94.83,1,.77,1,3,4.12a24.63,24.63,0,0,1,1.42,2.13l1.36,2.17,1.36,2.18c.46.71.81,1.5,1.22,2.25l2.38,4.54,2,4.71c.32.78.69,1.56,1,2.36l.83,2.43c.53,1.62,1.15,3.22,1.61,4.86.83,3.32,1.81,6.6,2.31,10A112.21,112.21,0,0,1,445.51,440.33Z" transform="translate(-171.01 -285.52)"/><path class="cls-1" d="M359.36,359l-1.69.63h0a16.78,16.78,0,0,1-3.72.8,28.3,28.3,0,0,1-3.68.14,38.14,38.14,0,0,1-7.23-.91,62,62,0,0,1-13.54-4.93,99.55,99.55,0,0,0-12.88-5c-2.2-.65-4.42-1.22-6.65-1.67-1.12-.21-2.24-.41-3.35-.54s-2.19-.23-3.12-.25c-4.59.91-9.25,2-13.77,3.26a82.85,82.85,0,0,0-13.34,4.78,115.65,115.65,0,0,0-12.35,7.2c-4,2.59-8,5.36-11.92,8.15l-4,2.83,2.48-4.11h0c2.75-4.71,5.63-9.31,8.7-13.81,1.55-2.25,3.15-4.46,4.87-6.61.86-1.07,1.76-2.11,2.72-3.13s2-1.93,3-2.83c1.44-1.29,2.94-2.55,4.49-3.74.86-.67,1.74-1.32,2.64-1.93a45.91,45.91,0,0,1,6.41-3.72c.63-.29,1.25-.58,1.89-.85a15.11,15.11,0,0,1,2.06-.7,18.23,18.23,0,0,1,4.25-.56,27.18,27.18,0,0,1,3.14.15,26.18,26.18,0,0,1,3.16.47c.68.13,1.36.3,2,.48l-.58,1.92c-.67-.18-1.36-.35-2.06-.48L297,334a27.4,27.4,0,0,0-5.25-.46,16.48,16.48,0,0,0-3.79.5,12.43,12.43,0,0,0-1.78.6c-.61.26-1.21.54-1.81.82a55,55,0,0,0-13.07,9.07c-1,.89-2,1.81-2.91,2.73s-1.77,2-2.6,3c-1.67,2.08-3.25,4.26-4.78,6.48Q258,361,255.3,365.48c2.32-1.83,4.69-3.6,7.08-5.35a117.43,117.43,0,0,1,12.46-7.85A78,78,0,0,1,288.69,347c4.72-1.36,9.44-2.52,14.3-3.42l.16,0h.13a29.78,29.78,0,0,1,3.79.29c1.22.15,2.42.37,3.61.61a66,66,0,0,1,7,1.83,88.75,88.75,0,0,1,13.26,5.54A60.29,60.29,0,0,0,343.69,357a34.67,34.67,0,0,0,6.69,1.21c.56.05,1.12.06,1.69.09s1.12,0,1.68,0c.4,0,.8,0,1.2-.07q-3.93-3.09-7.74-6.32a93.83,93.83,0,0,1-9-8.46c-.33-.38-.7-.86-1-1.16a7.94,7.94,0,0,0-1-1,16.45,16.45,0,0,0-2.35-1.6,34.08,34.08,0,0,0-5.43-2.31,71.5,71.5,0,0,0-11.64-2.8l.28-2a73.94,73.94,0,0,1,12,2.88,35.33,35.33,0,0,1,5.75,2.47,17.84,17.84,0,0,1,2.68,1.82,6.93,6.93,0,0,1,1.06,1l.13.14c.41.42.66.76,1,1.14s.63.7.95,1a104.84,104.84,0,0,0,7.79,7.21c3.08,2.61,6.23,5.16,9.43,7.62Z" transform="translate(-171.01 -285.52)"/><path class="cls-1" d="M387.89,357.86h0c-8.3-2.77-16.49-5.81-24.72-8.6-4.11-1.39-8.22-2.73-12.37-3.87-2.08-.57-4.17-1.1-6.26-1.55-1.26-.27-2.56-.53-3.83-.72-.82-.13-1.63-.23-2.41-.3l-.12-2a3.55,3.55,0,0,1,.46,0A32.72,32.72,0,0,1,345,341c2.22.25,4.42.64,6.6,1.1a109.1,109.1,0,0,1,12.77,3.67q6.24,2.16,12.32,4.73c3.24,1.37,6.45,2.79,9.61,4.33a29.49,29.49,0,0,0-3.62-5.67,21.14,21.14,0,0,0-1.48-1.66c-.34-.35-.69-.7-1.05-1l-.73-.67a24.09,24.09,0,0,0-3.83-2.67c-5.63-3-11.55-5.8-17.43-8.45-3-1.31-5.93-2.59-8.93-3.71a23.37,23.37,0,0,0-4.47-1.28,30.4,30.4,0,0,0-4.69-.22c-1.59,0-3.19.14-4.77.31s-3.31.23-4.94.29-3.28,0-4.92,0l-4.84-.2v-2l4.89.2c1.61,0,3.21.05,4.82,0,1.25,0,2.49-.08,3.72-.18l1.05-.09c.74-.09,1.48-.16,2.23-.2h0c.9-.07,1.8-.11,2.71-.13a32.77,32.77,0,0,1,5,.24,25,25,0,0,1,4.87,1.39c3.08,1.15,6.08,2.43,9.05,3.75,6,2.68,11.8,5.43,17.61,8.54a25.8,25.8,0,0,1,4.14,2.89l.34.31a29.14,29.14,0,0,1,3.17,3.31c.51.64,1,1.29,1.47,2a29.41,29.41,0,0,1,3.53,6.77l.7,1.91Z" transform="translate(-171.01 -285.52)"/><path class="cls-2" d="M283.36,319.33a93,93,0,0,1-11.19-3.09l-2.8-.93a17.75,17.75,0,0,0-2.63-.68,47.82,47.82,0,0,0-5.66-.7c-1.91-.12-3.87-.2-5.76-.19a37.26,37.26,0,0,0-5.66.47,54.55,54.55,0,0,0-7.76,1.8q6.54,1.42,13,3.27c2.73.77,5.44,1.62,8.14,2.58,1.34.48,2.69,1,4,1.57.67.29,1.34.61,2,1a8.66,8.66,0,0,1,2,1.43,2.81,2.81,0,0,1,.26.3,2.19,2.19,0,0,1,.27.39,2,2,0,0,1,.22.55,1.93,1.93,0,0,1,.05.73,2,2,0,0,1-.61,1.2,3.13,3.13,0,0,1-.72.54,10.56,10.56,0,0,1-2.3.76l-4.11,1-2.08.5c-.76.16-1.3.27-2,.48l-2,.57c-.32.1-.7.19-1,.3l-.85.32a13.71,13.71,0,0,0-5.5,5.33A28.57,28.57,0,0,0,249,342l.11,0-.12.07c-.26.55-.49,1.11-.71,1.68,1.58-.93,3.19-1.77,4.84-2.57a47.8,47.8,0,0,1,7.75-3,28.58,28.58,0,0,1,4.13-.87l1.06-.12c.35,0,.72,0,1.07-.05.74,0,1.42,0,2.09,0l7.83.21a45.91,45.91,0,0,1,6.41-3.72c.63-.29,1.25-.58,1.89-.85a15.11,15.11,0,0,1,2.06-.7,18.23,18.23,0,0,1,4.25-.56,27.18,27.18,0,0,1,3.14.15Zm-33.47,21.82a1.58,1.58,0,0,1-.38.57,1.65,1.65,0,0,1-.33.23l.8-1.31A1.56,1.56,0,0,1,249.89,341.15Z" transform="translate(-171.01 -285.52)"/><path class="cls-1" d="M298.65,332.86l-1.28,1.19-.18.17L297,334l-2.15-2.31-11.45-12.33a93,93,0,0,1-11.19-3.09l-2.8-.93a17.75,17.75,0,0,0-2.63-.68,47.82,47.82,0,0,0-5.66-.7c-1.91-.12-3.87-.2-5.76-.19a37.26,37.26,0,0,0-5.66.47,54.55,54.55,0,0,0-7.76,1.8q6.54,1.42,13,3.27c2.73.77,5.44,1.62,8.14,2.58,1.34.48,2.69,1,4,1.57.67.29,1.34.61,2,1a8.66,8.66,0,0,1,2,1.43,2.81,2.81,0,0,1,.26.3,2.19,2.19,0,0,1,.27.39,2,2,0,0,1,.22.55,1.93,1.93,0,0,1,.05.73,2,2,0,0,1-.61,1.2,3.13,3.13,0,0,1-.72.54,10.56,10.56,0,0,1-2.3.76l-4.11,1-2.08.5c-.76.16-1.3.27-2,.48l-2,.57c-.32.1-.7.19-1,.3l-.85.32a13.71,13.71,0,0,0-5.5,5.33A28.57,28.57,0,0,0,249,342v0c-.26.55-.49,1.11-.71,1.68,1.58-.93,3.19-1.77,4.84-2.57a47.8,47.8,0,0,1,7.75-3,28.58,28.58,0,0,1,4.13-.87l1.06-.12c.35,0,.72,0,1.07-.05.74,0,1.42,0,2.09,0l7.83.21h.32l-.05,2-2.91-.08-5.24-.14c-.69,0-1.36,0-2,0-.32,0-.64,0-1,0l-1,.12a25.7,25.7,0,0,0-3.84.8A47.45,47.45,0,0,0,254,343a68,68,0,0,0-7,3.89l-2.15,1.39.63-2.47h0c.2-.72.42-1.44.65-2.14A32.4,32.4,0,0,1,248,339.2c.26-.51.54-1,.83-1.52a15.29,15.29,0,0,1,6.4-6.34l1.12-.44c.38-.15.69-.22,1-.33l2-.61c.65-.21,1.49-.4,2.11-.54l2-.51,4.08-1.08a12.93,12.93,0,0,0,1.4-.41,8.15,8.15,0,0,0-1.19-.75c-.58-.31-1.19-.59-1.81-.86-1.25-.54-2.55-1-3.86-1.49-2.63-.92-5.31-1.72-8-2.53-5.38-1.58-10.82-3.06-16.24-4.56l-2.57-.71,2.38-1.17a45.28,45.28,0,0,1,5.62-2.23,46.78,46.78,0,0,1,5.84-1.51,40.77,40.77,0,0,1,6.05-.71c2-.09,4,0,6,.06a54.28,54.28,0,0,1,6,.68,20.58,20.58,0,0,1,3.07.77l2.81.89c2.28.73,4.54,1.5,6.78,2.37,1.42.55,2.84,1.14,4.23,1.79l.25.08.17.2,0,0L298,332.13Z" transform="translate(-171.01 -285.52)"/><path class="cls-1" d="M370.26,308.27,366,310.69c-2.67,1.52-5.38,2.93-8.09,4.35l-8.08,4.21a78,78,0,0,0-7.66,4.53,42.42,42.42,0,0,0-4.85,3.82s0,0,0,0c-.64.58-1.25,1.18-1.82,1.79l-1.7-1.06.24-.44a19.9,19.9,0,0,1,2.6-3.55,31.9,31.9,0,0,1,3.48-3.3,46.37,46.37,0,0,1,8-5.05q3-1.55,6.09-2.91l-3.67.68c-5.08,1-10.17,1.83-15.27,2.66-.61.1-1.33.22-2,.29l-1.93.22a17.89,17.89,0,0,0-3.48.65,15,15,0,0,0-5.88,3.58,65.9,65.9,0,0,0-5.17,5.49c-1.66,1.91-3.23,3.94-4.73,6l-2.83,3.83,1-4.57c.72-3.22,1.5-6.41,2.36-9.59a96.77,96.77,0,0,1,3-9.46,33,33,0,0,1,5.17-8.65l0-.05-.27.19c-1.38.94-2.76,1.9-4.16,2.8l-2.1,1.38-2,1.36a28.58,28.58,0,0,0-6.72,6.31,12.51,12.51,0,0,0-1.84,3.83,6.84,6.84,0,0,0-.21,1,5.61,5.61,0,0,0-.07,1,7.93,7.93,0,0,0,.07,1,3.4,3.4,0,0,0,.08.46,3.29,3.29,0,0,1,.08.34l.13.31c.58,2.56,1.11,5.13,1.54,7.73l-1.92.55c-1-2.43-1.91-4.88-2.77-7.35v0a9.31,9.31,0,0,1-.64-2.14,9.85,9.85,0,0,1,.09-3.87,15.59,15.59,0,0,1,2.11-5.06,28,28,0,0,1,7.74-7.44c.73-.47,1.47-1,2.2-1.41l2.17-1.27c1.44-.86,2.91-1.66,4.37-2.48,2.93-1.61,5.89-3.2,8.93-4.64l1.22,1.58a72.26,72.26,0,0,0-6.5,7.16,31.11,31.11,0,0,0-4.88,8.14,94.94,94.94,0,0,0-2.92,9.26q-.46,1.73-.9,3.45a55.63,55.63,0,0,1,6.06-7.47,17.53,17.53,0,0,1,7.13-4.54,21.35,21.35,0,0,1,4.12-.83l1.92-.2c.62-.06,1.17-.15,1.84-.25,5.1-.81,10.21-1.58,15.33-2.26s10.24-1.38,15.38-1.93h0Z" transform="translate(-171.01 -285.52)"/><path class="cls-1" d="M282,289.13h0a4.28,4.28,0,0,0-.53-1.43,4.6,4.6,0,0,0-3-2,8.38,8.38,0,0,0-3.07-.06,14.77,14.77,0,0,0-5.36,2,16.07,16.07,0,0,0-4.38,3.66,8.56,8.56,0,0,0-1.5,2.69,4.25,4.25,0,0,0,2,5.26,4.76,4.76,0,0,0,1.16.48,8.93,8.93,0,0,0,2.42.31c.26,0,.51,0,.76,0a13.73,13.73,0,0,0,5.62-1.85,14.43,14.43,0,0,0,4.4-4,9,9,0,0,0,1-1.81,8.39,8.39,0,0,0,.36-1.07A5,5,0,0,0,282,289.13Zm-2.82,1.42a6,6,0,0,1-1.06,1.82,12.47,12.47,0,0,1-3.59,2.95,13.34,13.34,0,0,1-4.36,1.62,6,6,0,0,1-2.1,0,1.75,1.75,0,0,1-1.53-2.37,5.88,5.88,0,0,1,.92-2,9.75,9.75,0,0,1,1.6-1.81,14.43,14.43,0,0,1,2-1.43,11.74,11.74,0,0,1,4.61-1.5,5.9,5.9,0,0,1,2.21.19,1.75,1.75,0,0,1,1.28,2.52Z" transform="translate(-171.01 -285.52)"/><path class="cls-2" d="M279.17,290.55a6,6,0,0,1-1.06,1.82,12.47,12.47,0,0,1-3.59,2.95,13.34,13.34,0,0,1-4.36,1.62,6,6,0,0,1-2.1,0,1.75,1.75,0,0,1-1.53-2.37,5.88,5.88,0,0,1,.92-2,9.75,9.75,0,0,1,1.6-1.81,14.43,14.43,0,0,1,2-1.43,11.74,11.74,0,0,1,4.61-1.5,5.9,5.9,0,0,1,2.21.19,1.75,1.75,0,0,1,1.28,2.52Z" transform="translate(-171.01 -285.52)"/><path class="cls-1" d="M284.64,317.77l-1.52,1.29q-1.62-1.67-3.16-3.39c-2.13-2.35-4.18-4.77-6.2-7.21-2.58-3-5.1-6.13-7.58-9.24l-1.37-1.72,1.53-1.29q1.73,1.89,3.42,3.8,3,3.38,5.94,6.8c3.07,3.56,6.1,7.15,8.91,10.93Z" transform="translate(-171.01 -285.52)"/><path class="cls-2" d="M386.3,354.83c-3.16-1.54-6.37-3-9.61-4.33q-6.07-2.56-12.32-4.73a109.1,109.1,0,0,0-12.77-3.67c-2.18-.46-4.38-.85-6.6-1.1a32.72,32.72,0,0,0-6.36-.21,6.93,6.93,0,0,0-1.06-1,17.84,17.84,0,0,0-2.68-1.82,35.33,35.33,0,0,0-5.75-2.47,73.94,73.94,0,0,0-12-2.88l-.28,2a71.5,71.5,0,0,1,11.64,2.8,34.08,34.08,0,0,1,5.43,2.31,16.45,16.45,0,0,1,2.35,1.6,7.94,7.94,0,0,1,1,1c.3.3.67.78,1,1.16a93.83,93.83,0,0,0,9,8.46q3.81,3.24,7.74,6.32c-.4,0-.8.06-1.2.07-.56,0-1.12,0-1.68,0s-1.13,0-1.69-.09a34.67,34.67,0,0,1-6.69-1.21,60.29,60.29,0,0,1-12.75-5.15,88.75,88.75,0,0,0-13.26-5.54,66,66,0,0,0-7-1.83c-1.19-.24-2.39-.46-3.61-.61a29.78,29.78,0,0,0-3.79-.29h-.13l-.16,0c-4.86.9-9.58,2.06-14.3,3.42a78,78,0,0,0-13.85,5.29,117.43,117.43,0,0,0-12.46,7.85c-2.39,1.75-4.76,3.52-7.08,5.35Q258,361,261,356.71c1.53-2.22,3.11-4.4,4.78-6.48.83-1,1.7-2.05,2.6-3s1.9-1.84,2.91-2.73a55,55,0,0,1,13.07-9.07c.6-.28,1.2-.56,1.81-.82a12.43,12.43,0,0,1,1.78-.6,16.48,16.48,0,0,1,3.79-.5A27.4,27.4,0,0,1,297,334l.23.25.18-.17c.7.13,1.39.3,2.06.48l.58-1.92c-.68-.18-1.36-.35-2-.48l-13.33-14.36,0,0c-2.81-3.78-5.84-7.37-8.91-10.93q-2.93-3.44-5.94-6.8c.26,0,.51,0,.76,0a13.73,13.73,0,0,0,5.62-1.85,14.43,14.43,0,0,0,4.4-4,9,9,0,0,0,1-1.81c1.1,1.87,2.22,3.73,3.33,5.59,1.82,3,3.61,6.06,5.46,9.06,3.23,5.28,6.44,10.58,9.69,15.84a9.31,9.31,0,0,0,.64,2.14v0c.86,2.47,1.76,4.92,2.77,7.35l1.92-.55c-.43-2.6-1-5.17-1.54-7.73l-.13-.31a3.29,3.29,0,0,0-.08-.34,3.4,3.4,0,0,1-.08-.46,7.93,7.93,0,0,1-.07-1,5.61,5.61,0,0,1,.07-1,6.84,6.84,0,0,1,.21-1,12.51,12.51,0,0,1,1.84-3.83,28.58,28.58,0,0,1,6.72-6.31l2-1.36,2.1-1.38c1.4-.9,2.78-1.86,4.16-2.8l.27-.19,0,.05a33,33,0,0,0-5.17,8.65,96.77,96.77,0,0,0-3,9.46c-.86,3.18-1.64,6.37-2.36,9.59l-1,4.57,2.83-3.83c1.5-2,3.07-4.06,4.73-6a65.9,65.9,0,0,1,5.17-5.49,15,15,0,0,1,5.88-3.58,17.89,17.89,0,0,1,3.48-.65l1.93-.22c.66-.07,1.38-.19,2-.29,5.1-.83,10.19-1.7,15.27-2.66l3.67-.68q-3.07,1.37-6.09,2.91a46.37,46.37,0,0,0-8,5.05,31.9,31.9,0,0,0-3.48,3.3,19.9,19.9,0,0,0-2.6,3.55c-1.23.1-2.47.14-3.72.18-1.61,0-3.21,0-4.82,0l-4.89-.2v2l4.84.2c1.64,0,3.28.05,4.92,0s3.28-.11,4.94-.29,3.18-.28,4.77-.31a30.4,30.4,0,0,1,4.69.22,23.37,23.37,0,0,1,4.47,1.28c3,1.12,6,2.4,8.93,3.71,5.88,2.65,11.8,5.43,17.43,8.45a24.09,24.09,0,0,1,3.83,2.67l.73.67-.19.4c.41.21.83.41,1.24.63a21.14,21.14,0,0,1,1.48,1.66A29.49,29.49,0,0,1,386.3,354.83Z" transform="translate(-171.01 -285.52)"/><path class="cls-1" d="M303.1,324l-1.72,1c-.46-.73-.91-1.47-1.36-2.2-3.25-5.26-6.46-10.56-9.69-15.84-1.85-3-3.64-6-5.46-9.06-1.11-1.86-2.23-3.72-3.33-5.59-.7-1.16-1.39-2.33-2.07-3.5l1.71-1,.81,1.3h0c1.6,2.56,3.17,5.13,4.74,7.7,1.83,3,3.69,6,5.5,9,2.62,4.37,5.26,8.74,7.88,13.12Q301.61,321.5,303.1,324Z" transform="translate(-171.01 -285.52)"/><path class="cls-1" d="M282.3,398.79a15.24,15.24,0,0,1-4.49,1.95,50.07,50.07,0,0,1-9.55,1.8l-.47,0a104.41,104.41,0,0,1-11.69.7,26.27,26.27,0,0,1-8.25-1.42l-6.92-2.27L217.66,392s14.65,1.18,19.29,1.26,16.39-2.18,22.9-4.52l17-6.09Z" transform="translate(-171.01 -285.52)"/><path class="cls-1" d="M371,391.09s-15.3,6.83-25.9,10.14c-1.27.41-2.47.76-3.57,1a25.6,25.6,0,0,1-2.87.6c-.41.06-.83.11-1.27.14a41.29,41.29,0,0,1-10.2-.79c-1.7-.32-3.36-.69-4.89-1.07l-1.76-.45h0c-3.64-1-6.19-1.87-6.19-1.87l3.91-16s9.48,5,17.51,7.25,10.72,2.65,15.74,3S371,391.09,371,391.09Z" transform="translate(-171.01 -285.52)"/><path class="cls-1" d="M245.56,461.68a1,1,0,0,1-.1.48,1,1,0,0,1-.09.17,2.6,2.6,0,0,1-.33.48l-.87.48a2.33,2.33,0,0,1-.77,0,1,1,0,0,1-.35-.13.41.41,0,0,1-.11-.07c-.11-.1-.22-.18-.22-.33s.18-.39.73-.81l.89-.45c.67-.2.94-.2,1.08-.14A.4.4,0,0,1,245.56,461.68Z" transform="translate(-171.01 -285.52)"/><path class="cls-1" d="M289,439.75v.1l-.06,1.42-.11,1.5c-.08,1-.19,2-.32,3a53.55,53.55,0,0,1-1.18,5.9,45.44,45.44,0,0,1-1.95,5.69c-.34.94-.85,1.8-1.28,2.7-.34.64-.66,1.3-1,1.94l-.41.7-.88-.47c.08-.17.15-.34.22-.51.31-.72.56-1.47.85-2.2.33-.91.74-1.79,1-2.72a45.82,45.82,0,0,0,1.43-5.59,50.21,50.21,0,0,0,.78-5.71c.09-1,.15-1.91.18-2.87l0-1.44v-1.53c-.05-1.15-.09-2.39-.19-3.54,0-.6-.1-1.22-.16-1.82s-.14-1.18-.23-1.78a49.39,49.39,0,0,0-1.56-7,38.65,38.65,0,0,0-6.47-12.68,28,28,0,0,0-2.38-2.61,29.48,29.48,0,0,0-2.69-2.21,11.17,11.17,0,0,0-1.48-.89c-.51-.27-1-.59-1.52-.83a16.47,16.47,0,0,0-3.22-1.08,16,16,0,0,0-13,2.83,31.55,31.55,0,0,0-2.7,2.25,27,27,0,0,0-2.39,2.62,32.87,32.87,0,0,0-3.82,6.05,44.12,44.12,0,0,0-4.16,13.86,51.77,51.77,0,0,0,4,28.7l-.89.44a46.88,46.88,0,0,1-4.77-14.28,53.19,53.19,0,0,1-.43-15.12,46.32,46.32,0,0,1,4-14.67,31,31,0,0,1,9.52-12.14,19.43,19.43,0,0,1,4.29-2.42,18.24,18.24,0,0,1,11-1.05c.4.09.8.19,1.19.3a24.16,24.16,0,0,1,11.85,8.32C286.64,419.06,289.29,429.64,289,439.75Z" transform="translate(-171.01 -285.52)"/><path class="cls-1" d="M281.53,462.8a2.91,2.91,0,0,1-.83-.62c0-.08.05-.1.12-.13a1,1,0,0,1,.35,0,3.6,3.6,0,0,1,.67.17l.88.47a4.06,4.06,0,0,1,.52.45,1.09,1.09,0,0,1,.2.3c0,.07,0,.14,0,.16a3.2,3.2,0,0,1-1-.33Z" transform="translate(-171.01 -285.52)"/><path class="cls-1" d="M292.41,464.74l-.28,1-13.28-3.1a67.06,67.06,0,0,0-13.34-2,61.06,61.06,0,0,0-6.73.35l-3.39.31c-1.1.11-2.2.34-3.3.56a116.18,116.18,0,0,0-13,3.84l-.35-.94c1.44-.56,2.88-1.1,4.34-1.61.77-.28,1.54-.55,2.32-.81,2.11-.7,4.24-1.33,6.41-1.85.82-.18,1.64-.36,2.47-.5h0l1-.14,2.53-.28.88-.1a54.44,54.44,0,0,1,6.91-.43,64.42,64.42,0,0,1,13.67,2c1,.22,1.9.46,2.85.7l1.07.28Q287.83,463.21,292.41,464.74Z" transform="translate(-171.01 -285.52)"/><path class="cls-3" d="M255.22,459.84l-1,.14a6.63,6.63,0,0,0,1.18.08,6.34,6.34,0,0,0,2.31-.5Z" transform="translate(-171.01 -285.52)"/><path class="cls-1" d="M313.5,459.1a1.18,1.18,0,0,1-.35.53l-.22.21-.88.48a1.53,1.53,0,0,1-.93.06c-.14-.07-.16-.21-.19-.34a1,1,0,0,1,0-.45v0a2.19,2.19,0,0,1,.36-.62l.89-.45a2.08,2.08,0,0,1,.71.06,1,1,0,0,1,.41.2C313.43,458.86,313.53,458.94,313.5,459.1Z" transform="translate(-171.01 -285.52)"/><path class="cls-1" d="M356.47,436.78v.06l-.05,1.25-.08,1.31c-.06.87-.15,1.74-.25,2.6-.2,1.73-.49,3.46-.85,5.16a45.8,45.8,0,0,1-1.39,5c-.44,1.24-.91,2.48-1.43,3.69q-.23.53-.48,1.05a.42.42,0,0,1,0,.1l-.36-.16-.55-.25c.11-.26.21-.52.31-.78.51-1.32.95-2.67,1.36-4a46.81,46.81,0,0,0,1.17-4.95c.29-1.67.51-3.35.65-5,.07-.84.12-1.69.14-2.53l0-1.27v-1.33a64.24,64.24,0,0,0-.57-7.24,44,44,0,0,0-1.6-7.1,37.85,37.85,0,0,0-6.67-12.73A30,30,0,0,0,343.4,407a28.89,28.89,0,0,0-2.74-2.22,10.77,10.77,0,0,0-1.5-.89c-.51-.27-1-.58-1.54-.82l-.24-.1a15.76,15.76,0,0,0-10.2-.79,17.34,17.34,0,0,0-5.85,2.79,31.85,31.85,0,0,0-2.67,2.28,28.26,28.26,0,0,0-2.36,2.65,33.94,33.94,0,0,0-3.73,6.08,39.62,39.62,0,0,0-2.58,6.73c-.17.58-.32,1.18-.48,1.77s-.28,1.13-.41,1.74c-.25,1.19-.4,2.39-.61,3.58a55.44,55.44,0,0,0-.1,14.56,49.85,49.85,0,0,0,3.84,14.11l-.89.45h0a49.9,49.9,0,0,1-5.41-29.43,45,45,0,0,1,4.13-14.71,31,31,0,0,1,9.66-12.06,20.66,20.66,0,0,1,2.58-1.61,18.34,18.34,0,0,1,12.63-1.72,20.14,20.14,0,0,1,6.6,2.84,26.44,26.44,0,0,1,6.25,5.81C354.12,416.29,356.68,426.73,356.47,436.78Z" transform="translate(-171.01 -285.52)"/><path class="cls-1" d="M360.91,456.79l-.12,1c-1.55,0-3.08-.14-4.61-.27s-2.84-.3-4.24-.58l-.33-.06.07-1h.74c1.3,0,2.59.15,3.89.27C357.85,456.33,359.39,456.5,360.91,456.79Z" transform="translate(-171.01 -285.52)"/><path class="cls-1" d="M351.68,455.88l-.07,1h-.07c-1.73-.1-3.46-.17-5.18-.18a27.14,27.14,0,0,0-5.13.36,6.58,6.58,0,0,0-2.27.79,12.12,12.12,0,0,1-2.47,1.23,32.2,32.2,0,0,1-5.26,1.21,71.74,71.74,0,0,1-10.63.78,96.31,96.31,0,0,1-10.6-.5l.08-1H311c.72,0,1.45,0,2.18,0,2.47,0,5,0,7.43,0a83.78,83.78,0,0,0,10.42-.75,32.43,32.43,0,0,0,5-1.12,10.2,10.2,0,0,0,2.27-1.08,8.19,8.19,0,0,1,2.7-.9,25.78,25.78,0,0,1,5.39-.24c1.65.06,3.29.18,4.92.32Z" transform="translate(-171.01 -285.52)"/><path class="cls-4" d="M439.94,420.65c-.45-3.27-1.38-6.43-2.15-9.63-.43-1.58-1-3.12-1.51-4.69l-.77-2.34c-.28-.77-.63-1.52-.94-2.28l-1.91-4.54-2.25-4.39c-.39-.72-.72-1.48-1.16-2.18l-1.3-2.1-1.29-2.1a21.46,21.46,0,0,0-1.35-2.06l-2.89-4-.73-1-.8-.94-1.59-1.89c-2.05-2.59-4.44-4.87-6.73-7.25a124.53,124.53,0,0,0-26.87-19.4,29.41,29.41,0,0,1,3.53,6.77l.7,1.91-2-.68h0c-8.3-2.77-16.49-5.81-24.72-8.6-4.11-1.39-8.22-2.73-12.37-3.87-2.08-.57-4.17-1.1-6.26-1.55-1.26-.27-2.56-.53-3.83-.72a104.84,104.84,0,0,0,7.79,7.21c3.08,2.61,6.23,5.16,9.43,7.62l1.43,1.1-1.69.63h0a16.78,16.78,0,0,1-3.72.8,28.3,28.3,0,0,1-3.68.14,38.14,38.14,0,0,1-7.23-.91,62,62,0,0,1-13.54-4.93,99.55,99.55,0,0,0-12.88-5c-2.2-.65-4.42-1.22-6.65-1.67-1.12-.21-2.24-.41-3.35-.54s-2.19-.23-3.12-.25c-4.59.91-9.25,2-13.77,3.26a82.85,82.85,0,0,0-13.34,4.78,115.65,115.65,0,0,0-12.35,7.2c-4,2.59-8,5.36-11.92,8.15l-4,2.83,2.48-4.11h0c2.75-4.71,5.63-9.31,8.7-13.81,1.55-2.25,3.15-4.46,4.87-6.61.86-1.07,1.76-2.11,2.72-3.13s2-1.93,3-2.83c1.44-1.29,2.94-2.55,4.49-3.74l-5.24-.14c-.69,0-1.36,0-2,0-.32,0-.64,0-1,0l-1,.12a25.7,25.7,0,0,0-3.84.8A47.45,47.45,0,0,0,254,343a68,68,0,0,0-7,3.89l-2.15,1.39.63-2.47h0c.2-.72.42-1.44.65-2.14-10.7,5.87-21.17,12.14-30.7,19.58l-3.9,3.06-3.7,3.27L206,371.17c-.61.55-1.16,1.16-1.74,1.74l-3.45,3.52c-1.09,1.22-2.12,2.5-3.18,3.74L196,382.05c-.49.65-1,1.33-1.43,2-.94,1.34-1.91,2.66-2.83,4l-2.49,4.22c-.4.71-.86,1.39-1.21,2.13L187,396.6c-.69,1.48-1.47,2.91-2.08,4.43-1.13,3.07-2.49,6.05-3.33,9.23-.46,1.57-1,3.12-1.4,4.71l-1.1,4.81-.56,2.4c-.16.81-.27,1.63-.41,2.44l-.8,4.88c-.31,1.62-.4,3.28-.61,4.92l-.53,4.93a88.42,88.42,0,0,0-.25,9.76,81.79,81.79,0,0,0,3,19.23c.49,1.56.9,3.13,1.44,4.67l1.71,4.58,2,4.46c.69,1.48,1.5,2.9,2.24,4.36a101.41,101.41,0,0,0,11.06,16.17c1.08,1.23,2.1,2.51,3.23,3.71l3.39,3.56,3.56,3.4c1.18,1.15,2.48,2.17,3.7,3.26a134.76,134.76,0,0,0,16,11.58c22.47,13.84,48.71,21.34,75.1,22.43s53.15-4.4,76.56-16.63a128.5,128.5,0,0,0,16.82-10.39,122.29,122.29,0,0,0,15-12.8,109.38,109.38,0,0,0,22.41-32.2,96.43,96.43,0,0,0,8.43-38.2A108.65,108.65,0,0,0,439.94,420.65Zm-201.23,44.1c1.44-.56,2.88-1.1,4.34-1.61a.41.41,0,0,1-.11-.07c-.11-.1-.22-.18-.22-.33s.18-.39.73-.81l.89-.45-.89.44a46.88,46.88,0,0,1-4.77-14.28,53.19,53.19,0,0,1-.43-15.12,46.32,46.32,0,0,1,4-14.67,31,31,0,0,1,9.52-12.14,19.43,19.43,0,0,1,4.29-2.42,26.27,26.27,0,0,1-8.25-1.42l-6.92-2.27L217.66,392s14.65,1.18,19.29,1.26,16.39-2.18,22.9-4.52l17-6.09,5.48,16.19a15.24,15.24,0,0,1-4.49,1.95,50.07,50.07,0,0,1-9.55,1.8,24.16,24.16,0,0,1,11.85,8.32c6.53,8.2,9.18,18.78,8.93,28.89v.1l-.06,1.42-.11,1.5c-.08,1-.19,2-.32,3a53.55,53.55,0,0,1-1.18,5.9,45.44,45.44,0,0,1-1.95,5.69c-.34.94-.85,1.8-1.28,2.7-.34.64-.66,1.3-1,1.94q4.69,1.22,9.28,2.75l-.28,1-13.28-3.1a67.06,67.06,0,0,0-13.34-2,61.06,61.06,0,0,0-6.73.35l-3.39.31c-1.1.11-2.2.34-3.3.56a116.18,116.18,0,0,0-13,3.84ZM325,504.29c-4.15.13-8.31.18-12.47.27l-12.48.13c-8.32,0-16.64,0-25-.11s-16.64-.35-25-.75v-1q12.48-.75,25-1.06c8.32-.24,16.64-.35,25-.43l12.48,0c4.16,0,8.32,0,12.48.12q12.48.15,25,.77v1Q337.51,504,325,504.29Zm22.74-96.22c6.35,8.22,8.91,18.66,8.7,28.71v.06l-.05,1.25-.08,1.31c-.06.87-.15,1.74-.25,2.6-.2,1.73-.49,3.46-.85,5.16a45.8,45.8,0,0,1-1.39,5c-.44,1.24-.91,2.48-1.43,3.69,1.3,0,2.59.15,3.89.27,1.54.17,3.08.34,4.6.63l-.12,1c-1.55,0-3.08-.14-4.61-.27s-2.84-.3-4.24-.58a.42.42,0,0,1,0,.1l-.36-.16c-1.73-.1-3.46-.17-5.18-.18a27.14,27.14,0,0,0-5.13.36,6.58,6.58,0,0,0-2.27.79,12.12,12.12,0,0,1-2.47,1.23,32.2,32.2,0,0,1-5.26,1.21,71.74,71.74,0,0,1-10.63.78,96.31,96.31,0,0,1-10.6-.5l.08-1H311v0a2.19,2.19,0,0,1,.36-.62h0a49.9,49.9,0,0,1-5.41-29.43,45,45,0,0,1,4.13-14.71,31,31,0,0,1,9.66-12.06,20.66,20.66,0,0,1,2.58-1.61l-1.76-.45h0c-3.64-1-6.19-1.87-6.19-1.87l3.91-16s9.48,5,17.51,7.25,10.72,2.65,15.74,3,19.5-2,19.5-2-15.3,6.83-25.9,10.14c-1.27.41-2.47.76-3.57,1A26.44,26.44,0,0,1,347.77,408.07Z" transform="translate(-171.01 -285.52)"/><path class="cls-5" d="M265.48,442.14c-.28-9.73-5.24-17.51-11.06-17.36S244.07,433,244.35,442.7c.26,9.07,4.59,16.43,9.9,17.28h0l1-.14,2.53-.28C262.4,457.67,265.72,450.55,265.48,442.14Zm-9.61,16.51c-3.63,0-6.61-4.08-6.66-9.16s2.84-9.25,6.47-9.28,6.59,4.07,6.64,9.16S259.48,458.61,255.87,458.65Z" transform="translate(-171.01 -285.52)"/><path class="cls-1" d="M255.68,440.21c-3.63,0-6.52,4.19-6.47,9.28s3,9.19,6.66,9.16,6.5-4.2,6.45-9.28S259.29,440.17,255.68,440.21Zm.47,11.26c-1.39,0-2.53-1.5-2.55-3.37s1.09-3.41,2.48-3.42,2.53,1.5,2.54,3.37S257.53,451.46,256.15,451.47Z" transform="translate(-171.01 -285.52)"/><path class="cls-6" d="M258.62,448.05c0,1.87-1.09,3.41-2.47,3.42s-2.53-1.5-2.55-3.37,1.09-3.41,2.48-3.42S258.61,446.18,258.62,448.05Z" transform="translate(-171.01 -285.52)"/><path class="cls-6" d="M286.33,439.65v1.53l0,1.44c0,1-.09,1.91-.18,2.87a50.21,50.21,0,0,1-.78,5.71,45.82,45.82,0,0,1-1.43,5.59c-.24.93-.65,1.81-1,2.72-.29.73-.54,1.48-.85,2.2-.95-.24-1.9-.48-2.85-.7a64.42,64.42,0,0,0-13.67-2,54.44,54.44,0,0,0-6.91.43l-.88.1c4.65-1.89,8-9,7.73-17.42-.28-9.73-5.24-17.51-11.06-17.36S244.07,433,244.35,442.7c.26,9.07,4.59,16.43,9.9,17.28-.83.14-1.65.32-2.47.5-2.17.52-4.3,1.15-6.41,1.85a1,1,0,0,0,.09-.17,1,1,0,0,0,.1-.48.4.4,0,0,0-.14-.34c-.14-.06-.41-.06-1.08.14a51.77,51.77,0,0,1-4-28.7,44.12,44.12,0,0,1,4.16-13.86,32.87,32.87,0,0,1,3.82-6.05,27,27,0,0,1,2.39-2.62,31.55,31.55,0,0,1,2.7-2.25,16,16,0,0,1,13-2.83,16.47,16.47,0,0,1,3.22,1.08c.53.24,1,.56,1.52.83a11.17,11.17,0,0,1,1.48.89,29.48,29.48,0,0,1,2.69,2.21,28,28,0,0,1,2.38,2.61,38.65,38.65,0,0,1,6.47,12.68,49.39,49.39,0,0,1,1.56,7c.09.6.17,1.19.23,1.78s.13,1.22.16,1.82C286.24,437.26,286.28,438.5,286.33,439.65Z" transform="translate(-171.01 -285.52)"/><path class="cls-6" d="M354.1,429.47a44,44,0,0,0-1.6-7.1,37.85,37.85,0,0,0-6.67-12.73A30,30,0,0,0,343.4,407a28.89,28.89,0,0,0-2.74-2.22,10.77,10.77,0,0,0-1.5-.89c-.51-.27-1-.58-1.54-.82l-.24-.1a41.29,41.29,0,0,1-10.2-.79,17.34,17.34,0,0,0-5.85,2.79,31.85,31.85,0,0,0-2.67,2.28,28.26,28.26,0,0,0-2.36,2.65,33.94,33.94,0,0,0-3.73,6.08,39.62,39.62,0,0,0-2.58,6.73c-.17.58-.32,1.18-.48,1.77s-.28,1.13-.41,1.74c-.25,1.19-.4,2.39-.61,3.58a55.44,55.44,0,0,0-.1,14.56,49.85,49.85,0,0,0,3.84,14.11,2.08,2.08,0,0,1,.71.06,1,1,0,0,1,.41.2c.08.1.18.18.15.34a1.18,1.18,0,0,1-.35.53c2.47,0,5,0,7.43,0a83.78,83.78,0,0,0,10.42-.75,32.43,32.43,0,0,0,5-1.12,10.2,10.2,0,0,0,2.27-1.08,8.19,8.19,0,0,1,2.7-.9,25.78,25.78,0,0,1,5.39-.24c1.65.06,3.29.18,4.92.32.51-1.32.95-2.67,1.36-4a46.81,46.81,0,0,0,1.17-4.95c.29-1.67.51-3.35.65-5,.07-.84.12-1.69.14-2.53l0-1.27v-1.33A64.24,64.24,0,0,0,354.1,429.47Zm-23,29.24c-5.83.42-11.18-7.12-12-16.83s3.33-17.93,9.17-18.36,11.15,7.13,11.92,16.84S336.91,458.3,331.1,458.71Z" transform="translate(-171.01 -285.52)"/><path class="cls-5" d="M340.24,440.36c-.77-9.71-6.12-17.25-11.92-16.84s-9.94,8.65-9.17,18.36,6.12,17.25,12,16.83S341,450.07,340.24,440.36Zm-8.78,16.92c-3.63.2-6.8-3.76-7.11-8.84s2.38-9.37,6-9.57,6.78,3.77,7.09,8.85S335.06,457.09,331.46,457.28Z" transform="translate(-171.01 -285.52)"/><path class="cls-1" d="M337.44,447.72c-.31-5.08-3.49-9-7.09-8.85s-6.3,4.49-6,9.57,3.48,9,7.11,8.84S337.74,452.8,337.44,447.72Zm-6.06,2.38c-1.39.08-2.61-1.38-2.72-3.25s.92-3.45,2.31-3.53,2.6,1.39,2.71,3.26S332.76,450,331.38,450.1Z" transform="translate(-171.01 -285.52)"/><path class="cls-6" d="M333.68,446.58c.11,1.87-.92,3.45-2.3,3.52s-2.61-1.38-2.72-3.25.92-3.45,2.31-3.53S333.57,444.71,333.68,446.58Z" transform="translate(-171.01 -285.52)"/><path class="cls-1" d="M350,503.2q-12.48.78-25,1.09c-4.15.13-8.31.18-12.47.27l-12.48.13c-8.32,0-16.64,0-25-.11s-16.64-.35-25-.75v-1q12.48-.75,25-1.06c8.32-.24,16.64-.35,25-.43l12.48,0c4.16,0,8.32,0,12.48.12q12.48.15,25,.77Z" transform="translate(-171.01 -285.52)"/></svg>