<svg id="Layer_1" data-name="Layer 1" xmlns="http://www.w3.org/2000/svg" viewBox="0 0 417.05 385"><defs><style>.cls-1{fill:#231f20;}.cls-2,.cls-4{fill:none;}.cls-3{fill:#00a651;}.cls-4{stroke:#231f20;stroke-miterlimit:10;}.cls-5{fill:#fff;}.cls-6{fill:#0d93d1;}.cls-7{fill:#ef3a24;}</style></defs><path class="cls-1" d="M240,344.15l-.12.07L237,345.79c-.71.39-1.41.77-2.11,1.17a217.7,217.7,0,0,0-28.59,18.41l-3.9,3.06-3.7,3.27-1.85,1.64c-.61.55-1.16,1.16-1.74,1.74l-3.45,3.52c-1.09,1.22-2.12,2.5-3.18,3.74l-1.58,1.88c-.49.65-.95,1.33-1.43,2-.94,1.34-1.91,2.66-2.83,4l-2.49,4.22c-.4.71-.86,1.39-1.21,2.13l-1.06,2.21c-.69,1.48-1.47,2.91-2.08,4.43-1.13,3.07-2.49,6.05-3.33,9.23-.46,1.57-1,3.12-1.4,4.71L170,422l-.56,2.4c-.16.81-.27,1.63-.41,2.44l-.8,4.88c-.31,1.62-.4,3.28-.61,4.92l-.53,4.93a88.42,88.42,0,0,0-.25,9.76,81.2,81.2,0,0,0,2.78,18.47c.06.26.13.51.2.76l-.47.13-1.93.54-2.38.67a86.5,86.5,0,0,1-3.07-20.42,91.19,91.19,0,0,1,.31-10.33l.57-5.07c.21-1.68.32-3.38.64-5l.85-5c.15-.84.27-1.68.44-2.52l.58-2.49,1.17-5c.45-1.66,1-3.28,1.49-4.92a98.94,98.94,0,0,1,3.55-9.66c.67-1.58,1.51-3.09,2.25-4.64l1.15-2.31c.38-.77.88-1.48,1.31-2.22l2.68-4.41c1-1.4,2-2.78,3-4.17.51-.69,1-1.4,1.53-2.07l1.68-2c1.13-1.29,2.23-2.62,3.38-3.88l3.65-3.61c.61-.59,1.19-1.22,1.83-1.79l1.94-1.67,3.88-3.34,4.06-3.08a222.46,222.46,0,0,1,32.25-19.49l2.41-1.21.1,0a.76.76,0,0,1,.18-.09h0l.19-.05.23,0h.07v3a1.33,1.33,0,0,0,.51-.09h0Z" transform="translate(-58.24 -285.52)"/><path class="cls-1" d="M435.22,440.33c0,.85,0,1.7,0,2.55a94.13,94.13,0,0,1-.86,10.21c-.05.39-.1.77-.17,1.16q-.51,3.56-1.31,7.06c-.15.67-.3,1.34-.47,2a103.39,103.39,0,0,1-5.74,16.86A109.36,109.36,0,0,1,411,505.39h0l-.87,1.07q-3.18,3.78-6.63,7.3c-.82.84-1.65,1.66-2.5,2.47l-1.07,1a137.72,137.72,0,0,1-29.26,20.65,148.15,148.15,0,0,1-33.19,12.69h0l-1.48.36A156.14,156.14,0,0,1,319.33,554c-.64.09-1.29.17-1.94.24a163.07,163.07,0,0,1-25.57,1c-3.76-.15-7.64-.48-11.56-1l-1.81-.23c-5.8-.76-11.64-1.83-17.21-3.08l-.66-.15c-1.34-.31-2.67-.62-4-1l6.41-3.19h.07l.13,0,.8.15a219.86,219.86,0,0,0,28,3.64c26.38,1.08,53.15-4.4,76.56-16.63a128.5,128.5,0,0,0,16.82-10.39,122.29,122.29,0,0,0,15-12.8c.93-.94,1.84-1.9,2.74-2.87a107.49,107.49,0,0,0,19.67-29.33,98.73,98.73,0,0,0,5.54-16,95.31,95.31,0,0,0,2-10.18c0-.27.08-.55.11-.82a90.94,90.94,0,0,0,.79-11.19,108.65,108.65,0,0,0-1.61-19.65c-.45-3.27-1.38-6.43-2.15-9.63-.43-1.58-1-3.12-1.51-4.69l-.77-2.34c-.28-.77-.63-1.52-.94-2.28l-1.91-4.54-2.25-4.39c-.39-.72-.72-1.48-1.16-2.18l-1.3-2.1-1.29-2.1a21.46,21.46,0,0,0-1.35-2.06l-2.89-4-.73-1-.8-.94L409,376.51c-2.05-2.59-4.44-4.87-6.73-7.25a124.53,124.53,0,0,0-26.87-19.4c-1.49-.82-3-1.6-4.5-2.36-.41-.22-.83-.42-1.24-.63l.19-.4.91-1.88.2-.42a132.38,132.38,0,0,1,33.62,22.7c2.38,2.43,4.86,4.77,7,7.43l1.66,1.94.83,1,.77,1,3,4.12a24.63,24.63,0,0,1,1.42,2.13l1.36,2.17,1.36,2.18c.46.71.81,1.5,1.22,2.25l2.38,4.54,2,4.71c.32.78.69,1.56,1,2.36l.83,2.43c.53,1.62,1.15,3.22,1.61,4.86.83,3.32,1.81,6.6,2.31,10a102.32,102.32,0,0,1,1.75,17.09l0,1.14C435.19,438.91,435.21,439.62,435.22,440.33Z" transform="translate(-58.24 -285.52)"/><path class="cls-2" d="M267.08,547.55c-1-.2-2.07-.42-3.09-.64l-.9-.21H263c-.59-.13-1.17-.26-1.75-.41" transform="translate(-58.24 -285.52)"/><path class="cls-2" d="M232.23,536.28q-1.69-.76-3.36-1.59" transform="translate(-58.24 -285.52)"/><path class="cls-2" d="M183.79,498.46c-1.59-2.13-3.11-4.31-4.54-6.56" transform="translate(-58.24 -285.52)"/><path class="cls-2" d="M213.47,525.89c-.75-.49-1.49-1-2.22-1.51" transform="translate(-58.24 -285.52)"/><path class="cls-2" d="M169.69,471.87h0c-.13-.4-.25-.81-.37-1.22l-.18-.61c-.17-.56-.33-1.13-.51-1.69" transform="translate(-58.24 -285.52)"/><path class="cls-2" d="M174.74,484c.42.8.85,1.59,1.26,2.4.08.14.15.28.23.41" transform="translate(-58.24 -285.52)"/><path class="cls-1" d="M349.07,359l-1.69.63h0a16.78,16.78,0,0,1-3.72.8,28.3,28.3,0,0,1-3.68.14,38.14,38.14,0,0,1-7.23-.91,62,62,0,0,1-13.54-4.93,99.55,99.55,0,0,0-12.88-5c-2.2-.65-4.42-1.22-6.65-1.67-1.12-.21-2.24-.41-3.35-.54s-2.19-.23-3.12-.25c-4.59.91-9.25,2-13.77,3.26a82.85,82.85,0,0,0-13.34,4.78,115.65,115.65,0,0,0-12.35,7.2c-4,2.59-8,5.36-11.92,8.15l-4,2.83,2.48-4.11h0c2.75-4.71,5.63-9.31,8.7-13.81,1.55-2.25,3.15-4.46,4.87-6.61.86-1.07,1.76-2.11,2.72-3.13s2-1.93,3-2.83c1.44-1.29,2.94-2.55,4.49-3.74.86-.67,1.74-1.32,2.64-1.93a45.91,45.91,0,0,1,6.41-3.72c.63-.29,1.25-.58,1.89-.85a15.11,15.11,0,0,1,2.06-.7,18.23,18.23,0,0,1,4.25-.56,27.18,27.18,0,0,1,3.14.15,26.18,26.18,0,0,1,3.16.47c.68.13,1.36.3,2,.48l-.58,1.92c-.67-.18-1.36-.35-2.06-.48l-.41-.08a27.4,27.4,0,0,0-5.25-.46,16.48,16.48,0,0,0-3.79.5,12.43,12.43,0,0,0-1.78.6c-.61.26-1.21.54-1.81.82A55,55,0,0,0,261,344.5c-1,.89-2,1.81-2.91,2.73s-1.77,2-2.6,3c-1.67,2.08-3.25,4.26-4.78,6.48q-2.94,4.31-5.67,8.77c2.32-1.83,4.69-3.6,7.08-5.35a117.43,117.43,0,0,1,12.46-7.85A78,78,0,0,1,278.4,347c4.72-1.36,9.44-2.52,14.3-3.42l.16,0H293a29.78,29.78,0,0,1,3.79.29c1.22.15,2.42.37,3.61.61a66,66,0,0,1,7,1.83,88.75,88.75,0,0,1,13.26,5.54A60.29,60.29,0,0,0,333.4,357a34.67,34.67,0,0,0,6.69,1.21c.56.05,1.12.06,1.69.09s1.12,0,1.68,0c.4,0,.8,0,1.2-.07q-3.93-3.09-7.74-6.32a93.83,93.83,0,0,1-9-8.46c-.33-.38-.7-.86-1-1.16a7.94,7.94,0,0,0-1-1,16.45,16.45,0,0,0-2.35-1.6,34.08,34.08,0,0,0-5.43-2.31,71.5,71.5,0,0,0-11.64-2.8l.28-2a73.94,73.94,0,0,1,12,2.88,35.33,35.33,0,0,1,5.75,2.47,17.84,17.84,0,0,1,2.68,1.82,6.93,6.93,0,0,1,1.06,1l.13.14c.41.42.66.76,1,1.14s.63.7.95,1a104.84,104.84,0,0,0,7.79,7.21c3.08,2.61,6.23,5.16,9.43,7.62Z" transform="translate(-58.24 -285.52)"/><path class="cls-1" d="M377.6,357.86h0c-8.3-2.77-16.49-5.81-24.72-8.6-4.11-1.39-8.22-2.73-12.37-3.87-2.08-.57-4.17-1.1-6.26-1.55-1.26-.27-2.56-.53-3.83-.72-.82-.13-1.63-.23-2.41-.3l-.12-2a3.55,3.55,0,0,1,.46,0,32.72,32.72,0,0,1,6.36.21c2.22.25,4.42.64,6.6,1.1a109.1,109.1,0,0,1,12.77,3.67q6.24,2.16,12.32,4.73c3.24,1.37,6.45,2.79,9.61,4.33a29.49,29.49,0,0,0-3.62-5.67,21.14,21.14,0,0,0-1.48-1.66c-.34-.35-.69-.7-1.05-1l-.73-.67a24.09,24.09,0,0,0-3.83-2.67c-5.63-3-11.55-5.8-17.43-8.45-2.95-1.31-5.93-2.59-8.93-3.71a23.37,23.37,0,0,0-4.47-1.28,30.4,30.4,0,0,0-4.69-.22c-1.59,0-3.19.14-4.77.31s-3.31.23-4.94.29-3.28,0-4.92,0l-4.84-.2v-2l4.89.2c1.61,0,3.21.05,4.82,0,1.25,0,2.49-.08,3.72-.18l1.05-.09c.74-.09,1.48-.16,2.23-.2h0c.9-.07,1.8-.11,2.71-.13a32.77,32.77,0,0,1,5,.24,25,25,0,0,1,4.87,1.39c3.08,1.15,6.08,2.43,9.05,3.75,6,2.68,11.8,5.43,17.61,8.54a25.8,25.8,0,0,1,4.14,2.89l.34.31a29.14,29.14,0,0,1,3.17,3.31c.51.64,1,1.29,1.47,2a29.41,29.41,0,0,1,3.53,6.77l.7,1.91Z" transform="translate(-58.24 -285.52)"/><path class="cls-3" d="M273.07,319.33a93,93,0,0,1-11.19-3.09l-2.8-.93a17.75,17.75,0,0,0-2.63-.68,47.82,47.82,0,0,0-5.66-.7c-1.91-.12-3.87-.2-5.76-.19a37.26,37.26,0,0,0-5.66.47,54.55,54.55,0,0,0-7.76,1.8q6.54,1.42,13,3.27c2.73.77,5.44,1.62,8.14,2.58,1.34.48,2.69,1,4,1.57.67.29,1.34.61,2,1a8.66,8.66,0,0,1,2,1.43,2.81,2.81,0,0,1,.26.3,2.19,2.19,0,0,1,.27.39,2,2,0,0,1,.22.55,1.93,1.93,0,0,1,.05.73A2,2,0,0,1,261,329a3.13,3.13,0,0,1-.72.54,10.56,10.56,0,0,1-2.3.76l-4.11,1-2.08.5c-.76.16-1.3.27-2,.48l-2,.57c-.32.1-.7.19-1,.3l-.85.32a13.71,13.71,0,0,0-5.5,5.33,28.57,28.57,0,0,0-1.71,3.19l.11,0-.12.07c-.26.55-.49,1.11-.71,1.68,1.58-.93,3.19-1.77,4.84-2.57a47.8,47.8,0,0,1,7.75-3,28.58,28.58,0,0,1,4.13-.87l1.06-.12c.35,0,.72,0,1.07-.05.74,0,1.42,0,2.09,0l7.83.21a45.91,45.91,0,0,1,6.41-3.72c.63-.29,1.25-.58,1.89-.85a15.11,15.11,0,0,1,2.06-.7,18.23,18.23,0,0,1,4.25-.56,27.18,27.18,0,0,1,3.14.15ZM239.6,341.15a1.58,1.58,0,0,1-.38.57,1.65,1.65,0,0,1-.33.23l.8-1.31A1.56,1.56,0,0,1,239.6,341.15Z" transform="translate(-58.24 -285.52)"/><path class="cls-1" d="M288.36,332.86l-1.28,1.19-.18.17-.23-.25-2.15-2.31-11.45-12.33a93,93,0,0,1-11.19-3.09l-2.8-.93a17.75,17.75,0,0,0-2.63-.68,47.82,47.82,0,0,0-5.66-.7c-1.91-.12-3.87-.2-5.76-.19a37.26,37.26,0,0,0-5.66.47,54.55,54.55,0,0,0-7.76,1.8q6.54,1.42,13,3.27c2.73.77,5.44,1.62,8.14,2.58,1.34.48,2.69,1,4,1.57.67.29,1.34.61,2,1a8.66,8.66,0,0,1,2,1.43,2.81,2.81,0,0,1,.26.3,2.19,2.19,0,0,1,.27.39,2,2,0,0,1,.22.55,1.93,1.93,0,0,1,.05.73A2,2,0,0,1,261,329a3.13,3.13,0,0,1-.72.54,10.56,10.56,0,0,1-2.3.76l-4.11,1-2.08.5c-.76.16-1.3.27-2,.48l-2,.57c-.32.1-.7.19-1,.3l-.85.32a13.71,13.71,0,0,0-5.5,5.33,28.15,28.15,0,0,0-1.37,2.48c-.12.23-.23.47-.34.71v0c-.26.55-.49,1.11-.71,1.68.45-.27.9-.52,1.36-.77,1.14-.64,2.3-1.23,3.48-1.8a47.8,47.8,0,0,1,7.75-3,28.58,28.58,0,0,1,4.13-.87l1.06-.12c.35,0,.72,0,1.07-.05.74,0,1.42,0,2.09,0l7.83.21h.32l0,2-2.91-.08-5.24-.14c-.69,0-1.36,0-2,0-.32,0-.64,0-1,0l-1,.12a25.7,25.7,0,0,0-3.84.8A47.45,47.45,0,0,0,243.7,343a68,68,0,0,0-7,3.89l-2.15,1.39.33-1.28.3-1.19h0c.2-.72.42-1.44.65-2.14.1-.3.21-.6.32-.89a32.63,32.63,0,0,1,1.56-3.53c.26-.51.54-1,.83-1.52a15.29,15.29,0,0,1,6.4-6.34l1.12-.44c.38-.15.69-.22,1-.33l2-.61c.65-.21,1.49-.4,2.11-.54l2-.51,4.08-1.08a12.93,12.93,0,0,0,1.4-.41,8.15,8.15,0,0,0-1.19-.75c-.58-.31-1.19-.59-1.81-.86-1.25-.54-2.55-1-3.86-1.49-2.63-.92-5.31-1.72-8-2.53-5.38-1.58-10.82-3.06-16.24-4.56l-2.57-.71,2.38-1.17a45.28,45.28,0,0,1,5.62-2.23,46.78,46.78,0,0,1,5.84-1.51,40.77,40.77,0,0,1,6.05-.71c2-.09,4,0,6,.06a54.28,54.28,0,0,1,6,.68,20.58,20.58,0,0,1,3.07.77l2.81.89c2.28.73,4.54,1.5,6.78,2.37,1.42.55,2.84,1.14,4.23,1.79l.25.08.17.2,0,0,13.33,14.36Z" transform="translate(-58.24 -285.52)"/><path class="cls-1" d="M360,308.27l-4.26,2.42c-2.67,1.52-5.38,2.93-8.09,4.35l-8.08,4.21a78,78,0,0,0-7.66,4.53A42.42,42.42,0,0,0,327,327.6s0,0,0,0c-.64.58-1.25,1.18-1.82,1.79l-1.7-1.06.24-.44a19.9,19.9,0,0,1,2.6-3.55,31.9,31.9,0,0,1,3.48-3.3,46.37,46.37,0,0,1,8-5.05q3-1.55,6.09-2.91l-3.67.68c-5.08,1-10.17,1.83-15.27,2.66-.61.1-1.33.22-2,.29l-1.93.22a17.89,17.89,0,0,0-3.48.65,15,15,0,0,0-5.88,3.58,65.9,65.9,0,0,0-5.17,5.49c-1.66,1.91-3.23,3.94-4.73,6L299,336.45l1-4.57c.72-3.22,1.5-6.41,2.36-9.59a96.77,96.77,0,0,1,3-9.46,33,33,0,0,1,5.17-8.65l0-.05-.27.19c-1.38.94-2.76,1.9-4.16,2.8L304,308.5l-2,1.36a28.58,28.58,0,0,0-6.72,6.31,12.51,12.51,0,0,0-1.84,3.83,6.84,6.84,0,0,0-.21,1,5.61,5.61,0,0,0-.07,1,7.93,7.93,0,0,0,.07,1,3.4,3.4,0,0,0,.08.46,3.29,3.29,0,0,1,.08.34l.13.31c.58,2.56,1.11,5.13,1.54,7.73l-1.92.55c-1-2.43-1.91-4.88-2.77-7.35v0a9.31,9.31,0,0,1-.64-2.14,9.85,9.85,0,0,1,.09-3.87,15.59,15.59,0,0,1,2.11-5.06,28,28,0,0,1,7.74-7.44c.73-.47,1.47-1,2.2-1.41L304,303.8c1.44-.86,2.91-1.66,4.37-2.48,2.93-1.61,5.89-3.2,8.93-4.64l1.22,1.58a72.26,72.26,0,0,0-6.5,7.16,31.11,31.11,0,0,0-4.88,8.14,94.94,94.94,0,0,0-2.92,9.26q-.47,1.73-.9,3.45a55.63,55.63,0,0,1,6.06-7.47,17.53,17.53,0,0,1,7.13-4.54,21.35,21.35,0,0,1,4.12-.83l1.92-.2c.62-.06,1.17-.15,1.84-.25,5.1-.81,10.21-1.58,15.33-2.26s10.24-1.38,15.38-1.93h0Z" transform="translate(-58.24 -285.52)"/><path class="cls-1" d="M271.7,289.13h0a4.28,4.28,0,0,0-.53-1.43,4.6,4.6,0,0,0-3-2,8.38,8.38,0,0,0-3.07-.06,14.77,14.77,0,0,0-5.36,2,16.07,16.07,0,0,0-4.38,3.66,8.56,8.56,0,0,0-1.5,2.69,4.25,4.25,0,0,0,2,5.26,4.76,4.76,0,0,0,1.16.48,8.93,8.93,0,0,0,2.42.31c.26,0,.51,0,.76,0a13.73,13.73,0,0,0,5.62-1.85,14.43,14.43,0,0,0,4.4-4,9,9,0,0,0,1-1.81,8.39,8.39,0,0,0,.36-1.07A5,5,0,0,0,271.7,289.13Zm-2.82,1.42a6,6,0,0,1-1.06,1.82,12.47,12.47,0,0,1-3.59,2.95,13.34,13.34,0,0,1-4.36,1.62,6,6,0,0,1-2.1,0,1.75,1.75,0,0,1-1.53-2.37,5.88,5.88,0,0,1,.92-2,9.75,9.75,0,0,1,1.6-1.81,14.43,14.43,0,0,1,2-1.43,11.74,11.74,0,0,1,4.61-1.5,5.9,5.9,0,0,1,2.21.19,1.75,1.75,0,0,1,1.28,2.52Z" transform="translate(-58.24 -285.52)"/><path class="cls-3" d="M268.88,290.55a6,6,0,0,1-1.06,1.82,12.47,12.47,0,0,1-3.59,2.95,13.34,13.34,0,0,1-4.36,1.62,6,6,0,0,1-2.1,0,1.75,1.75,0,0,1-1.53-2.37,5.88,5.88,0,0,1,.92-2,9.75,9.75,0,0,1,1.6-1.81,14.43,14.43,0,0,1,2-1.43,11.74,11.74,0,0,1,4.61-1.5,5.9,5.9,0,0,1,2.21.19,1.75,1.75,0,0,1,1.28,2.52Z" transform="translate(-58.24 -285.52)"/><path class="cls-1" d="M274.35,317.77l-1.52,1.29q-1.62-1.67-3.16-3.39c-2.13-2.35-4.18-4.77-6.2-7.21-2.58-3-5.1-6.13-7.58-9.24l-1.37-1.72,1.53-1.29q1.72,1.89,3.42,3.8,3,3.38,5.94,6.8c3.07,3.56,6.1,7.15,8.91,10.93Z" transform="translate(-58.24 -285.52)"/><path class="cls-3" d="M376,354.83c-3.16-1.54-6.37-3-9.61-4.33q-6.07-2.56-12.32-4.73a109.1,109.1,0,0,0-12.77-3.67c-2.18-.46-4.38-.85-6.6-1.1a32.72,32.72,0,0,0-6.36-.21,6.93,6.93,0,0,0-1.06-1,17.84,17.84,0,0,0-2.68-1.82,35.33,35.33,0,0,0-5.75-2.47,73.94,73.94,0,0,0-12-2.88l-.28,2a71.5,71.5,0,0,1,11.64,2.8,34.08,34.08,0,0,1,5.43,2.31,16.45,16.45,0,0,1,2.35,1.6,7.94,7.94,0,0,1,1,1c.3.3.67.78,1,1.16a93.83,93.83,0,0,0,9,8.46q3.81,3.24,7.74,6.32c-.4,0-.8.06-1.2.07-.56,0-1.12,0-1.68,0s-1.13,0-1.69-.09A34.67,34.67,0,0,1,333.4,357a60.29,60.29,0,0,1-12.75-5.15,88.75,88.75,0,0,0-13.26-5.54,66,66,0,0,0-7-1.83c-1.19-.24-2.39-.46-3.61-.61a29.78,29.78,0,0,0-3.79-.29h-.13l-.16,0c-4.86.9-9.58,2.06-14.3,3.42a78,78,0,0,0-13.85,5.29,117.43,117.43,0,0,0-12.46,7.85c-2.39,1.75-4.76,3.52-7.08,5.35q2.73-4.46,5.67-8.77c1.53-2.22,3.11-4.4,4.78-6.48.83-1,1.7-2.05,2.6-3s1.9-1.84,2.91-2.73A55,55,0,0,1,274,335.43c.6-.28,1.2-.56,1.81-.82a12.43,12.43,0,0,1,1.78-.6,16.48,16.48,0,0,1,3.79-.5,27.4,27.4,0,0,1,5.25.46l.23.25.18-.17c.7.13,1.39.3,2.06.48l.58-1.92c-.68-.18-1.36-.35-2-.48l-13.33-14.36,0,0c-2.81-3.78-5.84-7.37-8.91-10.93q-2.93-3.44-5.94-6.8c.26,0,.51,0,.76,0a13.73,13.73,0,0,0,5.62-1.85,14.43,14.43,0,0,0,4.4-4,9,9,0,0,0,1-1.81c1.1,1.87,2.22,3.73,3.33,5.59,1.82,3,3.61,6.06,5.46,9.06,3.23,5.28,6.44,10.58,9.69,15.84a9.31,9.31,0,0,0,.64,2.14v0c.86,2.47,1.76,4.92,2.77,7.35l1.92-.55c-.43-2.6-1-5.17-1.54-7.73l-.13-.31a3.29,3.29,0,0,0-.08-.34,3.4,3.4,0,0,1-.08-.46,7.93,7.93,0,0,1-.07-1,5.61,5.61,0,0,1,.07-1,6.84,6.84,0,0,1,.21-1,12.51,12.51,0,0,1,1.84-3.83,28.58,28.58,0,0,1,6.72-6.31l2-1.36,2.1-1.38c1.4-.9,2.78-1.86,4.16-2.8l.27-.19,0,.05a33,33,0,0,0-5.17,8.65,96.77,96.77,0,0,0-3,9.46c-.86,3.18-1.64,6.37-2.36,9.59l-1,4.57,2.83-3.83c1.5-2,3.07-4.06,4.73-6a65.9,65.9,0,0,1,5.17-5.49,15,15,0,0,1,5.88-3.58,17.89,17.89,0,0,1,3.48-.65l1.93-.22c.66-.07,1.38-.19,2-.29,5.1-.83,10.19-1.7,15.27-2.66l3.67-.68q-3.07,1.37-6.09,2.91a46.37,46.37,0,0,0-8,5.05,31.9,31.9,0,0,0-3.48,3.3,19.9,19.9,0,0,0-2.6,3.55c-1.23.1-2.47.14-3.72.18-1.61,0-3.21,0-4.82,0l-4.89-.2v2l4.84.2c1.64,0,3.28.05,4.92,0s3.28-.11,4.94-.29,3.18-.28,4.77-.31a30.4,30.4,0,0,1,4.69.22,23.37,23.37,0,0,1,4.47,1.28c3,1.12,6,2.4,8.93,3.71,5.88,2.65,11.8,5.43,17.43,8.45a24.09,24.09,0,0,1,3.83,2.67l.73.67-.19.4c.41.21.83.41,1.24.63a21.14,21.14,0,0,1,1.48,1.66A29.49,29.49,0,0,1,376,354.83Z" transform="translate(-58.24 -285.52)"/><path class="cls-1" d="M292.81,324l-1.72,1c-.46-.73-.91-1.47-1.36-2.2-3.25-5.26-6.46-10.56-9.69-15.84-1.85-3-3.64-6-5.46-9.06-1.11-1.86-2.23-3.72-3.33-5.59-.7-1.16-1.39-2.33-2.07-3.5l1.71-1,.81,1.3h0c1.6,2.56,3.17,5.13,4.74,7.7,1.83,3,3.69,6,5.5,9,2.62,4.37,5.26,8.74,7.88,13.12Q291.32,321.5,292.81,324Z" transform="translate(-58.24 -285.52)"/><path class="cls-1" d="M316.35,517.9a9.45,9.45,0,0,1-.75,2.82,4.94,4.94,0,0,1-.89,1.37l-.31.31-.26.22c-.18.14-.35.29-.56.44a3.91,3.91,0,0,1-.74.44,3.68,3.68,0,0,1-.87.26c-.51.08-.91.11-1.33.17-.83.11-1.66.26-2.49.43-.42.09-.83.18-1.33.24l-.72.1-.69,0a26.86,26.86,0,0,1-2.7-.05c-3.53-.24-7-.76-10.43-1.34-3.19-.56-6.36-1.17-9.52-1.86l-.72-.15h0l-.32,0-16.81-2.19.12-1,17.24,1.82h.07c3.39.67,6.81,1.27,10.23,1.79a102.72,102.72,0,0,0,10.26,1.11c.85,0,1.7.05,2.52,0l.61,0,.57-.09c.36,0,.79-.15,1.23-.25.86-.2,1.74-.37,2.63-.5.44-.06.91-.11,1.26-.17a1.44,1.44,0,0,0,.74-.35c.15-.11.3-.24.46-.37l.24-.2.14-.16a3.2,3.2,0,0,0,.51-.82,7.32,7.32,0,0,0,.54-2.2,8.8,8.8,0,0,0-.64-4.51,3.77,3.77,0,0,0-.55-.85,4.63,4.63,0,0,0-.4-.43l-.46-.47c-.61-.63-1.19-1.24-1.79-1.75a11.2,11.2,0,0,0-2-1.32c-.36-.2-.74-.39-1.11-.58l-.57-.27c-.19-.08-.36-.12-.54-.18-1.45-.49-3.23-.87-4.89-1.26L296.26,505l-20.42-4.17c-3.41-.71-6.81-1.44-10.22-2.23q-2.55-.58-5.1-1.25c-.87-.25-1.71-.46-2.59-.75l-1.33-.49c-.43-.19-.85-.38-1.27-.59a13.22,13.22,0,0,1-4.5-3.61,18.55,18.55,0,0,1-2.58-5c-.62-1.69-1.16-3.28-1.74-5l-1.6-5a51,51,0,0,0-3.84-9.36,17.69,17.69,0,0,0-2.85-3.87A15,15,0,0,0,234.3,461L232,459.68l-.54-.29a2,2,0,0,1-.21-.12h0l-.5,0a7.59,7.59,0,0,1-.76-.12c-1-.2-1.77-.43-2.59-.62a15.18,15.18,0,0,0-2.33-.4,2.9,2.9,0,0,0-1.6.2,2.42,2.42,0,0,0-1,1.29,10.56,10.56,0,0,0-.46,4.55,26,26,0,0,1,6.49,10.52,19.53,19.53,0,0,1,.94,6.43,26.86,26.86,0,0,1-1,6.34,39.36,39.36,0,0,1-2.25,5.87c-.91,1.87-1.93,3.65-3,5.39l-1.56,2.58a12,12,0,0,1-2,2.57,9.81,9.81,0,0,1-1.6,1.27h0a8.56,8.56,0,0,1-1.06.61,8.72,8.72,0,0,1-2.86.87.39.39,0,0,1-.15,0,6.78,6.78,0,0,1-1.47.84h0a10.35,10.35,0,0,1-4.33.87,14,14,0,0,1-2.34-.2l-2-.33a11.82,11.82,0,0,1-2.12-.55,40.7,40.7,0,0,1-3.77-1.62c-4.83-2.26-9.51-4.71-14.21-7.15h0l-6.92-3.74a11.66,11.66,0,0,1-3.7-2.82,4.84,4.84,0,0,1-1.15-2.68,4.69,4.69,0,0,1,.71-2.84,10.57,10.57,0,0,1,1.48-1.81l.53-.56.84-.87,2.77-2.83c1.88-1.86,3.76-3.74,5.73-5.53l.76.65c-1.51,2.2-3.12,4.31-4.72,6.44L177.67,485l-1.24,1.56-.2.25a5.68,5.68,0,0,0-.74,1.09,1.38,1.38,0,0,0-.18.95,1.67,1.67,0,0,0,.49.86,8.51,8.51,0,0,0,2.7,1.79l.75.39,6.33,3.27c2.52,1.35,5,2.71,7.52,4.1.49.26,1,.53,1.45.81q2.47,1.37,4.92,2.78c1.13.64,2.3,1.29,3.38,1.81a9,9,0,0,0,1.67.64l1.9.55a11.92,11.92,0,0,0,3.6.56,8.9,8.9,0,0,0,3.56-.7l.16-.07.06,0a9.38,9.38,0,0,0,4.48-3.13,11.92,11.92,0,0,0,1.43-2.34l1.29-2.73c.88-1.81,1.73-3.59,2.46-5.39a35.85,35.85,0,0,0,1.83-5.47,23.5,23.5,0,0,0,.77-5.56,21.32,21.32,0,0,0-.66-5.47,56.71,56.71,0,0,0-4.19-10.87h0l0-.08,0-.05a8.19,8.19,0,0,1-1-2.65,7.09,7.09,0,0,1,0-3,5.15,5.15,0,0,1,.56-1.56,4.36,4.36,0,0,1,1.26-1.43,5.21,5.21,0,0,1,3.41-.78,17.51,17.51,0,0,1,2.8.49c.87.2,1.75.45,2.48.6l.52.09a5.87,5.87,0,0,1,.82.09,4.16,4.16,0,0,1,1,.39l.61.34,2.27,1.29c.75.43,1.48.81,2.33,1.39a8.52,8.52,0,0,1,1.17.88,8.89,8.89,0,0,1,1.05,1,20,20,0,0,1,3.3,4.5,53.87,53.87,0,0,1,4,9.91l1.56,5c.55,1.6,1.12,3.3,1.69,4.88a15.72,15.72,0,0,0,2.16,4.25,10.19,10.19,0,0,0,3.56,2.86l1.09.52,1.11.4c.77.26,1.62.48,2.42.72,1.66.43,3.33.86,5,1.25,3.36.79,6.75,1.53,10.15,2.26l20.38,4.41,5.1,1.17c1.72.43,3.35.78,5.19,1.41.23.09.48.17.68.26l.61.3c.4.2.8.41,1.2.64a14.19,14.19,0,0,1,2.32,1.61c.72.63,1.32,1.3,1.92,1.92l.44.47a5.49,5.49,0,0,1,.48.53,5.21,5.21,0,0,1,.85,1.34A10.73,10.73,0,0,1,316.35,517.9Z" transform="translate(-58.24 -285.52)"/><path class="cls-4" d="M184.47,480.14" transform="translate(-58.24 -285.52)"/><path class="cls-4" d="M187.48,513.26" transform="translate(-58.24 -285.52)"/><path class="cls-1" d="M213.64,528.4l-.18,1-.71,0a31.34,31.34,0,0,1-5.71-.75,42,42,0,0,1-6.19-1.88c-1.12-.45-2.23-.94-3.31-1.49-.48-.23-.95-.48-1.41-.74s-.73-.41-1.09-.62a33.58,33.58,0,0,1-3.44-2.34h0c-.6-.47-1.19-1-1.75-1.49l.55-.84c1,.4,2,.82,2.91,1.24h0l2.86,1.26c1.91.81,3.8,1.63,5.73,2.39s3.85,1.49,5.81,2.2l4.48,1.58Z" transform="translate(-58.24 -285.52)"/><path class="cls-1" d="M282.81,524a13.76,13.76,0,0,1-.65,3.49,7.84,7.84,0,0,1-2.05,3,5.78,5.78,0,0,1-3.36,1.61l-3.23,0h-1.17l-9.19,0v-1l13.51-.08a4.59,4.59,0,0,0,2.61-1.33,7.43,7.43,0,0,0,1.63-2.6,15.36,15.36,0,0,0,.78-5.8l0-.6,1-.12c.05.31.09.62.11.92A18.38,18.38,0,0,1,282.81,524Z" transform="translate(-58.24 -285.52)"/><path class="cls-1" d="M274,535.4a4.71,4.71,0,0,1-.84,2,10.57,10.57,0,0,1-1.4,1.5c-.4.35-.81.69-1.23,1a16.33,16.33,0,0,1-2,1.29,14.78,14.78,0,0,1-1.79.87l-.14,0a6.15,6.15,0,0,1-1.93.45v-1a5.54,5.54,0,0,0,1.61-.56c.54-.27,1.09-.56,1.62-.89a20.08,20.08,0,0,0,2.95-2.21,9.75,9.75,0,0,0,1.2-1.31,3.57,3.57,0,0,0,.65-1.46,5.74,5.74,0,0,0-.36-3l-.12-.29.86-.51a6.28,6.28,0,0,1,.43.81A5.72,5.72,0,0,1,274,535.4Z" transform="translate(-58.24 -285.52)"/><path class="cls-1" d="M270.8,539.52c-.08.14-.16.28-.25.42a22.73,22.73,0,0,1-6.53,6.94l0,0-.05,0a22.71,22.71,0,0,1-3,1.75.42.42,0,0,1-.14.06,12.34,12.34,0,0,1-1.5.6c-.42.14-.85.25-1.27.35a6.09,6.09,0,0,1-1.43.18,12,12,0,0,1-2.66-.3,40.75,40.75,0,0,1-4.87-1.4q-2.39-.81-4.67-1.84c-2.09-.93-4.12-1.94-6.1-3.06l-1.28-.74q-.74-.43-1.47-.9l-.08,0-.06-.06-4.59-4.79-2-2.06-2.61-2.75.71-.71,4.79,4.6.47.45,4.22,4.1a69.28,69.28,0,0,0,8.67,4.31,55.39,55.39,0,0,0,9.21,3,10.49,10.49,0,0,0,2.24.24,4.4,4.4,0,0,0,1-.14c.39-.1.75-.2,1.11-.32a13.3,13.3,0,0,0,2.57-1.21c.52-.3,1-.63,1.53-1a37.9,37.9,0,0,0,3.81-3.15c1.14-1,2.26-2.15,3.4-3.24Z" transform="translate(-58.24 -285.52)"/><path class="cls-5" d="M314.25,517.66a7.32,7.32,0,0,1-.54,2.2,3.2,3.2,0,0,1-.51.82l-.14.16-.24.2c-.16.13-.31.26-.46.37a1.44,1.44,0,0,1-.74.35c-.35.06-.82.11-1.26.17-.89.13-1.77.3-2.63.5-.44.1-.87.2-1.23.25l-.57.09-.61,0c-.82.06-1.67,0-2.52,0a102.72,102.72,0,0,1-10.26-1.11c-3.42-.52-6.84-1.12-10.23-1.79h-.07L265,518.08l-.12,1,16.81,2.19a15.36,15.36,0,0,1-.78,5.8,7.43,7.43,0,0,1-1.63,2.6,4.59,4.59,0,0,1-2.61,1.33l-13.51.08v1l9.19,0a5.74,5.74,0,0,1,.36,3,3.57,3.57,0,0,1-.65,1.46,9.75,9.75,0,0,1-1.2,1.31,20.08,20.08,0,0,1-2.95,2.21c-.53.33-1.08.62-1.62.89a5.54,5.54,0,0,1-1.61.56v1a6.15,6.15,0,0,0,1.93-.45,37.9,37.9,0,0,1-3.81,3.15c-.5.35-1,.68-1.53,1a153.11,153.11,0,0,1-29-10l-.47-.45-4.79-4.6-.71.71,2.61,2.75q-6.13-3-12-6.6c-1.16-.71-2.31-1.45-3.44-2.2a56.7,56.7,0,0,1-1.58-6.39,21.31,21.31,0,0,1,.31-6.69,22.62,22.62,0,0,1,2-6.22,8.72,8.72,0,0,0,2.86-.87,8.56,8.56,0,0,0,1.06-.61h0a9.81,9.81,0,0,0,1.6-1.27,12,12,0,0,0,2-2.57l1.56-2.58c1-1.74,2.05-3.52,3-5.39a39.36,39.36,0,0,0,2.25-5.87,26.86,26.86,0,0,0,1-6.34,19.53,19.53,0,0,0-.94-6.43,26,26,0,0,0-6.49-10.52,10.56,10.56,0,0,1,.46-4.55,2.42,2.42,0,0,1,1-1.29,2.9,2.9,0,0,1,1.6-.2,15.18,15.18,0,0,1,2.33.4c.82.19,1.62.42,2.59.62a7.59,7.59,0,0,0,.76.12l.5,0h0a2,2,0,0,0,.21.12l.54.29L234.3,461a15,15,0,0,1,3.92,2.74,17.69,17.69,0,0,1,2.85,3.87,51,51,0,0,1,3.84,9.36l1.6,5c.58,1.68,1.12,3.27,1.74,5a18.55,18.55,0,0,0,2.58,5,13.22,13.22,0,0,0,4.5,3.61c.42.21.84.4,1.27.59l1.33.49c.88.29,1.72.5,2.59.75q2.55.66,5.1,1.25c3.41.79,6.81,1.52,10.22,2.23L296.26,505l5.08,1.09c1.66.39,3.44.77,4.89,1.26.18.06.35.1.54.18l.57.27c.37.19.75.38,1.11.58a11.2,11.2,0,0,1,2,1.32c.6.51,1.18,1.12,1.79,1.75l.46.47a4.63,4.63,0,0,1,.4.43,3.77,3.77,0,0,1,.55.85A8.8,8.8,0,0,1,314.25,517.66Z" transform="translate(-58.24 -285.52)"/><path class="cls-5" d="M237,542.54a17.33,17.33,0,0,1-5.14.63,16.37,16.37,0,0,1-6.36-1.53,17.84,17.84,0,0,1-5.3-3.86,16.29,16.29,0,0,1-1.08-1.26c-.36-.47-.68-.89-1-1.36-.66-.93-1.28-1.88-1.85-2.86a28,28,0,0,1-2.74-6.14,2.76,2.76,0,0,0-.08-.27c1.13.75,2.28,1.49,3.44,2.2q5.82,3.58,12,6.6l2,2.06,4.59,4.79.06.06.08,0Q236.3,542.11,237,542.54Z" transform="translate(-58.24 -285.52)"/><path class="cls-5" d="M261.27,546.28a13.3,13.3,0,0,1-2.57,1.21c-.36.12-.72.22-1.11.32a4.4,4.4,0,0,1-1,.14,10.49,10.49,0,0,1-2.24-.24,55.39,55.39,0,0,1-9.21-3,69.28,69.28,0,0,1-8.67-4.31l-4.22-4.1A153.11,153.11,0,0,0,261.27,546.28Z" transform="translate(-58.24 -285.52)"/><path class="cls-1" d="M238.86,543l-.55.28a16.25,16.25,0,0,1-13.59.12,18.14,18.14,0,0,1-5.91-4.3,17.47,17.47,0,0,1-1.18-1.4c-.35-.45-.73-1-1.06-1.44-.68-1-1.31-2-1.91-3a35.79,35.79,0,0,1-1.91-3.88c-.21-.49-.4-1-.56-1.49s-.26-.81-.37-1.23l-.57-2.26-.18-.72q-.16-.64-.3-1.29c-.09-.42-.18-.83-.25-1.26,0,0,0-.06,0-.09-.07-.43-.14-.87-.2-1.31a21.2,21.2,0,0,1,.57-7.17,25.49,25.49,0,0,1,1.7-5.08h0a17.61,17.61,0,0,1,.87-1.59l.85.54c0,.06-.07.12-.1.19a22.62,22.62,0,0,0-2,6.22,21.31,21.31,0,0,0-.31,6.69,56.7,56.7,0,0,0,1.58,6.39,2.76,2.76,0,0,1,.08.27,28,28,0,0,0,2.74,6.14c.57,1,1.19,1.93,1.85,2.86.33.47.65.89,1,1.36a16.29,16.29,0,0,0,1.08,1.26,17.84,17.84,0,0,0,5.3,3.86,16.37,16.37,0,0,0,6.36,1.53,17.33,17.33,0,0,0,5.14-.63c.48-.13.95-.28,1.42-.45Z" transform="translate(-58.24 -285.52)"/><path class="cls-4" d="M218.88,503.3c-.6,1.25-3,6.5-.86,10.4a6.8,6.8,0,0,0,.68,1" transform="translate(-58.24 -285.52)"/><path class="cls-1" d="M212.19,527.87l-4.48-1.58c-2-.71-3.9-1.42-5.81-2.2s-3.82-1.58-5.73-2.39l-2.86-1.26h0c-4.71-3.15-9.57-6-14.47-8.85-1.53-.89-3.08-1.74-4.62-2.6l-2.31-1.3-1.16-.65c-.31-.18-.7-.44-1.05-.67a68.86,68.86,0,0,1-8.23-6.36,26.35,26.35,0,0,1-6.29-7.79,6.59,6.59,0,0,1-.61-4.33,12.53,12.53,0,0,1,2.16-4.28,43.66,43.66,0,0,1,7.22-7.36c.57-.47,1.14-.93,1.72-1.38.32-.26.64-.51,1-.75q.88-.69,1.8-1.35l.2-.15c.35-.26.7-.51,1.06-.75.11.38.24.76.37,1.14l1.71,4.58,2,4.46c.31.66.64,1.31,1,2l-.53.56a10.57,10.57,0,0,0-1.48,1.81,4.69,4.69,0,0,0-.71,2.84,4.84,4.84,0,0,0,1.15,2.68,11.66,11.66,0,0,0,3.7,2.82l6.92,3.74h0c1.06,1.4,2.14,2.77,3.26,4.11s2.1,2.51,3.23,3.71l3.39,3.56,3.56,3.4c1.18,1.15,2.48,2.17,3.7,3.26,3.31,2.78,6.74,5.42,10.3,7.87h0l.57,2.26C211.93,527.06,212.05,527.46,212.19,527.87Z" transform="translate(-58.24 -285.52)"/><path class="cls-1" d="M184.08,474.78c-2,1.79-3.85,3.67-5.73,5.53l-2.77,2.83-.84.87c-.34-.65-.67-1.3-1-2l-2-4.46L170.06,473c-.13-.38-.26-.76-.37-1.14a1.3,1.3,0,0,1,.2-.15l.65-.45c.6-.42,1.19-.82,1.78-1.21a21.11,21.11,0,0,1,4.1-1.12,10.78,10.78,0,0,1,4.2.05,5.23,5.23,0,0,1,3.27,2.17,4.09,4.09,0,0,1,.63,1.85A2.57,2.57,0,0,1,184.08,474.78Z" transform="translate(-58.24 -285.52)"/><path class="cls-1" d="M211.07,523.66c.06.24.12.48.17.72-3.56-2.45-7-5.09-10.3-7.87-1.22-1.09-2.52-2.11-3.7-3.26l-3.56-3.4-3.39-3.56c-1.13-1.2-2.15-2.48-3.23-3.71s-2.2-2.71-3.26-4.11h0c4.7,2.44,9.38,4.89,14.21,7.15a40.7,40.7,0,0,0,3.77,1.62,11.82,11.82,0,0,0,2.12.55l2,.33a14,14,0,0,0,2.34.2,10.35,10.35,0,0,0,4.33-.87,25.49,25.49,0,0,0-1.7,5.08,21.2,21.2,0,0,0-.57,7.17c.06.44.12.88.2,1.31,0,0,0,.06,0,.09.07.43.16.84.25,1.26S211,523.23,211.07,523.66Z" transform="translate(-58.24 -285.52)"/><path class="cls-1" d="M196.83,522.85l-.24.44h0l-.24.43-.24-.11q-2.26-1-4.5-2.07h0c-4.83-2.33-9.54-4.87-14.2-7.47-1.55-.86-3.08-1.76-4.62-2.63l-2.31-1.32-1.15-.66c-.45-.27-.79-.5-1.17-.76a73,73,0,0,1-8.51-6.69,43,43,0,0,1-3.78-4,21.19,21.19,0,0,1-3.06-4.76,10.74,10.74,0,0,1-.85-2.87,8,8,0,0,1,.19-3.12,15.13,15.13,0,0,1,2.7-5.09,45.29,45.29,0,0,1,7.81-7.55c1.54-1.22,3.12-2.37,4.74-3.47l1.75-1.15.45-.28c.64-.4,1.27-.79,1.92-1.17l.08-.05.07,0a23.35,23.35,0,0,1,4.55-1.07,12,12,0,0,1,4.77.23,6.36,6.36,0,0,1,3.95,2.88,5.23,5.23,0,0,1,.7,2.42,3.58,3.58,0,0,1-.78,2.47l-.76-.65a2.57,2.57,0,0,0,.44-1.77,4.09,4.09,0,0,0-.63-1.85,5.23,5.23,0,0,0-3.27-2.17,10.78,10.78,0,0,0-4.2-.05,21.11,21.11,0,0,0-4.1,1.12c-.59.39-1.18.79-1.78,1.21l-.65.45-.21.14-.29.21-.76.55-.2.15q-.92.66-1.8,1.35c-.33.24-.65.49-1,.75-.58.45-1.15.91-1.72,1.38a43.66,43.66,0,0,0-7.22,7.36,12.53,12.53,0,0,0-2.16,4.28,6.59,6.59,0,0,0,.61,4.33,26.35,26.35,0,0,0,6.29,7.79,68.86,68.86,0,0,0,8.23,6.36c.35.23.74.49,1.05.67l1.16.65,2.31,1.3c1.54.86,3.09,1.71,4.62,2.6,4.9,2.81,9.76,5.7,14.47,8.85h0C194.49,521.22,195.67,522,196.83,522.85Z" transform="translate(-58.24 -285.52)"/><path class="cls-1" d="M450,492.5l-.1-.11-.7.71c-.09.11-.21.23-.31.33s-.35.37-.5.54h0l-2.2,2.4c-.35.38-.68.76-1,1.15-.8.88-1.56,1.76-2.31,2.66l-1.13,1.3c-.2.2-.37.38-.57.56l-.27.27-.16.13-.06.06h0v0l0,0,0,0a10.63,10.63,0,0,1-2.12,1.27,10.47,10.47,0,0,1-2.27.8,3.83,3.83,0,0,1-1,0l-1-.22a16.34,16.34,0,0,0-2.14-.29h-.73a43.15,43.15,0,0,0-4.32,2.49c-.7.44-1.36.91-2,1.34a19.49,19.49,0,0,1-2,1.2l-.25.12-.2.08a1.48,1.48,0,0,1-.37.07c-.12,0-.28,0-.43,0l-.49-.07a12.8,12.8,0,0,1-2-.56,37.5,37.5,0,0,1-4-1.76h0c-.51-.34-1-.62-1.49-.92a8.2,8.2,0,0,0-1.77-.76,1.72,1.72,0,0,0-.69-.06l-.18,0h0a1.2,1.2,0,0,0-.47.28,1.28,1.28,0,0,0-.33.51,1.17,1.17,0,0,0-.07.25v0a.29.29,0,0,0,0,.16,1.5,1.5,0,0,0,0,.31.8.8,0,0,1,0,.19l0,.24.1.5c.14.66.28,1.31.43,2s.31,1.32.51,2a6.68,6.68,0,0,0,.36,1,2.34,2.34,0,0,0,.25.5,1.53,1.53,0,0,0,.24.29.62.62,0,0,0,.64.17.83.83,0,0,0,.36-.23c.06-.06.12-.17.17-.22l.1-.2,0-.13.2-.48.41-1,.78-2-.62-.31-.95,1.88-.49.94-.06.15,0-.07a8.61,8.61,0,0,1-.23-.88c-.15-.62-.24-1.27-.35-1.92s-.18-1.26-.28-1.91a14.85,14.85,0,0,1,2.39,1.51l0,0,0,0a34.21,34.21,0,0,0,4.18,2h0c.38.15.78.28,1.17.39a7,7,0,0,0,1.09.28l.64.09c.24,0,.45,0,.71,0a2.63,2.63,0,0,0,.77-.17l.37-.12.32-.15a26.3,26.3,0,0,0,4.36-2.83,27.1,27.1,0,0,0,3.56-3.33,3.92,3.92,0,0,0,1.83,2,4.74,4.74,0,0,0,3.11.37,13,13,0,0,0,2.85-1.07,13.27,13.27,0,0,0,1.32-.8c.21-.13.43-.28.64-.44a7.07,7.07,0,0,0,.61-.52h0l0,0,0,0,.05-.06.1-.08.16-.17.34-.35c.21-.21.42-.46.63-.71l1.08-1.46c.72-1,1.42-1.94,2.1-2.92,1.18-1.65,2.33-3.31,3.46-5h0c.2-.3.38-.6.59-.91Z" transform="translate(-58.24 -285.52)"/><path class="cls-1" d="M419.82,509.69c-.05.57-.11,1.16-.21,1.71-.13,1-.35,1.87-.57,2.81a31.51,31.51,0,0,1-1.44,4.41c-.15.36-.3.74-.47,1.12-.1.19-.17.36-.3.57l-.17.3-.09.16a3,3,0,0,1-.44.49l-.2.15a1.91,1.91,0,0,1-.38.19,2.28,2.28,0,0,1-.65.2,5.34,5.34,0,0,1-1.09.14,19,19,0,0,1-3.9-.29,61.71,61.71,0,0,1-7.38-1.65l-.92-.27-.28-.09a1.23,1.23,0,0,1-.32-.19,2.49,2.49,0,0,1-.45-.47,3.38,3.38,0,0,1-.54-1.23,4.54,4.54,0,0,1-.09-.51c0-.22,0-.45,0-.67s0-.55,0-.84a13.71,13.71,0,0,1,1-3.8l.49.16.17,0a14.15,14.15,0,0,0-.56,3.05,7.22,7.22,0,0,0,0,1v.11a2.64,2.64,0,0,0,.57,1.53,1.07,1.07,0,0,0,.23.21c.11.07.05,0,.26.07l.92.17c2.43.48,4.89.91,7.34,1.2a26,26,0,0,0,3.62.17c.27,0,.56-.06.82-.11a1.2,1.2,0,0,0,.32-.12l0,0,.1-.18c.07-.12.13-.29.22-.43.12-.31.26-.62.39-1,.84-2.24,1.61-4.58,2.62-6.85.21-.49.45-1,.7-1.49Z" transform="translate(-58.24 -285.52)"/><path class="cls-4" d="M438.88,492.84a23.07,23.07,0,0,1-2.31,7.09,15.56,15.56,0,0,1-5,4.59" transform="translate(-58.24 -285.52)"/><path class="cls-1" d="M451,483.59c-.05.77,0,1.53-.15,2.31a26.38,26.38,0,0,1-.91,4.55c-.14.48-.28.95-.45,1.42h0c-.06.19-.13.37-.2.54h0c-.11.3-.22.59-.36.89h0a.26.26,0,0,1,0,.1,5.09,5.09,0,0,0-.22.54l-.39.79a22.86,22.86,0,0,1-2.37,3.85l-.55-.44c.29-.59.56-1.19.8-1.78a36.59,36.59,0,0,0,2.14-6.33,28.85,28.85,0,0,0,.7-4.19c.09-.69.09-1.38.14-2.07s0-1.39-.05-2.06a22.81,22.81,0,0,0-.61-4,21.31,21.31,0,0,0-1.29-3.7,18.5,18.5,0,0,0-4.41-6s0,0,0,0l0,0,.4-.67a14.36,14.36,0,0,1,1.32.93,16,16,0,0,1,4,4.81c.14.26.27.51.39.77s.25.52.36.78.25.59.37.89a15.46,15.46,0,0,1,.49,1.5,22.56,22.56,0,0,1,.78,4.38C451,482.07,451,482.83,451,483.59Z" transform="translate(-58.24 -285.52)"/><path class="cls-4" d="M443.61,494.84" transform="translate(-58.24 -285.52)"/><path class="cls-1" d="M475.2,472.64a16,16,0,0,1-2.55,6.33,34.29,34.29,0,0,1-4,5,46.16,46.16,0,0,1-4.52,4.21,27.84,27.84,0,0,1-5.11,3.24c-.45.23-.9.42-1.37.62l-.36.14-.33.07-.68.17-2.76.62-2.77.6a8.19,8.19,0,0,1-1,.2h0a6.86,6.86,0,0,1-1.12.15h-.31l-.39,0-.11-.92a6.59,6.59,0,0,1,1.43-.62h0c.42-.13.81-.23,1.23-.35l2.68-.7,2.68-.69.66-.17.36-.1.31-.13c.41-.19.81-.4,1.23-.61a32.36,32.36,0,0,0,8.82-7.33,31.9,31.9,0,0,0,3.52-4.71,13.32,13.32,0,0,0,2-5.13,9.71,9.71,0,0,0-.93-5.09,26.28,26.28,0,0,0-2.81-4.62,66,66,0,0,0-15.8-14.74,114.43,114.43,0,0,0-16-8.9c-.69-.33-1.39-.64-2.09-.95l-.84-.38.3-.9.51.14c.94.26,1.89.55,2.81.85a74,74,0,0,1,16.68,7.73,59.84,59.84,0,0,1,16.51,15.17,24.22,24.22,0,0,1,3,5.19A12.74,12.74,0,0,1,475.2,472.64Z" transform="translate(-58.24 -285.52)"/><path class="cls-1" d="M435.18,442.88c0-.85,0-1.7,0-2.55s0-1.42-.05-2.13c.7.31,1.4.62,2.09.95C436.56,440.38,435.86,441.63,435.18,442.88Z" transform="translate(-58.24 -285.52)"/><path class="cls-1" d="M472.79,472.5a13.32,13.32,0,0,1-2,5.13,31.9,31.9,0,0,1-3.52,4.71,32.36,32.36,0,0,1-8.82,7.33c-.42.21-.82.42-1.23.61l-.31.13-.36.1-.66.17-2.68.69-2.68.7c-.42.12-.81.22-1.23.35.07-.17.14-.35.2-.54h0c.17-.47.31-.94.45-1.42a26.38,26.38,0,0,0,.91-4.55c.11-.78.1-1.54.15-2.31s0-1.52-.1-2.27a22.56,22.56,0,0,0-.78-4.38,15.46,15.46,0,0,0-.49-1.5c-.12-.3-.24-.59-.37-.89.75.11,1.49.21,2.26.3L453,475c.23,0,.47,0,.71,0s.48,0,.73-.06h0c.49-.09,1-.16,1.48-.3a4,4,0,0,0,1.53-.75,7.7,7.7,0,0,0,1.95-2.9,4.5,4.5,0,0,0,.29-1.81,4.67,4.67,0,0,0-.38-1.72,8.13,8.13,0,0,0-1.74-2.59,18.09,18.09,0,0,0-4.7-3.39c-1.62-1-3.28-1.82-4.94-2.69a97.32,97.32,0,0,0-10.25-4.63l-1.33-.47c-.39-.14-.78-.26-1.17-.38s-.56-.17-.85-.24a94.13,94.13,0,0,0,.86-10.21c.68-1.25,1.38-2.5,2.08-3.73a114.43,114.43,0,0,1,16,8.9,66,66,0,0,1,15.8,14.74,26.28,26.28,0,0,1,2.81,4.62A9.71,9.71,0,0,1,472.79,472.5Z" transform="translate(-58.24 -285.52)"/><path class="cls-2" d="M435.18,442.88a94.13,94.13,0,0,1-.86,10.21q-.49-.15-1-.27l-1.08-.24-.68-.11c-.4-.07-.8-.12-1.21-.16l-.32,0c.14-.27.28-.53.43-.79l2-3.71,1-1.79c.32-.57.63-1.14.95-1.73S434.92,443.34,435.18,442.88Z" transform="translate(-58.24 -285.52)"/><path class="cls-1" d="M431.57,452.47l.68.11-1.08-.13Z" transform="translate(-58.24 -285.52)"/><path class="cls-1" d="M459.68,469.2a4.5,4.5,0,0,1-.29,1.81,7.7,7.7,0,0,1-1.95,2.9,4,4,0,0,1-1.53.75c-.51.14-1,.21-1.48.3h0c-.25,0-.42.06-.73.06s-.48,0-.71,0l-1.39-.14c-.77-.09-1.51-.19-2.26-.3l-.49-.07.13-.71,0-.22c.93.1,1.83.2,2.74.27l1.37.09h.66c.18,0,.43,0,.65-.05a6.18,6.18,0,0,0,2.46-.86,6.52,6.52,0,0,0,1.55-2.34c.68-1.78-.4-3.53-1.65-4.82a18,18,0,0,0-4.49-3.15c-1.63-.9-3.26-1.81-4.91-2.68a92.34,92.34,0,0,0-10.09-4.7c-1-.39-2.06-.75-3.11-1.06-.71-.22-1.43-.41-2.15-.58-.25-.05-.32-.08-.32-.09h-.2c-.06,0,.6-.95-.8-.61l1.57-.38,1.08.24q.5.12,1,.27c.29.07.57.15.85.24l1.17.38,1.33.47a97.32,97.32,0,0,1,10.25,4.63c1.66.87,3.32,1.73,4.94,2.69a18.09,18.09,0,0,1,4.7,3.39,8.13,8.13,0,0,1,1.74,2.59A4.67,4.67,0,0,1,459.68,469.2Z" transform="translate(-58.24 -285.52)"/><path class="cls-5" d="M449.17,483.8c-.05.69-.05,1.38-.14,2.07a28.85,28.85,0,0,1-.7,4.19,36.59,36.59,0,0,1-2.14,6.33c-.35.38-.68.76-1,1.15-.8.88-1.56,1.76-2.31,2.66l-1.13,1.3c-.2.2-.37.38-.57.56l-.27.27-.16.13-.06.06h0v0l0,0,0,0a10.63,10.63,0,0,1-2.12,1.27,10.47,10.47,0,0,1-2.27.8,3.83,3.83,0,0,1-1,0l-1-.22a16.34,16.34,0,0,0-2.14-.29h-.73a43.15,43.15,0,0,0-4.32,2.49c-.7.44-1.36.91-2,1.34a19.49,19.49,0,0,1-2,1.2l-.25.12-.2.08a1.48,1.48,0,0,1-.37.07c-.12,0-.28,0-.43,0l-.49-.07a12.8,12.8,0,0,1-2-.56,37.5,37.5,0,0,1-4-1.76h0c-.51-.34-1-.62-1.49-.92a8.2,8.2,0,0,0-1.77-.76,1.72,1.72,0,0,0-.69-.06l-.18,0a109.36,109.36,0,0,0,15.62-25.21,103.39,103.39,0,0,0,5.74-16.86l.08,0,.65.18a31.58,31.58,0,0,1,5.62,2.33c1.38.65,2.7,1.39,4.1,2.08l0,0s0,0,0,0a18.5,18.5,0,0,1,4.41,6,21.31,21.31,0,0,1,1.29,3.7,22.81,22.81,0,0,1,.61,4C449.18,482.41,449.15,483.12,449.17,483.8Z" transform="translate(-58.24 -285.52)"/><path class="cls-5" d="M418.44,511c-1,2.27-1.78,4.61-2.62,6.85-.13.34-.27.65-.39,1-.09.14-.15.31-.22.43l-.1.18,0,0a1.2,1.2,0,0,1-.32.12c-.26,0-.55.08-.82.11a26,26,0,0,1-3.62-.17c-2.45-.29-4.91-.72-7.34-1.2l-.92-.17c-.21,0-.15,0-.26-.07a1.07,1.07,0,0,1-.23-.21,2.64,2.64,0,0,1-.57-1.53v-.11c.85-.81,1.68-1.63,2.5-2.47q3.45-3.51,6.63-7.3a.29.29,0,0,0,0,.16,1.5,1.5,0,0,0,0,.31.8.8,0,0,1,0,.19l0,.24.1.5c.14.66.28,1.31.43,2s.31,1.32.51,2a6.68,6.68,0,0,0,.36,1,2.34,2.34,0,0,0,.25.5,1.53,1.53,0,0,0,.24.29.62.62,0,0,0,.64.17.83.83,0,0,0,.36-.23c.06-.06.12-.17.17-.22l.1-.2,0-.13.2-.48.41-1,.78-2-.62-.31-.95,1.88-.49.94-.06.15,0-.07a8.61,8.61,0,0,1-.23-.88c-.15-.62-.24-1.27-.35-1.92s-.18-1.26-.28-1.91a14.85,14.85,0,0,1,2.39,1.51l0,0,0,0a34.21,34.21,0,0,0,4.18,2Z" transform="translate(-58.24 -285.52)"/><path class="cls-1" d="M444.76,467.82l-.22.37-.28.43c-.48-.21-1-.45-1.44-.69-1.4-.69-2.72-1.43-4.1-2.08a31.58,31.58,0,0,0-5.62-2.33l-.65-.18-.08,0-.21-.05c-1.14-.26-1.64-.19-3.25-.47.29.08-.11,0-.26,0h.13a2.64,2.64,0,0,1,.44-.06c.28.1.61.19.11,0l-.11,0-.26-.11s.09,0,.33.06v-1.82h.48l-.34-.08.28,0a5.14,5.14,0,0,0,.55.06c.08,0,.11,0,.12,0s.14,0,.15.06l-.18,0h0c-.16.09-.71.18-.3.22a23.09,23.09,0,0,1,2.8.15l.85.21a25.65,25.65,0,0,1,6,2.4A23.71,23.71,0,0,1,444.76,467.82Z" transform="translate(-58.24 -285.52)"/><path class="cls-1" d="M272.31,385.47a15.24,15.24,0,0,1-4.49,1.95,50.07,50.07,0,0,1-9.55,1.8l-.47,0a104.41,104.41,0,0,1-11.69.7,26.27,26.27,0,0,1-8.25-1.42l-6.92-2.27-23.27-7.65s14.65,1.18,19.29,1.26,16.39-2.18,22.9-4.52l17-6.09Z" transform="translate(-58.24 -285.52)"/><path class="cls-1" d="M361,377.77s-15.3,6.83-25.9,10.14c-1.27.41-2.47.76-3.57,1a25.6,25.6,0,0,1-2.87.6c-.41.06-.83.11-1.27.14a41.29,41.29,0,0,1-10.2-.79c-1.7-.32-3.36-.69-4.89-1.07l-1.76-.45h0c-3.64-1-6.19-1.87-6.19-1.87l3.91-16s9.48,5,17.51,7.25,10.72,2.65,15.74,3S361,377.77,361,377.77Z" transform="translate(-58.24 -285.52)"/><path class="cls-1" d="M235.57,448.36a1,1,0,0,1-.1.48,1,1,0,0,1-.09.17,2.6,2.6,0,0,1-.33.48l-.87.48a2.33,2.33,0,0,1-.77,0,1,1,0,0,1-.35-.13.41.41,0,0,1-.11-.07c-.11-.1-.22-.18-.22-.33s.18-.39.73-.81l.89-.45c.67-.2.94-.2,1.08-.14A.4.4,0,0,1,235.57,448.36Z" transform="translate(-58.24 -285.52)"/><path class="cls-1" d="M279.05,426.43v.1L279,428l-.11,1.5c-.08,1-.19,2-.32,3a53.55,53.55,0,0,1-1.18,5.9,45.44,45.44,0,0,1-1.95,5.69c-.34.94-.85,1.8-1.28,2.7-.34.64-.66,1.3-1,1.94l-.41.7-.88-.47c.08-.17.15-.34.22-.51.31-.72.56-1.47.85-2.2.33-.91.74-1.79,1-2.72a45.82,45.82,0,0,0,1.43-5.59,50.21,50.21,0,0,0,.78-5.71c.09-1,.15-1.91.18-2.87l0-1.44v-1.53c0-1.15-.09-2.39-.19-3.54,0-.6-.1-1.22-.16-1.82s-.14-1.18-.23-1.78a49.39,49.39,0,0,0-1.56-7,38.65,38.65,0,0,0-6.47-12.68,28,28,0,0,0-2.38-2.61,29.48,29.48,0,0,0-2.69-2.21,11.17,11.17,0,0,0-1.48-.89c-.51-.27-1-.59-1.52-.83a16.47,16.47,0,0,0-3.22-1.08,16,16,0,0,0-13,2.83,31.55,31.55,0,0,0-2.7,2.25,27,27,0,0,0-2.39,2.62,32.87,32.87,0,0,0-3.82,6.05,44.12,44.12,0,0,0-4.16,13.86,51.77,51.77,0,0,0,3.95,28.7l-.89.44a46.88,46.88,0,0,1-4.77-14.28,53.19,53.19,0,0,1-.43-15.12,46.32,46.32,0,0,1,4-14.67,31,31,0,0,1,9.52-12.14,19.43,19.43,0,0,1,4.29-2.42,18.24,18.24,0,0,1,11-1.05c.4.09.8.19,1.19.3a24.16,24.16,0,0,1,11.85,8.32C276.65,405.74,279.3,416.32,279.05,426.43Z" transform="translate(-58.24 -285.52)"/><path class="cls-1" d="M271.54,449.49a3.22,3.22,0,0,1-.82-.62c0-.09,0-.11.11-.14a1.05,1.05,0,0,1,.36,0,4.58,4.58,0,0,1,.66.17l.89.47a4.45,4.45,0,0,1,.51.46.68.68,0,0,1,.2.29c0,.07.05.14,0,.16a3.29,3.29,0,0,1-1-.33Z" transform="translate(-58.24 -285.52)"/><path class="cls-1" d="M282.42,451.42l-.28,1-13.28-3.1a67.06,67.06,0,0,0-13.34-2,61.06,61.06,0,0,0-6.73.35l-3.39.31c-1.1.11-2.2.34-3.3.56a116.18,116.18,0,0,0-13,3.84l-.35-.94c1.44-.56,2.88-1.1,4.34-1.61.77-.28,1.54-.55,2.32-.81,2.11-.7,4.24-1.33,6.41-1.85.82-.18,1.64-.36,2.47-.5h0l1-.14,2.53-.28.88-.1a54.44,54.44,0,0,1,6.91-.43,64.42,64.42,0,0,1,13.67,2c.95.22,1.9.46,2.85.7l1.07.28Q277.83,449.89,282.42,451.42Z" transform="translate(-58.24 -285.52)"/><path class="cls-4" d="M245.23,446.52l-1,.14a6.63,6.63,0,0,0,1.18.08,6.34,6.34,0,0,0,2.31-.5Z" transform="translate(-58.24 -285.52)"/><path class="cls-1" d="M303.51,445.78a1.18,1.18,0,0,1-.35.53l-.22.21-.88.48a1.53,1.53,0,0,1-.93.06c-.14-.07-.16-.21-.19-.34a1,1,0,0,1,0-.45v0a2.19,2.19,0,0,1,.36-.62l.89-.45a2.08,2.08,0,0,1,.71.06,1,1,0,0,1,.41.2C303.44,445.54,303.54,445.62,303.51,445.78Z" transform="translate(-58.24 -285.52)"/><path class="cls-1" d="M346.48,423.46v.06l-.05,1.25-.08,1.31c-.06.87-.15,1.74-.25,2.6-.2,1.73-.49,3.46-.85,5.16a45.8,45.8,0,0,1-1.39,5c-.44,1.24-.91,2.48-1.43,3.69q-.23.53-.48,1.05a.42.42,0,0,1,0,.1l-.36-.16-.55-.25c.11-.26.21-.52.31-.78.51-1.32.95-2.67,1.36-4a46.81,46.81,0,0,0,1.17-4.95c.29-1.67.51-3.35.65-5,.07-.84.12-1.69.14-2.53l0-1.27v-1.33a64.24,64.24,0,0,0-.57-7.24,44,44,0,0,0-1.6-7.1,37.85,37.85,0,0,0-6.67-12.73,30,30,0,0,0-2.43-2.61,28.89,28.89,0,0,0-2.74-2.22,10.77,10.77,0,0,0-1.5-.89c-.51-.27-1-.58-1.54-.82l-.24-.1a15.76,15.76,0,0,0-10.2-.79,17.34,17.34,0,0,0-5.85,2.79,31.85,31.85,0,0,0-2.67,2.28,28.26,28.26,0,0,0-2.36,2.65,33.94,33.94,0,0,0-3.73,6.08,39.62,39.62,0,0,0-2.58,6.73c-.17.58-.32,1.18-.48,1.77s-.28,1.13-.41,1.74c-.25,1.19-.4,2.39-.61,3.58a55.44,55.44,0,0,0-.1,14.56,49.85,49.85,0,0,0,3.84,14.11l-.89.45h0a49.9,49.9,0,0,1-5.41-29.43,45,45,0,0,1,4.13-14.71,31,31,0,0,1,9.66-12.06,20.66,20.66,0,0,1,2.58-1.61,18.34,18.34,0,0,1,12.63-1.72,20.14,20.14,0,0,1,6.6,2.84,26.44,26.44,0,0,1,6.25,5.81C344.13,403,346.69,413.41,346.48,423.46Z" transform="translate(-58.24 -285.52)"/><path class="cls-1" d="M350.92,443.47l-.12,1c-1.55,0-3.08-.14-4.61-.27s-2.84-.3-4.24-.58l-.33-.06.07-1h.74c1.3,0,2.59.15,3.89.27C347.86,443,349.4,443.18,350.92,443.47Z" transform="translate(-58.24 -285.52)"/><path class="cls-1" d="M341.69,442.56l-.07,1h-.07c-1.73-.1-3.46-.17-5.18-.18a27.14,27.14,0,0,0-5.13.36,6.58,6.58,0,0,0-2.27.79,12.12,12.12,0,0,1-2.47,1.23,32.2,32.2,0,0,1-5.26,1.21,71.74,71.74,0,0,1-10.63.78,96.31,96.31,0,0,1-10.6-.5l.08-1H301c.72,0,1.45,0,2.18,0,2.47,0,5,0,7.43,0a83.78,83.78,0,0,0,10.42-.75,32.43,32.43,0,0,0,5-1.12,10.2,10.2,0,0,0,2.27-1.08,8.19,8.19,0,0,1,2.7-.9,25.78,25.78,0,0,1,5.39-.24c1.65.06,3.29.18,4.92.32Z" transform="translate(-58.24 -285.52)"/><path class="cls-2" d="M273.14,448.67c.34-.64.66-1.3,1-1.94.43-.9.94-1.76,1.28-2.7a45.44,45.44,0,0,0,1.95-5.69,53.55,53.55,0,0,0,1.18-5.9c.13-1,.24-2,.32-3L279,428l.06-1.42v-.1c.25-10.11-2.4-20.69-8.93-28.89a24.16,24.16,0,0,0-11.85-8.32,50.07,50.07,0,0,0,9.55-1.8,15.24,15.24,0,0,0,4.49-1.95l-5.48-16.19-17,6.09c-6.51,2.34-18.25,4.61-22.9,4.52s-19.29-1.26-19.29-1.26l23.27,7.65,6.92,2.27a26.27,26.27,0,0,0,8.25,1.42,19.43,19.43,0,0,0-4.29,2.42,31,31,0,0,0-9.52,12.14,46.32,46.32,0,0,0-4,14.67,53.19,53.19,0,0,0,.43,15.12,46.88,46.88,0,0,0,4.77,14.28l.89-.44a51.77,51.77,0,0,1-3.95-28.7,44.12,44.12,0,0,1,4.16-13.86,32.87,32.87,0,0,1,3.82-6.05,27,27,0,0,1,2.39-2.62,31.55,31.55,0,0,1,2.7-2.25,16,16,0,0,1,13-2.83,16.47,16.47,0,0,1,3.22,1.08c.53.24,1,.56,1.52.83a11.17,11.17,0,0,1,1.48.89,29.48,29.48,0,0,1,2.69,2.21,28,28,0,0,1,2.38,2.61,38.65,38.65,0,0,1,6.47,12.68,49.39,49.39,0,0,1,1.56,7c.09.6.17,1.19.23,1.78s.13,1.22.16,1.82c.1,1.15.14,2.39.19,3.54v1.53l0,1.44c0,1-.09,1.91-.18,2.87a50.21,50.21,0,0,1-.78,5.71,45.82,45.82,0,0,1-1.43,5.59c-.24.93-.65,1.81-1,2.72-.29.73-.54,1.48-.85,2.2-.95-.24-1.9-.48-2.85-.7a64.42,64.42,0,0,0-13.67-2,54.44,54.44,0,0,0-6.91.43l-.88.1c4.65-1.89,8-9,7.73-17.42-.28-9.73-5.24-17.51-11.06-17.36s-10.35,8.19-10.07,17.92c.26,9.07,4.59,16.43,9.9,17.28-.83.14-1.65.32-2.47.5-2.17.52-4.3,1.15-6.41,1.85a1,1,0,0,0,.09-.17,1,1,0,0,0,.1-.48.4.4,0,0,0-.14-.34c-.14-.06-.41-.06-1.08.14l-.89.45c-.55.42-.7.65-.73.81s.11.23.22.33a.41.41,0,0,0,.11.07c-1.46.51-2.9,1.05-4.34,1.61l.35.94a116.18,116.18,0,0,1,13-3.84c1.1-.22,2.2-.45,3.3-.56l3.39-.31a61.06,61.06,0,0,1,6.73-.35,67.06,67.06,0,0,1,13.34,2l13.28,3.1.28-1Q277.83,449.88,273.14,448.67Zm-27-17.31c1.39,0,2.53,1.5,2.54,3.37s-1.09,3.41-2.47,3.42-2.53-1.5-2.55-3.37S244.7,431.37,246.09,431.36Z" transform="translate(-58.24 -285.52)"/><path class="cls-2" d="M330.25,427c-.77-9.71-6.12-17.25-11.92-16.84s-9.94,8.65-9.17,18.36,6.12,17.25,11.95,16.83S331,436.75,330.25,427Zm-11.58,6.49c-.11-1.87.92-3.45,2.31-3.53s2.6,1.39,2.71,3.26-.92,3.45-2.3,3.52S318.78,435.4,318.67,433.53Z" transform="translate(-58.24 -285.52)"/><path class="cls-2" d="M342.43,442.57c.52-1.21,1-2.45,1.43-3.69a45.8,45.8,0,0,0,1.39-5c.36-1.7.65-3.43.85-5.16.1-.86.19-1.73.25-2.6l.08-1.31.05-1.25v-.06c.21-10-2.35-20.49-8.7-28.71a26.44,26.44,0,0,0-6.25-5.81c1.1-.27,2.3-.62,3.57-1,10.6-3.31,25.9-10.14,25.9-10.14s-14.47,2.3-19.5,2-7.7-.77-15.74-3-17.51-7.25-17.51-7.25l-3.91,16s2.55.89,6.19,1.87h0l1.76.45a20.66,20.66,0,0,0-2.58,1.61,31,31,0,0,0-9.66,12.06,45,45,0,0,0-4.13,14.71,49.9,49.9,0,0,0,5.41,29.43h0a2.19,2.19,0,0,0-.36.62v0h-.89l-.08,1a96.31,96.31,0,0,0,10.6.5,71.74,71.74,0,0,0,10.63-.78,32.2,32.2,0,0,0,5.26-1.21,12.12,12.12,0,0,0,2.47-1.23,6.58,6.58,0,0,1,2.27-.79,27.14,27.14,0,0,1,5.13-.36c1.72,0,3.45.08,5.18.18l.36.16a.42.42,0,0,0,0-.1c1.4.28,2.82.43,4.24.58s3.06.26,4.61.27l.12-1c-1.52-.29-3.06-.46-4.6-.63C345,442.72,343.73,442.6,342.43,442.57ZM331,442.45a8.19,8.19,0,0,0-2.7.9,10.2,10.2,0,0,1-2.27,1.08,32.43,32.43,0,0,1-5,1.12,83.78,83.78,0,0,1-10.42.75c-2.47,0-5,.05-7.43,0a1.18,1.18,0,0,0,.35-.53c0-.16-.07-.24-.15-.34a1,1,0,0,0-.41-.2,2.08,2.08,0,0,0-.71-.06,49.85,49.85,0,0,1-3.84-14.11,55.44,55.44,0,0,1,.1-14.56c.21-1.19.36-2.39.61-3.58.13-.61.27-1.16.41-1.74s.31-1.19.48-1.77a39.62,39.62,0,0,1,2.58-6.73,33.94,33.94,0,0,1,3.73-6.08,28.26,28.26,0,0,1,2.36-2.65,31.85,31.85,0,0,1,2.67-2.28,17.34,17.34,0,0,1,5.85-2.79,41.29,41.29,0,0,0,10.2.79l.24.1c.54.24,1,.55,1.54.82a10.77,10.77,0,0,1,1.5.89,28.89,28.89,0,0,1,2.74,2.22,30,30,0,0,1,2.43,2.61,37.85,37.85,0,0,1,6.67,12.73,44,44,0,0,1,1.6,7.1,64.24,64.24,0,0,1,.57,7.24v1.33l0,1.27c0,.84-.07,1.69-.14,2.53-.14,1.69-.36,3.37-.65,5a46.81,46.81,0,0,1-1.17,4.95c-.41,1.35-.85,2.7-1.36,4-1.63-.14-3.27-.26-4.92-.32A25.78,25.78,0,0,0,331,442.45Z" transform="translate(-58.24 -285.52)"/><path class="cls-6" d="M255.49,428.82c-.28-9.73-5.24-17.51-11.06-17.36s-10.35,8.19-10.07,17.92c.26,9.07,4.59,16.43,9.9,17.28h0l1-.14,2.53-.28C252.41,444.35,255.73,437.23,255.49,428.82Zm-9.61,16.51c-3.63,0-6.61-4.08-6.66-9.16s2.84-9.25,6.47-9.28,6.59,4.07,6.64,9.16S249.49,445.29,245.88,445.33Z" transform="translate(-58.24 -285.52)"/><path class="cls-1" d="M245.69,426.89c-3.63,0-6.52,4.19-6.47,9.28s3,9.19,6.66,9.16,6.5-4.2,6.45-9.28S249.3,426.85,245.69,426.89Zm.47,11.26c-1.39,0-2.53-1.5-2.55-3.37s1.09-3.41,2.48-3.42,2.53,1.5,2.54,3.37S247.54,438.14,246.16,438.15Z" transform="translate(-58.24 -285.52)"/><path class="cls-6" d="M330.25,427c-.77-9.71-6.12-17.25-11.92-16.84s-9.94,8.65-9.17,18.36,6.12,17.25,11.95,16.83S331,436.75,330.25,427ZM321.47,444c-3.63.2-6.8-3.76-7.11-8.84s2.38-9.37,6-9.57,6.78,3.77,7.09,8.85S325.07,443.77,321.47,444Z" transform="translate(-58.24 -285.52)"/><path class="cls-1" d="M327.45,434.4c-.31-5.08-3.49-9-7.09-8.85s-6.3,4.49-6,9.57,3.48,9,7.11,8.84S327.75,439.48,327.45,434.4Zm-6.06,2.38c-1.39.08-2.61-1.38-2.72-3.25s.92-3.45,2.31-3.53,2.6,1.39,2.71,3.26S322.77,436.71,321.39,436.78Z" transform="translate(-58.24 -285.52)"/><path class="cls-7" d="M431.26,440.3a108.65,108.65,0,0,0-1.61-19.65c-.45-3.27-1.38-6.43-2.15-9.63-.43-1.58-1-3.12-1.51-4.69l-.77-2.34c-.28-.77-.63-1.52-.94-2.28l-1.91-4.54-2.25-4.39c-.39-.72-.72-1.48-1.16-2.18l-1.3-2.1-1.29-2.1a21.46,21.46,0,0,0-1.35-2.06l-2.89-4-.73-1-.8-.94L409,376.51c-2.05-2.59-4.44-4.87-6.73-7.25a124.53,124.53,0,0,0-26.87-19.4,29.41,29.41,0,0,1,3.53,6.77l.7,1.91-2-.68h0c-8.3-2.77-16.49-5.81-24.72-8.6-4.11-1.39-8.22-2.73-12.37-3.87-2.08-.57-4.17-1.1-6.26-1.55-1.26-.27-2.56-.53-3.83-.72a104.84,104.84,0,0,0,7.79,7.21c3.08,2.61,6.23,5.16,9.43,7.62l1.43,1.1-1.69.63h0a16.78,16.78,0,0,1-3.72.8,28.3,28.3,0,0,1-3.68.14,38.14,38.14,0,0,1-7.23-.91,62,62,0,0,1-13.54-4.93,99.55,99.55,0,0,0-12.88-5c-2.2-.65-4.42-1.22-6.65-1.67-1.12-.21-2.24-.41-3.35-.54s-2.19-.23-3.12-.25c-4.59.91-9.25,2-13.77,3.26a82.85,82.85,0,0,0-13.34,4.78,115.65,115.65,0,0,0-12.35,7.2c-4,2.59-8,5.36-11.92,8.15l-4,2.83,2.48-4.11h0c2.75-4.71,5.63-9.31,8.7-13.81,1.55-2.25,3.15-4.46,4.87-6.61.86-1.07,1.76-2.11,2.72-3.13s2-1.93,3-2.83c1.44-1.29,2.94-2.55,4.49-3.74l-5.24-.14c-.69,0-1.36,0-2,0-.32,0-.64,0-1,0l-1,.12a25.7,25.7,0,0,0-3.84.8A47.45,47.45,0,0,0,243.7,343a68,68,0,0,0-7,3.89l-2.15,1.39.33-1.28a217.7,217.7,0,0,0-28.59,18.41l-3.9,3.06-3.7,3.27-1.85,1.64c-.61.55-1.16,1.16-1.74,1.74l-3.45,3.52c-1.09,1.22-2.12,2.5-3.18,3.74l-1.58,1.88c-.49.65-.95,1.33-1.43,2-.94,1.34-1.91,2.66-2.83,4l-2.49,4.22c-.4.71-.86,1.39-1.21,2.13l-1.06,2.21c-.69,1.48-1.47,2.91-2.08,4.43-1.13,3.07-2.49,6.05-3.33,9.23-.46,1.57-1,3.12-1.4,4.71L170,422l-.56,2.4c-.16.81-.27,1.63-.41,2.44l-.8,4.88c-.31,1.62-.4,3.28-.61,4.92l-.53,4.93a88.42,88.42,0,0,0-.25,9.76,81.2,81.2,0,0,0,2.78,18.47c.64-.4,1.27-.79,1.92-1.17l.08-.05.07,0a23.35,23.35,0,0,1,4.55-1.07,12,12,0,0,1,4.77.23,6.36,6.36,0,0,1,3.95,2.88,5.23,5.23,0,0,1,.7,2.42,3.58,3.58,0,0,1-.78,2.47c-1.51,2.2-3.12,4.31-4.72,6.44L177.67,485l-1.24,1.56-.2.25q1.43,2.6,3,5.08l6.33,3.27c2.52,1.35,5,2.71,7.52,4.1.49.26,1,.53,1.45.81q2.47,1.37,4.92,2.78c1.13.64,2.3,1.29,3.38,1.81a9,9,0,0,0,1.67.64l1.9.55a11.92,11.92,0,0,0,3.6.56,8.9,8.9,0,0,0,3.56-.7l.16-.07.06,0a9.38,9.38,0,0,0,4.48-3.13,11.92,11.92,0,0,0,1.43-2.34l1.29-2.73c.88-1.81,1.73-3.59,2.46-5.39a35.85,35.85,0,0,0,1.83-5.47,23.5,23.5,0,0,0,.77-5.56,21.32,21.32,0,0,0-.66-5.47,56.71,56.71,0,0,0-4.19-10.87h0l0-.08,0-.05a8.19,8.19,0,0,1-1-2.65,7.09,7.09,0,0,1,0-3,5.15,5.15,0,0,1,.56-1.56,4.36,4.36,0,0,1,1.26-1.43,5.21,5.21,0,0,1,3.41-.78,17.51,17.51,0,0,1,2.8.49c.87.2,1.75.45,2.48.6l.52.09a5.87,5.87,0,0,1,.82.09,4.16,4.16,0,0,1,1,.39l.61.34,2.27,1.29c.75.43,1.48.81,2.33,1.39a8.52,8.52,0,0,1,1.17.88,8.89,8.89,0,0,1,1.05,1,20,20,0,0,1,3.3,4.5,53.87,53.87,0,0,1,4,9.91l1.56,5c.55,1.6,1.12,3.3,1.69,4.88a15.72,15.72,0,0,0,2.16,4.25,10.19,10.19,0,0,0,3.56,2.86l1.09.52,1.11.4c.77.26,1.62.48,2.42.72,1.66.43,3.33.86,5,1.25,3.36.79,6.75,1.53,10.15,2.26l20.38,4.41,5.1,1.17c1.72.43,3.35.78,5.19,1.41.23.09.48.17.68.26l.61.3c.4.2.8.41,1.2.64a14.19,14.19,0,0,1,2.32,1.61c.72.63,1.32,1.3,1.92,1.92l.44.47a5.49,5.49,0,0,1,.48.53,5.21,5.21,0,0,1,.85,1.34,10.73,10.73,0,0,1,.78,5.69,9.45,9.45,0,0,1-.75,2.82,4.94,4.94,0,0,1-.89,1.37l-.31.31-.26.22c-.18.14-.35.29-.56.44a3.91,3.91,0,0,1-.74.44,3.68,3.68,0,0,1-.87.26c-.51.08-.91.11-1.33.17-.83.11-1.66.26-2.49.43-.42.09-.83.18-1.33.24l-.72.1-.69,0a26.86,26.86,0,0,1-2.7-.05c-3.53-.24-7-.76-10.43-1.34-3.19-.56-6.36-1.17-9.52-1.86a18.38,18.38,0,0,1,.05,2.57,13.76,13.76,0,0,1-.65,3.49,7.84,7.84,0,0,1-2.05,3,5.78,5.78,0,0,1-3.36,1.61l-3.23,0a5.72,5.72,0,0,1,.5,3.26,4.71,4.71,0,0,1-.84,2,10.57,10.57,0,0,1-1.4,1.5c-.4.35-.81.69-1.23,1a22.73,22.73,0,0,1-6.53,6.94,219.86,219.86,0,0,0,28,3.64c26.38,1.08,53.15-4.4,76.56-16.63a128.5,128.5,0,0,0,16.82-10.39,122.29,122.29,0,0,0,15-12.8c.93-.94,1.84-1.9,2.74-2.87a107.49,107.49,0,0,0,19.67-29.33,98.73,98.73,0,0,0,5.54-16,95.31,95.31,0,0,0,2-10.18l-.32,0c.14-.27.28-.53.43-.79A90.94,90.94,0,0,0,431.26,440.3Zm-175.74,7a61.06,61.06,0,0,0-6.73.35l-3.39.31c-1.1.11-2.2.34-3.3.56a116.18,116.18,0,0,0-13,3.84l-.35-.94c1.44-.56,2.88-1.1,4.34-1.61a.41.41,0,0,1-.11-.07c-.11-.1-.22-.18-.22-.33s.18-.39.73-.81l.89-.45-.89.44a46.88,46.88,0,0,1-4.77-14.28,53.19,53.19,0,0,1-.43-15.12,46.32,46.32,0,0,1,4-14.67,31,31,0,0,1,9.52-12.14,19.43,19.43,0,0,1,4.29-2.42,26.27,26.27,0,0,1-8.25-1.42l-6.92-2.27-23.27-7.65s14.65,1.18,19.29,1.26,16.39-2.18,22.9-4.52l17-6.09,5.48,16.19a15.24,15.24,0,0,1-4.49,1.95,50.07,50.07,0,0,1-9.55,1.8,24.16,24.16,0,0,1,11.85,8.32c6.53,8.2,9.18,18.78,8.93,28.89v.1L279,428l-.11,1.5c-.08,1-.19,2-.32,3a53.55,53.55,0,0,1-1.18,5.9,45.44,45.44,0,0,1-1.95,5.69c-.34.94-.85,1.8-1.28,2.7-.34.64-.66,1.3-1,1.94q4.69,1.21,9.28,2.75l-.28,1-13.28-3.1A67.06,67.06,0,0,0,255.52,447.31Zm68.87,37.81a110.27,110.27,0,0,1-13.92-1.32c-4.58-.69-9.12-1.57-13.63-2.59-2.27-.49-4.43-.95-6.53-1.19a30.41,30.41,0,0,0-6.4,0,31.33,31.33,0,0,0-12.59,4l-.67-.89a23.14,23.14,0,0,1,12.56-7.84,26.24,26.24,0,0,1,7.45-.73,44.17,44.17,0,0,1,7.19,1q6.82,1.53,13.54,3.59A112,112,0,0,1,324.63,484Zm13.39-90.37c6.35,8.22,8.91,18.66,8.7,28.71v.06l-.05,1.25-.08,1.31c-.06.87-.15,1.74-.25,2.6-.2,1.73-.49,3.46-.85,5.16a45.8,45.8,0,0,1-1.39,5c-.44,1.24-.91,2.48-1.43,3.69,1.3,0,2.59.15,3.89.27,1.54.17,3.08.34,4.6.63l-.12,1c-1.55,0-3.08-.14-4.61-.27s-2.84-.3-4.24-.58a.42.42,0,0,1,0,.1l-.36-.16c-1.73-.1-3.46-.17-5.18-.18a27.14,27.14,0,0,0-5.13.36,6.58,6.58,0,0,0-2.27.79,12.12,12.12,0,0,1-2.47,1.23,32.2,32.2,0,0,1-5.26,1.21,71.74,71.74,0,0,1-10.63.78,96.31,96.31,0,0,1-10.6-.5l.08-1H301v0a2.19,2.19,0,0,1,.36-.62h0a49.9,49.9,0,0,1-5.41-29.43,45,45,0,0,1,4.13-14.71,31,31,0,0,1,9.66-12.06,20.66,20.66,0,0,1,2.58-1.61l-1.76-.45h0c-3.64-1-6.19-1.87-6.19-1.87l3.91-16s9.48,5,17.51,7.25,10.72,2.65,15.74,3,19.5-2,19.5-2-15.3,6.83-25.9,10.14c-1.27.41-2.47.76-3.57,1A26.44,26.44,0,0,1,337.78,394.75Z" transform="translate(-58.24 -285.52)"/><path class="cls-5" d="M248.63,434.73c0,1.87-1.09,3.41-2.47,3.42s-2.53-1.5-2.55-3.37,1.09-3.41,2.48-3.42S248.62,432.86,248.63,434.73Z" transform="translate(-58.24 -285.52)"/><path class="cls-5" d="M276.34,426.33v1.53l0,1.44c0,1-.09,1.91-.18,2.87a50.21,50.21,0,0,1-.78,5.71,45.82,45.82,0,0,1-1.43,5.59c-.24.93-.65,1.81-1,2.72-.29.73-.54,1.48-.85,2.2-.95-.24-1.9-.48-2.85-.7a64.42,64.42,0,0,0-13.67-2,54.44,54.44,0,0,0-6.91.43l-.88.1c4.65-1.89,8-9,7.73-17.42-.28-9.73-5.24-17.51-11.06-17.36s-10.35,8.19-10.07,17.92c.26,9.07,4.59,16.43,9.9,17.28-.83.14-1.65.32-2.47.5-2.17.52-4.3,1.15-6.41,1.85a1,1,0,0,0,.09-.17,1,1,0,0,0,.1-.48.4.4,0,0,0-.14-.34c-.14-.06-.41-.06-1.08.14a51.77,51.77,0,0,1-3.95-28.7,44.12,44.12,0,0,1,4.16-13.86,32.87,32.87,0,0,1,3.82-6.05,27,27,0,0,1,2.39-2.62,31.55,31.55,0,0,1,2.7-2.25,16,16,0,0,1,13-2.83,16.47,16.47,0,0,1,3.22,1.08c.53.24,1,.56,1.52.83a11.17,11.17,0,0,1,1.48.89,29.48,29.48,0,0,1,2.69,2.21,28,28,0,0,1,2.38,2.61,38.65,38.65,0,0,1,6.47,12.68,49.39,49.39,0,0,1,1.56,7c.09.6.17,1.19.23,1.78s.13,1.22.16,1.82C276.25,423.94,276.29,425.18,276.34,426.33Z" transform="translate(-58.24 -285.52)"/><path class="cls-5" d="M344.11,416.15a44,44,0,0,0-1.6-7.1,37.85,37.85,0,0,0-6.67-12.73,30,30,0,0,0-2.43-2.61,28.89,28.89,0,0,0-2.74-2.22,10.77,10.77,0,0,0-1.5-.89c-.51-.27-1-.58-1.54-.82l-.24-.1a41.29,41.29,0,0,1-10.2-.79,17.34,17.34,0,0,0-5.85,2.79,31.85,31.85,0,0,0-2.67,2.28,28.26,28.26,0,0,0-2.36,2.65,33.94,33.94,0,0,0-3.73,6.08,39.62,39.62,0,0,0-2.58,6.73c-.17.58-.32,1.18-.48,1.77s-.28,1.13-.41,1.74c-.25,1.19-.4,2.39-.61,3.58a55.44,55.44,0,0,0-.1,14.56,49.85,49.85,0,0,0,3.84,14.11,2.08,2.08,0,0,1,.71.06,1,1,0,0,1,.41.2c.08.1.18.18.15.34a1.18,1.18,0,0,1-.35.53c2.47,0,5,0,7.43,0a83.78,83.78,0,0,0,10.42-.75,32.43,32.43,0,0,0,5-1.12,10.2,10.2,0,0,0,2.27-1.08,8.19,8.19,0,0,1,2.7-.9,25.78,25.78,0,0,1,5.39-.24c1.65.06,3.29.18,4.92.32.51-1.32.95-2.67,1.36-4a46.81,46.81,0,0,0,1.17-4.95c.29-1.67.51-3.35.65-5,.07-.84.12-1.69.14-2.53l0-1.27v-1.33A64.24,64.24,0,0,0,344.11,416.15Zm-23,29.24c-5.83.42-11.18-7.12-11.95-16.83s3.33-17.93,9.17-18.36,11.15,7.13,11.92,16.84S326.92,445,321.11,445.39Z" transform="translate(-58.24 -285.52)"/><path class="cls-5" d="M323.69,433.26c.11,1.87-.92,3.45-2.3,3.52s-2.61-1.38-2.72-3.25.92-3.45,2.31-3.53S323.58,431.39,323.69,433.26Z" transform="translate(-58.24 -285.52)"/><path class="cls-1" d="M324.63,484l-.24,1.13a110.27,110.27,0,0,1-13.92-1.32c-4.58-.69-9.12-1.57-13.63-2.59-2.27-.49-4.43-.95-6.53-1.19a30.41,30.41,0,0,0-6.4,0,31.33,31.33,0,0,0-12.59,4l-.67-.89a23.14,23.14,0,0,1,12.56-7.84,26.24,26.24,0,0,1,7.45-.73,44.17,44.17,0,0,1,7.19,1q6.82,1.53,13.54,3.59A112,112,0,0,1,324.63,484Z" transform="translate(-58.24 -285.52)"/><path class="cls-1" d="M337.53,550.58l0,1.42v.31l-1,30.67-.14,4-.07,2-.11,1-.09.88,0,.26c0,.21-.06.41-.1.62s-.1.58-.16.89a34.92,34.92,0,0,1-1.77,6.52,19.57,19.57,0,0,1-4.29,7,7.68,7.68,0,0,1-3.67,2,5.45,5.45,0,0,1-4.14-.92c-2.42-1.72-3.64-4.48-4.47-7.13a24.05,24.05,0,0,1-.75-3.15,6.5,6.5,0,0,1-.14-.9c-.06-.34-.11-.69-.16-1s0-.55-.07-.83c-.08-.77-.13-1.56-.16-2.36-.11-2.8.22-5.51.23-8.2l.23-8.09c.2-6.13.4-12.3.65-18.45,0-.12,0-.22,0-.34.14-3.83,0-.81.08-2.58,0-.31,0-.77.08-1.44l1.88-.67c0,1,0,1.58,0,1.87,0,.93,0-.83-.07,2.51,0,.1,0,.22,0,.32v0c-.13,6.31-.31,12.61-.5,18.91l-.27,8.1c0,2.7-.34,5.37-.25,8,0,.88.08,1.74.17,2.62,0,.24.05.5.09.75a24,24,0,0,0,.88,4.26c.72,2.39,1.86,4.75,3.59,6a3.67,3.67,0,0,0,2.77.64,5.79,5.79,0,0,0,2.74-1.52,17.52,17.52,0,0,0,3.81-6.24,35.33,35.33,0,0,0,1.91-7.49l.23-1.93.09-2,.15-4,1.24-30v-.31l.06-1.57,0-.43,1.46.07Z" transform="translate(-58.24 -285.52)"/><path class="cls-1" d="M410.81,635.43a15.56,15.56,0,0,1-1.13,3.6,17.83,17.83,0,0,1-5.5,6.67c-4.37,3.31-9.31,4.86-14.17,5.87-9.81,1.85-19.69,1.23-29.29-.56a102.57,102.57,0,0,1-27.9-9.56,80.11,80.11,0,0,1-12.74-8.19,48.43,48.43,0,0,1-10.74-11.54A26.44,26.44,0,0,1,306,614a16.32,16.32,0,0,1-.06-7.26,12.52,12.52,0,0,1,.45-1.59,15.58,15.58,0,0,1,4.79-6.79,20.67,20.67,0,0,1,5.23-3.2c.47-.21.93-.4,1.39-.59l.31.88.24.73c-.55.29-1.1.58-1.64.91a21.09,21.09,0,0,0-4.19,3.13,13.27,13.27,0,0,0-3.68,5.91,12.2,12.2,0,0,0-.42,3.46,15.09,15.09,0,0,0,.52,3.48,22,22,0,0,0,3.15,6.45,45.12,45.12,0,0,0,10.22,10.19,78.94,78.94,0,0,0,12.26,7.48c2.8,1.39,5.65,2.65,8.56,3.75.56.25,1.11.45,1.67.64a108.45,108.45,0,0,0,16.65,4.67c9.22,1.77,18.72,2.34,27.84.69,4.5-.88,9-2.29,12.6-5a13.36,13.36,0,0,0,4.22-4.92,11.36,11.36,0,0,0,.91-6.41,20.94,20.94,0,0,0-4-9.16l-.11-.14a31.18,31.18,0,0,0-2.51-3.1,53.57,53.57,0,0,0-7.7-7c-.77-.59-1.54-1.14-2.34-1.69-.34-.24-.69-.46-1-.71l-1.53-1-.17-.1a.08.08,0,0,0-.06,0,94.23,94.23,0,0,0-17.06-8.35c-.77-.29-1.54-.59-2.33-.84-.37-.14-.72-.28-1.11-.4h0c-1.05-.36-2.11-.71-3.18-1h0c-.2-.09-.42-.14-.62-.21l-.52-.16c-.54-.15-1.06-.31-1.6-.44-.36-.11-.7-.21-1.05-.3h0c-1-.27-2-.51-3-.75h0c-.57-.14-1.14-.28-1.71-.4-2.14-.46-4.3-.86-6.45-1.17h0a87,87,0,0,0-13-1h-.64l0-.89,0-.83,1-.05A91.8,91.8,0,0,1,363.86,594a.14.14,0,0,1,.1,0q2.49.63,4.94,1.43a.94.94,0,0,1,.32.11,92,92,0,0,1,21.78,10,60.78,60.78,0,0,1,11.94,9.68,36.74,36.74,0,0,1,4.92,6.44,23.36,23.36,0,0,1,2.9,7.37c.06.26.11.53.15.79A16.6,16.6,0,0,1,410.81,635.43Z" transform="translate(-58.24 -285.52)"/><path class="cls-1" d="M336,550.94l-.06,1.57v.31l-.14,0-1.05.33a117.19,117.19,0,0,1-15.46,3.65c0-.1,0-.22,0-.32.07-3.34.07-1.58.07-2.51A156.14,156.14,0,0,0,336,550.94Z" transform="translate(-58.24 -285.52)"/><path class="cls-1" d="M335.9,552.82l-1.24,30-.15,4-.09,2-.23,1.93a35.33,35.33,0,0,1-1.91,7.49,17.52,17.52,0,0,1-3.81,6.24,5.79,5.79,0,0,1-2.74,1.52,3.67,3.67,0,0,1-2.77-.64c-1.73-1.21-2.87-3.57-3.59-6a24,24,0,0,1-.88-4.26l.14-.07-.23-.68c-.09-.88-.14-1.74-.17-2.62-.09-2.59.23-5.26.25-8l.27-8.1c.19-6.3.37-12.6.5-18.91v0a117.19,117.19,0,0,0,15.46-3.65l1.05-.33Z" transform="translate(-58.24 -285.52)"/><path class="cls-5" d="M411.76,642.77a19,19,0,0,1-7.45,14.35,34.53,34.53,0,0,1-14.74,6.36c-10.6,2-21.61,1-32.13-1.78a98,98,0,0,1-29.95-13.64,71.34,71.34,0,0,1-12.74-11,44.25,44.25,0,0,1-9.06-14.5,25.28,25.28,0,0,1-1.4-8.51,19.41,19.41,0,0,1,1.65-7.32A16.32,16.32,0,0,0,306,614a26.44,26.44,0,0,0,3.34,7.77,48.43,48.43,0,0,0,10.74,11.54,80.11,80.11,0,0,0,12.74,8.19,102.57,102.57,0,0,0,27.9,9.56c9.6,1.79,19.48,2.41,29.29.56,4.86-1,9.8-2.56,14.17-5.87a17.83,17.83,0,0,0,5.5-6.67,15.56,15.56,0,0,0,1.13-3.6A24,24,0,0,1,411.76,642.77Z" transform="translate(-58.24 -285.52)"/><path class="cls-1" d="M414.05,642.87a21.45,21.45,0,0,1-2.46,9.34,22.24,22.24,0,0,1-5.91,7A36.75,36.75,0,0,1,390,666.15c-11.06,2.15-22.35,1.1-33.14-1.68a96.4,96.4,0,0,1-30.73-14A74.08,74.08,0,0,1,313,639a45.6,45.6,0,0,1-9.44-15.59,27.7,27.7,0,0,1-1.42-9.49,21.65,21.65,0,0,1,2.51-9.27,24.91,24.91,0,0,1,11.71-10.37l1.75-.75.31.93.23.68-.14.07a2.25,2.25,0,0,0-.38.19,15.52,15.52,0,0,0-1.54.74,22.93,22.93,0,0,0-10.21,9.67,7.85,7.85,0,0,0-.42.88,19.41,19.41,0,0,0-1.65,7.32,25.28,25.28,0,0,0,1.4,8.51,44.25,44.25,0,0,0,9.06,14.5,71.34,71.34,0,0,0,12.74,11,98,98,0,0,0,29.95,13.64c10.52,2.74,21.53,3.79,32.13,1.78a34.53,34.53,0,0,0,14.74-6.36,19,19,0,0,0,7.45-14.35,24,24,0,0,0-.95-7.34,34.68,34.68,0,0,0-4.12-8.95A47.63,47.63,0,0,0,403,621.4l-.11-.14a63.8,63.8,0,0,0-7.46-7.6c-1-.83-2-1.65-3-2.43-.74-.58-1.49-1.15-2.25-1.72h0c-.8-.57-1.6-1.14-2.42-1.69l-.17-.1a.08.08,0,0,0-.06,0,94.32,94.32,0,0,0-16.91-9c-1.32-.55-2.66-1.06-4-1.56-.59-.21-1.17-.42-1.78-.62h0c-.74-.26-1.46-.5-2.2-.73h0c-1.38-.43-2.76-.84-4.16-1.2h0c-1.17-.31-2.34-.59-3.51-.85-1.45-.33-2.9-.62-4.36-.86a74.07,74.07,0,0,0-14.63-1.1,5.75,5.75,0,0,0-.83,0l-.57,0-.07-1.73c.57,0,1.14,0,1.7,0a84.1,84.1,0,0,1,27.67,4,.14.14,0,0,1,.1,0c1.07.33,2.17.67,3.25,1.05l.87.33s0,0,0,0c.65.22,1.3.47,1.93.71a90.2,90.2,0,0,1,26.72,15.62A60.49,60.49,0,0,1,408.51,625c.8,1.29,1.57,2.64,2.25,4a36.68,36.68,0,0,1,1.8,4.32A27.39,27.39,0,0,1,414.05,642.87Z" transform="translate(-58.24 -285.52)"/><path class="cls-5" d="M406.11,637a13.36,13.36,0,0,1-4.22,4.92c-3.59,2.71-8.1,4.12-12.6,5-9.12,1.65-18.62,1.08-27.84-.69a108.45,108.45,0,0,1-16.65-4.67c1-1.65,2-3.31,3-4.92,1.46-2.36,3-4.69,4.59-6.91a55.75,55.75,0,0,1,5.08-6.27c.46-.47.94-.88,1.4-1.31l1.54-1.26c1-.83,2.11-1.58,3.18-2.29a27.9,27.9,0,0,1,6.85-3.29c1.2-.4,2.54-.88,3.68-1.22s2.43-.62,3.7-.85c4.82-.87,9.75-1.41,14.64-2,1,.78,2,1.6,3,2.43a63.8,63.8,0,0,1,7.46,7.6l.11.14a20.94,20.94,0,0,1,4,9.16A11.36,11.36,0,0,1,406.11,637Z" transform="translate(-58.24 -285.52)"/><path class="cls-1" d="M393.19,611.15l-.5.05a1.6,1.6,0,0,1-.23,0c-4.89.57-9.82,1.11-14.64,2-1.27.23-2.51.52-3.7.85s-2.48.82-3.68,1.22a27.9,27.9,0,0,0-6.85,3.29c-1.07.71-2.14,1.46-3.18,2.29l-1.54,1.26c-.46.43-.94.84-1.4,1.31a55.75,55.75,0,0,0-5.08,6.27c-1.62,2.22-3.13,4.55-4.59,6.91-1,1.61-2,3.27-3,4.92-.45.76-.9,1.5-1.33,2.26l-1.32-.86c.32-.69.64-1.36,1-2a119.69,119.69,0,0,1,7.37-12.83,49.26,49.26,0,0,1,5.26-6.72c.5-.51,1.05-1,1.57-1.49s1.05-.92,1.59-1.35a38.27,38.27,0,0,1,3.34-2.46,30.71,30.71,0,0,1,7.46-3.46c1.29-.4,2.43-.81,3.8-1.21a32.18,32.18,0,0,1,3.94-.77,125.12,125.12,0,0,1,12.74-1.09h.15l2.76-.09Z" transform="translate(-58.24 -285.52)"/><path class="cls-1" d="M370.22,596.32a1.66,1.66,0,0,0-.18-.19,2,2,0,0,0-.82-.55.94.94,0,0,0-.32-.11,2.4,2.4,0,0,0-.79-.05s0,0,0,0a1.23,1.23,0,0,0-.27,0,7.29,7.29,0,0,0-1.73.48,9.77,9.77,0,0,0-1.22.59h0c-.34.17-.66.36-1,.55h0l-.7.44c-.24.16-.49.33-.72.5a37.23,37.23,0,0,0-3.79,3l0,0c-.21.17-.41.35-.61.54-1.05,1-2.07,2-3.07,3.06,0,0,0,0-.05,0-.5.53-1,1.08-1.47,1.65a20.21,20.21,0,0,0-2,2.81,5,5,0,0,0-.47.93,6,6,0,0,0-.34.81,4.61,4.61,0,0,0-.22,1.15,2.7,2.7,0,0,0,.4,1.55,2.21,2.21,0,0,0,1.23.84,2.9,2.9,0,0,0,1.1.11,7.86,7.86,0,0,0,1.75-.36,21.56,21.56,0,0,0,3.05-1.36,30,30,0,0,0,5.38-3.81,34.82,34.82,0,0,0,4.62-4.91,19.23,19.23,0,0,0,1.92-3,8.46,8.46,0,0,0,.7-1.72c0-.05,0-.09,0-.14a3.36,3.36,0,0,0,.11-.5,5.08,5.08,0,0,0,.08-.74A3,3,0,0,0,370.22,596.32Zm-2.6,3.25a19.74,19.74,0,0,1-1.77,2.48,44.45,44.45,0,0,1-4.36,4.43,49.52,49.52,0,0,1-4.82,3.79,15.36,15.36,0,0,1-2.56,1.41,5.38,5.38,0,0,1-1.23.38,1.56,1.56,0,0,1-.51,0,1.28,1.28,0,0,1,.05-.55,6.9,6.9,0,0,1,.54-1.35,20.5,20.5,0,0,1,1.6-2.56s0,0,0,0l.05-.07a27.82,27.82,0,0,1,4.36-4.58l1.09-.88,0,0a31,31,0,0,1,3.94-2.67,14.31,14.31,0,0,1,2.68-1.18,1.81,1.81,0,0,1,.31-.09h0a4.79,4.79,0,0,1,.94-.17.71.71,0,0,1,.34,0c0-.1,0-.12.08,0s0,0,0,0l-.11,0c0,.09-.05.23-.11.42a.45.45,0,0,1-.06.12A7.76,7.76,0,0,1,367.62,599.57Z" transform="translate(-58.24 -285.52)"/><path class="cls-5" d="M368.16,598.49a7.76,7.76,0,0,1-.54,1.08,19.74,19.74,0,0,1-1.77,2.48,44.45,44.45,0,0,1-4.36,4.43,49.52,49.52,0,0,1-4.82,3.79,15.36,15.36,0,0,1-2.56,1.41,5.38,5.38,0,0,1-1.23.38,1.56,1.56,0,0,1-.51,0,1.28,1.28,0,0,1,.05-.55,6.9,6.9,0,0,1,.54-1.35,20.5,20.5,0,0,1,1.6-2.56s0,0,0,0c.65-.5,1.28-1,1.88-1.57a31.88,31.88,0,0,0,3.62-4l0,0a31,31,0,0,1,3.94-2.67,14.31,14.31,0,0,1,2.68-1.18,1.81,1.81,0,0,1,.31-.09h0C367.44,598.21,367.79,598.35,368.16,598.49Z" transform="translate(-58.24 -285.52)"/><path class="cls-1" d="M362.65,595.78h0a3,3,0,0,0-.32-.76,2.22,2.22,0,0,0-1.85-.84,5.46,5.46,0,0,0-1.54.26c-.15,0-.31.08-.45.14h0a12,12,0,0,0-1.47.62h0c-.26.13-.51.25-.76.39s-.75.43-1.12.67a29.76,29.76,0,0,0-3.05,2.19c-.2.16-.4.31-.58.47a30.61,30.61,0,0,0-4.16,4.27l-.46.62,0,0a13.51,13.51,0,0,0-1.23,2,6.52,6.52,0,0,0-.48,1.16,4.41,4.41,0,0,0-.15.55,3.17,3.17,0,0,0,.35,2.48,2.51,2.51,0,0,0,2.08,1,5.29,5.29,0,0,0,1.65-.26,13.5,13.5,0,0,0,1.85-.77l.87-.49a21.1,21.1,0,0,0,2.79-1.94s0,0,0,0c.65-.5,1.28-1,1.88-1.57a31.88,31.88,0,0,0,3.62-4l0,0,.35-.46a18.27,18.27,0,0,0,1.62-2.69c.12-.27.24-.57.35-.88a7.84,7.84,0,0,0,.2-.77c0-.16.06-.33.08-.54A3.66,3.66,0,0,0,362.65,595.78Zm-4,5.22a28.22,28.22,0,0,1-3.32,3.33c-.13.08-.24.19-.36.27s0,0-.05,0a25.14,25.14,0,0,1-4.06,2.77,11.66,11.66,0,0,1-2.33,1,4.39,4.39,0,0,1-1,.17,1.05,1.05,0,0,1-.4,0,.87.87,0,0,1,0-.43,5.41,5.41,0,0,1,.37-1.12,14.28,14.28,0,0,1,1.39-2.34c.14-.21.29-.41.44-.6a29.83,29.83,0,0,1,3.27-3.57c.21-.2.45-.39.68-.58v0a23,23,0,0,1,3.7-2.67,12.43,12.43,0,0,1,2.38-1A2.65,2.65,0,0,1,360,596h0c.52-.05,1,0,1,.18s.05,0,.05.12a3.5,3.5,0,0,1-.47,1.79,12.78,12.78,0,0,1-1.49,2.31c-.15.2-.34.43-.51.62Z" transform="translate(-58.24 -285.52)"/><path class="cls-5" d="M360.64,598a12.78,12.78,0,0,1-1.49,2.31c-.15.2-.34.43-.51.62l0,0c-.21.17-.41.35-.61.54-1.05,1-2.07,2-3.07,3.06,0,0,0,0-.05,0a25.14,25.14,0,0,1-4.06,2.77,11.66,11.66,0,0,1-2.33,1,4.39,4.39,0,0,1-1,.17,1.05,1.05,0,0,1-.4,0,.87.87,0,0,1,0-.43,5.41,5.41,0,0,1,.37-1.12,14.28,14.28,0,0,1,1.39-2.34c.14-.21.29-.41.44-.6a1.67,1.67,0,0,0,.16-.12,25.09,25.09,0,0,0,3.79-4v0a23,23,0,0,1,3.7-2.67,12.43,12.43,0,0,1,2.38-1A2.65,2.65,0,0,1,360,596h0c.35.09.69.19,1.05.3A3.5,3.5,0,0,1,360.64,598Z" transform="translate(-58.24 -285.52)"/><path class="cls-1" d="M355.27,594.8a2.62,2.62,0,0,0-.32-1.07,1.86,1.86,0,0,0-.11-.19,2.39,2.39,0,0,0-1.79-1,4.86,4.86,0,0,0-1.55.09c-.31.07-.62.15-.91.24a14.93,14.93,0,0,0-1.73.72l0,0h0a24.94,24.94,0,0,0-4.45,3.06,23.18,23.18,0,0,0-3.74,4.19,14.48,14.48,0,0,0-1.45,2.64,6.69,6.69,0,0,0-.43,1.67,3,3,0,0,0,.45,2.18,2.29,2.29,0,0,0,1.8.93,4.64,4.64,0,0,0,1.52-.17,11.77,11.77,0,0,0,2.54-1.08l.08,0a25.22,25.22,0,0,0,4.14-3,1.67,1.67,0,0,0,.16-.12,25.09,25.09,0,0,0,3.79-4v0a14.31,14.31,0,0,0,1.51-2.5,5.17,5.17,0,0,0,.37-1.07,3.15,3.15,0,0,0,.12-.55A3.31,3.31,0,0,0,355.27,594.8Zm-3.37,3.88a23.67,23.67,0,0,1-3.44,3.84c-.52.46-1.06.89-1.61,1.29l0,0a17.07,17.07,0,0,1-2.49,1.54,10.86,10.86,0,0,1-2.21.79c-.71.19-1.46,0-1.43-.14a2.8,2.8,0,0,1,.34-1.51,13.55,13.55,0,0,1,1.29-2.09,27.56,27.56,0,0,1,3.47-3.69,21.3,21.3,0,0,1,4-2.92,10.4,10.4,0,0,1,2.11-.92,1.82,1.82,0,0,1,1.4,0c.13,0,.11.86-.21,1.58a11.13,11.13,0,0,1-1.05,2A1.5,1.5,0,0,0,351.9,598.68Z" transform="translate(-58.24 -285.52)"/><path class="cls-7" d="M390.2,609.51a125.12,125.12,0,0,0-12.74,1.09,32.18,32.18,0,0,0-3.94.77c-1.37.4-2.51.81-3.8,1.21a30.71,30.71,0,0,0-7.46,3.46,38.27,38.27,0,0,0-3.34,2.46c-.54.43-1.06.9-1.59,1.35s-1.07,1-1.57,1.49a49.26,49.26,0,0,0-5.26,6.72,119.69,119.69,0,0,0-7.37,12.83c-2.91-1.1-5.76-2.36-8.56-3.75a78.94,78.94,0,0,1-12.26-7.48,45.12,45.12,0,0,1-10.22-10.19,22,22,0,0,1-3.15-6.45,15.09,15.09,0,0,1-.52-3.48,12.2,12.2,0,0,1,.42-3.46,13.27,13.27,0,0,1,3.68-5.91,21.09,21.09,0,0,1,4.19-3.13,24.05,24.05,0,0,0,.75,3.15c.83,2.65,2.05,5.41,4.47,7.13a5.45,5.45,0,0,0,4.14.92,7.68,7.68,0,0,0,3.67-2,19.57,19.57,0,0,0,4.29-7,34.92,34.92,0,0,0,1.77-6.52,87,87,0,0,1,13,1,24.94,24.94,0,0,0-4.45,3.06,23.18,23.18,0,0,0-3.74,4.19,14.48,14.48,0,0,0-1.45,2.64,6.69,6.69,0,0,0-.43,1.67,3,3,0,0,0,.45,2.18,2.29,2.29,0,0,0,1.8.93,4.64,4.64,0,0,0,1.52-.17,11.77,11.77,0,0,0,2.54-1.08l.08,0a4.41,4.41,0,0,0-.15.55,3.17,3.17,0,0,0,.35,2.48,2.51,2.51,0,0,0,2.08,1,5.29,5.29,0,0,0,1.65-.26,13.5,13.5,0,0,0,1.85-.77,6,6,0,0,0-.34.81,4.61,4.61,0,0,0-.22,1.15,2.7,2.7,0,0,0,.4,1.55,2.21,2.21,0,0,0,1.23.84,2.9,2.9,0,0,0,1.1.11,7.86,7.86,0,0,0,1.75-.36,21.56,21.56,0,0,0,3.05-1.36,30,30,0,0,0,5.38-3.81,34.82,34.82,0,0,0,4.62-4.91,19.23,19.23,0,0,0,1.92-3,8.46,8.46,0,0,0,.7-1.72,94.23,94.23,0,0,1,17.06,8.35.08.08,0,0,1,.06,0l.17.1C388.6,608.37,389.4,608.94,390.2,609.51Z" transform="translate(-58.24 -285.52)"/><path class="cls-5" d="M353.1,596.47a11.13,11.13,0,0,1-1.05,2c-.2.16-.4.31-.58.47a30.61,30.61,0,0,0-4.16,4.27l-.46.62,0,0a17.07,17.07,0,0,1-2.49,1.54,10.86,10.86,0,0,1-2.21.79c-.71.19-1.46,0-1.43-.14a2.8,2.8,0,0,1,.34-1.51,13.55,13.55,0,0,1,1.29-2.09,27.56,27.56,0,0,1,3.47-3.69,21.3,21.3,0,0,1,4-2.92,10.4,10.4,0,0,1,2.11-.92,1.82,1.82,0,0,1,1.4,0C353.44,594.89,353.42,595.75,353.1,596.47Z" transform="translate(-58.24 -285.52)"/><path class="cls-1" d="M281.59,595.15c0,.79-.08,1.58-.15,2.36,0,.28-.05.55-.08.83s-.09.69-.15,1a8.87,8.87,0,0,1-.14.9,24.89,24.89,0,0,1-.76,3.15c-.83,2.65-2.05,5.41-4.46,7.13a5.48,5.48,0,0,1-4.15.91,7.55,7.55,0,0,1-3.66-2,19.54,19.54,0,0,1-4.3-7,35.6,35.6,0,0,1-1.77-6.51c-.06-.31-.12-.6-.15-.9a6.17,6.17,0,0,1-.11-.62l0-.25-.09-.88-.11-1-.08-2-.14-4-.95-30.68,0-.31,0-1.41.33-3,.23-2.08.07-.59.07.53.29,2.29.62,4.76,0,.31,1.23,30,.15,4,.1,2,.23,1.93a34.88,34.88,0,0,0,1.91,7.49,17.5,17.5,0,0,0,3.8,6.24,5.77,5.77,0,0,0,2.74,1.51,3.57,3.57,0,0,0,2.77-.64c1.73-1.2,2.87-3.56,3.59-6a23.92,23.92,0,0,0,.88-4.25c.05-.26.06-.52.09-.76.1-.88.14-1.74.17-2.62.1-2.58-.23-5.25-.24-7.95L279,579c-.19-6.3-.37-12.61-.49-18.91v0a1.77,1.77,0,0,1,0-.33c0-2.06-.08-4.12-.06-5.69,0-1.77.1-2.92.34-2.75l1.52,0a14.4,14.4,0,0,0-.05,3c.05,1.62.13,3.69.21,5.77,0,.12,0,.23,0,.35.25,6.15.45,12.31.65,18.45l.23,8.09C281.38,589.64,281.7,592.34,281.59,595.15Z" transform="translate(-58.24 -285.52)"/><path class="cls-1" d="M291.77,617.18a26.4,26.4,0,0,1-3.34,7.77,48.62,48.62,0,0,1-10.74,11.54A79.52,79.52,0,0,1,265,644.67a102.3,102.3,0,0,1-27.91,9.56c-9.59,1.79-19.48,2.41-29.29.57-4.85-1-9.8-2.57-14.17-5.87a17.91,17.91,0,0,1-5.5-6.67,15.22,15.22,0,0,1-1.12-3.6,16.35,16.35,0,0,1-.11-5.58c0-.26.09-.53.15-.79a23.66,23.66,0,0,1,2.9-7.38,36.79,36.79,0,0,1,4.93-6.44,61.09,61.09,0,0,1,11.93-9.68,92,92,0,0,1,21.78-10,1.46,1.46,0,0,1,.32-.1c1.64-.54,3.28-1,4.95-1.43a.09.09,0,0,1,.09,0,91.89,91.89,0,0,1,27.77-3.11l1,0,0,.82,0,.9H262a85.71,85.71,0,0,0-13,1h0c-2.16.31-4.32.7-6.46,1.17l-1.71.39h0c-1,.24-2,.49-3,.76h0l-1,.29c-.54.14-1.07.3-1.6.45l-.53.16c-.2.07-.41.12-.61.2h0c-1.06.33-2.13.67-3.17,1h0c-.38.12-.74.25-1.11.39-.78.26-1.55.55-2.32.85a94,94,0,0,0-17.07,8.35l-.06,0-.17.1-1.52,1c-.36.24-.71.47-1.05.71-.8.55-1.57,1.1-2.34,1.68a55.33,55.33,0,0,0-7.7,7,35.41,35.41,0,0,0-2.51,3.1.49.49,0,0,1-.11.14,20.89,20.89,0,0,0-4,9.17,11.24,11.24,0,0,0,.91,6.4,13.21,13.21,0,0,0,4.22,4.93c3.58,2.7,8.1,4.12,12.59,5,9.12,1.66,18.62,1.09,27.85-.68A110.24,110.24,0,0,0,253,644.76c.55-.19,1.11-.4,1.66-.64,2.91-1.1,5.76-2.36,8.56-3.75a78.94,78.94,0,0,0,12.26-7.48,45.42,45.42,0,0,0,10.23-10.2,22,22,0,0,0,3.14-6.44,14.72,14.72,0,0,0,.52-3.48,12.56,12.56,0,0,0-.41-3.46,13.22,13.22,0,0,0-3.68-5.91,21,21,0,0,0-4.19-3.13c-.54-.33-1.1-.62-1.65-.92l.25-.72.3-.88c.47.19.93.38,1.39.59a20.9,20.9,0,0,1,5.24,3.2,15.66,15.66,0,0,1,4.79,6.79,14.21,14.21,0,0,1,.44,1.58A16.22,16.22,0,0,1,291.77,617.18Z" transform="translate(-58.24 -285.52)"/><path class="cls-5" d="M293.48,617.23a25.24,25.24,0,0,1-1.4,8.51,44,44,0,0,1-9.06,14.5,71.33,71.33,0,0,1-12.73,11,98.29,98.29,0,0,1-30,13.64c-10.52,2.74-21.53,3.79-32.12,1.77a34.41,34.41,0,0,1-14.74-6.35A19,19,0,0,1,186,646a23.71,23.71,0,0,1,1-7.34,15.22,15.22,0,0,0,1.12,3.6,17.91,17.91,0,0,0,5.5,6.67c4.37,3.3,9.32,4.85,14.17,5.87,9.81,1.84,19.7,1.22,29.29-.57A102.3,102.3,0,0,0,265,644.67a79.52,79.52,0,0,0,12.73-8.18A48.62,48.62,0,0,0,288.43,625a26.4,26.4,0,0,0,3.34-7.77,16.22,16.22,0,0,0,.06-7.27A19.49,19.49,0,0,1,293.48,617.23Z" transform="translate(-58.24 -285.52)"/><path class="cls-1" d="M279.54,595.06c0,.88-.07,1.74-.17,2.62l-.23.69.14.07a23.92,23.92,0,0,1-.88,4.25c-.72,2.4-1.86,4.76-3.59,6a3.57,3.57,0,0,1-2.77.64,5.77,5.77,0,0,1-2.74-1.51,17.5,17.5,0,0,1-3.8-6.24,34.88,34.88,0,0,1-1.91-7.49l-.23-1.93-.1-2-.15-4-1.23-30,0-.31-.62-4.76c5.57,1.25,11.41,2.32,17.21,3.08,0,1.57,0,3.63.06,5.69a1.77,1.77,0,0,0,0,.33v0c.12,6.3.3,12.61.49,18.91l.28,8.1C279.31,589.81,279.64,592.48,279.54,595.06Z" transform="translate(-58.24 -285.52)"/><path class="cls-1" d="M294.24,626.64a45.62,45.62,0,0,1-9.45,15.59,74.13,74.13,0,0,1-13.15,11.52,96.57,96.57,0,0,1-30.72,14c-10.8,2.77-22.09,3.83-33.14,1.67a36.46,36.46,0,0,1-15.68-6.89,22.34,22.34,0,0,1-5.92-7,21.73,21.73,0,0,1-2.46-9.34,27.63,27.63,0,0,1,1.49-9.49,37,37,0,0,1,1.8-4.32,44.86,44.86,0,0,1,2.25-4A60.52,60.52,0,0,1,201,615a90.44,90.44,0,0,1,26.72-15.63c.64-.24,1.28-.48,1.93-.7,0,0,0,0,0,0,.31-.12.57-.23.88-.33,1.08-.38,2.17-.72,3.25-1.05a.09.09,0,0,1,.09,0,84.15,84.15,0,0,1,27.68-4c.55,0,1.12,0,1.69,0l-.06,1.72-.57,0h-.83a74.73,74.73,0,0,0-14.63,1.11c-1.47.24-2.91.53-4.36.86-1.17.26-2.34.53-3.51.84h0c-1.4.36-2.77.78-4.16,1.21h0c-.74.22-1.47.46-2.21.72h0l-1.77.62c-1.34.5-2.68,1-4,1.57a95,95,0,0,0-16.91,9l-.06,0-.17.1c-.81.55-1.61,1.12-2.42,1.69h0c-.76.56-1.51,1.13-2.25,1.72-1,.77-2,1.6-3,2.43a64.55,64.55,0,0,0-7.47,7.59.49.49,0,0,1-.11.14,50.17,50.17,0,0,0-3.68,5.08,34.56,34.56,0,0,0-4.11,9,23.71,23.71,0,0,0-1,7.34,19,19,0,0,0,7.46,14.35,34.41,34.41,0,0,0,14.74,6.35c10.59,2,21.6,1,32.12-1.77a98.29,98.29,0,0,0,30-13.64,71.33,71.33,0,0,0,12.73-11,44,44,0,0,0,9.06-14.5,25.24,25.24,0,0,0,1.4-8.51,19.49,19.49,0,0,0-1.65-7.32c-.12-.29-.26-.58-.41-.88a23,23,0,0,0-10.21-9.66,14.44,14.44,0,0,0-1.54-.74,1.56,1.56,0,0,0-.39-.19l-.14-.07.23-.69.31-.93c.59.24,1.17.5,1.76.76a24.89,24.89,0,0,1,11.7,10.37,21.33,21.33,0,0,1,2.51,9.27A27.49,27.49,0,0,1,294.24,626.64Z" transform="translate(-58.24 -285.52)"/><path class="cls-5" d="M253,644.76a110.24,110.24,0,0,1-16.65,4.67c-9.23,1.77-18.73,2.34-27.85.68-4.49-.87-9-2.29-12.59-5a13.21,13.21,0,0,1-4.22-4.93,11.24,11.24,0,0,1-.91-6.4,20.89,20.89,0,0,1,4-9.17.49.49,0,0,0,.11-.14,64.55,64.55,0,0,1,7.47-7.59c1-.83,2-1.66,3-2.43,4.9.57,9.83,1.1,14.65,2,1.26.22,2.51.52,3.69.84s2.48.83,3.68,1.23a27.61,27.61,0,0,1,6.86,3.29c1.06.7,2.14,1.46,3.17,2.29.51.39,1,.82,1.54,1.26s.94.84,1.4,1.3a54.66,54.66,0,0,1,5.08,6.27c1.62,2.23,3.13,4.55,4.59,6.91C251,641.45,252,643.1,253,644.76Z" transform="translate(-58.24 -285.52)"/><path class="cls-1" d="M255.63,646.15l-1.33.86c-.43-.75-.88-1.49-1.32-2.25-1-1.66-2-3.31-3-4.93-1.46-2.36-3-4.68-4.59-6.91a54.66,54.66,0,0,0-5.08-6.27c-.46-.46-.94-.87-1.4-1.3s-1-.87-1.54-1.26c-1-.83-2.11-1.59-3.17-2.29a27.61,27.61,0,0,0-6.86-3.29c-1.2-.4-2.54-.88-3.68-1.23s-2.43-.62-3.69-.84c-4.82-.88-9.75-1.41-14.65-2l-.23,0-.49,0,.07-1.72c.93,0,1.84.05,2.76.09h.15a127.76,127.76,0,0,1,12.74,1.08,34.26,34.26,0,0,1,3.94.78c1.37.39,2.51.81,3.81,1.2a30.64,30.64,0,0,1,7.45,3.46,36.92,36.92,0,0,1,3.34,2.47c.54.43,1.07.89,1.59,1.34s1.08,1,1.57,1.5a48.73,48.73,0,0,1,5.27,6.72,118.64,118.64,0,0,1,7.36,12.83C255,644.79,255.3,645.46,255.63,646.15Z" transform="translate(-58.24 -285.52)"/><path class="cls-1" d="M247.22,614.06c-.11-.29-.22-.55-.34-.81a6.74,6.74,0,0,0-.48-.93,20.9,20.9,0,0,0-2-2.8c-.48-.57-1-1.12-1.48-1.66l0,0c-1-1.07-2-2.09-3.06-3.07a7.87,7.87,0,0,0-.62-.53l0,0a37.44,37.44,0,0,0-3.79-3c-.23-.17-.47-.34-.72-.5s-.46-.29-.69-.45h0c-.32-.19-.65-.38-1-.55h0a10.49,10.49,0,0,0-1.22-.58,7.35,7.35,0,0,0-1.72-.49h-.28s0,0,0,0a2.42,2.42,0,0,0-.79.05,1.46,1.46,0,0,0-.32.1,2.2,2.2,0,0,0-.82.55,1.66,1.66,0,0,0-.18.19,3,3,0,0,0-.49,1.64,5.32,5.32,0,0,0,.07.74c0,.17.07.34.11.5l0,.14a8.12,8.12,0,0,0,.69,1.72,19.27,19.27,0,0,0,1.93,3,34.79,34.79,0,0,0,4.62,4.91,29.84,29.84,0,0,0,5.37,3.8,19.5,19.5,0,0,0,3,1.36,7.32,7.32,0,0,0,1.76.36,3,3,0,0,0,1.09-.1,2.17,2.17,0,0,0,1.23-.84,2.65,2.65,0,0,0,.4-1.55A4.8,4.8,0,0,0,247.22,614.06Zm-1.82,1.23a1.55,1.55,0,0,1-.51,0,5.54,5.54,0,0,1-1.23-.38,15.11,15.11,0,0,1-2.56-1.42,50.65,50.65,0,0,1-4.82-3.78,46.72,46.72,0,0,1-4.36-4.43,20.5,20.5,0,0,1-1.77-2.48,7.33,7.33,0,0,1-.54-1.09.45.45,0,0,1-.06-.12c-.06-.19-.09-.33-.11-.41l-.1,0s0,0,0,0,.07-.08.07,0a.69.69,0,0,1,.34,0,4.71,4.71,0,0,1,.94.18h0a1.77,1.77,0,0,1,.31.08,15.37,15.37,0,0,1,2.68,1.19,31,31,0,0,1,3.94,2.67v0c.37.29.74.58,1.1.88a27.84,27.84,0,0,1,4.36,4.58l0,.07h0a18.86,18.86,0,0,1,1.6,2.57,7.09,7.09,0,0,1,.54,1.34A1.33,1.33,0,0,1,245.4,615.29Z" transform="translate(-58.24 -285.52)"/><path class="cls-5" d="M245.4,615.29a1.55,1.55,0,0,1-.51,0,5.54,5.54,0,0,1-1.23-.38,15.11,15.11,0,0,1-2.56-1.42,50.65,50.65,0,0,1-4.82-3.78,46.72,46.72,0,0,1-4.36-4.43,20.5,20.5,0,0,1-1.77-2.48,7.33,7.33,0,0,1-.54-1.09c.37-.14.73-.27,1.11-.39h0a1.77,1.77,0,0,1,.31.08,15.37,15.37,0,0,1,2.68,1.19,31,31,0,0,1,3.94,2.67v0a32.6,32.6,0,0,0,3.62,4c.6.53,1.23,1.07,1.88,1.57h0a18.86,18.86,0,0,1,1.6,2.57,7.09,7.09,0,0,1,.54,1.34A1.33,1.33,0,0,1,245.4,615.29Z" transform="translate(-58.24 -285.52)"/><path class="cls-1" d="M252.81,610.77c-.05-.19-.1-.38-.16-.55a7.24,7.24,0,0,0-.47-1.15,13,13,0,0,0-1.24-2v0l-.46-.62a31.27,31.27,0,0,0-4.16-4.28l-.59-.46a28.7,28.7,0,0,0-3.05-2.19c-.37-.24-.74-.46-1.12-.67l-.76-.4h0a13.61,13.61,0,0,0-1.46-.62h0c-.14,0-.29-.08-.45-.14a5.7,5.7,0,0,0-1.54-.25,2.19,2.19,0,0,0-1.84.84,2.74,2.74,0,0,0-.33.76h0a2.9,2.9,0,0,0-.06.91,3.75,3.75,0,0,0,.07.54c.06.27.13.53.2.77s.23.6.36.88a17.4,17.4,0,0,0,1.61,2.69c.13.15.23.31.36.46v0a32.6,32.6,0,0,0,3.62,4c.6.53,1.23,1.07,1.88,1.57h0a21.17,21.17,0,0,0,2.79,1.95c.29.16.57.33.88.48a13,13,0,0,0,1.85.78,5.53,5.53,0,0,0,1.64.26,2.48,2.48,0,0,0,2.08-1A3.21,3.21,0,0,0,252.81,610.77Zm-2.08,1a2,2,0,0,1-.4,0,4,4,0,0,1-1.05-.17,11.85,11.85,0,0,1-2.33-.94,25,25,0,0,1-4.06-2.78l0,0-.35-.28a27.48,27.48,0,0,1-3.33-3.32l0,0c-.17-.19-.35-.41-.51-.62a12.78,12.78,0,0,1-1.49-2.31,3.45,3.45,0,0,1-.46-1.79c0-.07,0-.1,0-.12s.48-.22,1-.17h0a2.59,2.59,0,0,1,.72.16,12.79,12.79,0,0,1,2.39,1,23.32,23.32,0,0,1,3.69,2.67h0c.23.19.46.38.68.59a29.66,29.66,0,0,1,3.26,3.56c.15.19.31.4.45.61a15,15,0,0,1,1.38,2.34,5.23,5.23,0,0,1,.37,1.12A1.1,1.1,0,0,1,250.73,611.72Z" transform="translate(-58.24 -285.52)"/><path class="cls-5" d="M250.73,611.72a2,2,0,0,1-.4,0,4,4,0,0,1-1.05-.17,11.85,11.85,0,0,1-2.33-.94,25,25,0,0,1-4.06-2.78l0,0c-1-1.07-2-2.09-3.06-3.07a7.87,7.87,0,0,0-.62-.53l0,0c-.17-.19-.35-.41-.51-.62a12.78,12.78,0,0,1-1.49-2.31,3.45,3.45,0,0,1-.46-1.79l1-.29h0a2.59,2.59,0,0,1,.72.16,12.79,12.79,0,0,1,2.39,1,23.32,23.32,0,0,1,3.69,2.67h0a23.87,23.87,0,0,0,3.79,4,.42.42,0,0,0,.15.12c.15.19.31.4.45.61a15,15,0,0,1,1.38,2.34,5.23,5.23,0,0,1,.37,1.12A1.1,1.1,0,0,1,250.73,611.72Z" transform="translate(-58.24 -285.52)"/><path class="cls-1" d="M259,608.41a6.49,6.49,0,0,0-.43-1.67,15.35,15.35,0,0,0-1.44-2.63,22.93,22.93,0,0,0-3.75-4.19,24.59,24.59,0,0,0-4.45-3.06h0s0,0-.05,0a13.22,13.22,0,0,0-1.72-.72c-.3-.09-.6-.17-.91-.24a4.92,4.92,0,0,0-1.56-.09,2.33,2.33,0,0,0-1.78,1,.93.93,0,0,0-.11.19,2.56,2.56,0,0,0-.33,1.07,3.34,3.34,0,0,0,.05.91,3.15,3.15,0,0,0,.12.55,6.1,6.1,0,0,0,.37,1.07,15,15,0,0,0,1.51,2.5h0a23.87,23.87,0,0,0,3.79,4,.42.42,0,0,0,.15.12,24.65,24.65,0,0,0,4.14,3l.08,0a11.52,11.52,0,0,0,2.54,1.09,4.7,4.7,0,0,0,1.53.17,2.35,2.35,0,0,0,1.8-.93A3,3,0,0,0,259,608.41Zm-2,.85c0,.12-.72.32-1.43.13a9.71,9.71,0,0,1-2.2-.79,17.1,17.1,0,0,1-2.5-1.53v0a18.07,18.07,0,0,1-1.62-1.3,23.2,23.2,0,0,1-3.43-3.84c0-.07-.1-.15-.16-.22a12.15,12.15,0,0,1-1-2c-.33-.73-.34-1.59-.22-1.59a1.9,1.9,0,0,1,1.4,0A10.11,10.11,0,0,1,248,599a21.1,21.1,0,0,1,4,2.93,27.53,27.53,0,0,1,3.46,3.69,13.18,13.18,0,0,1,1.29,2.08A2.74,2.74,0,0,1,257.07,609.26Z" transform="translate(-58.24 -285.52)"/><path class="cls-7" d="M289.35,612.77a14.72,14.72,0,0,1-.52,3.48,22,22,0,0,1-3.14,6.44,45.42,45.42,0,0,1-10.23,10.2,78.94,78.94,0,0,1-12.26,7.48c-2.8,1.39-5.65,2.65-8.56,3.75a118.64,118.64,0,0,0-7.36-12.83,48.73,48.73,0,0,0-5.27-6.72c-.49-.52-1-1-1.57-1.5s-1.05-.91-1.59-1.34a36.92,36.92,0,0,0-3.34-2.47,30.64,30.64,0,0,0-7.45-3.46c-1.3-.39-2.44-.81-3.81-1.2a34.26,34.26,0,0,0-3.94-.78,127.76,127.76,0,0,0-12.74-1.08c.81-.57,1.61-1.14,2.42-1.69l.17-.1.06,0a94,94,0,0,1,17.07-8.35,8.12,8.12,0,0,0,.69,1.72,19.27,19.27,0,0,0,1.93,3,34.79,34.79,0,0,0,4.62,4.91,29.84,29.84,0,0,0,5.37,3.8,19.5,19.5,0,0,0,3,1.36,7.32,7.32,0,0,0,1.76.36,3,3,0,0,0,1.09-.1,2.17,2.17,0,0,0,1.23-.84,2.65,2.65,0,0,0,.4-1.55,4.8,4.8,0,0,0-.21-1.16c-.11-.29-.22-.55-.34-.81a13,13,0,0,0,1.85.78,5.53,5.53,0,0,0,1.64.26,2.48,2.48,0,0,0,2.08-1,3.21,3.21,0,0,0,.36-2.48c-.05-.19-.1-.38-.16-.55l.08,0a11.52,11.52,0,0,0,2.54,1.09,4.7,4.7,0,0,0,1.53.17,2.35,2.35,0,0,0,1.8-.93,3,3,0,0,0,.44-2.19,6.49,6.49,0,0,0-.43-1.67,15.35,15.35,0,0,0-1.44-2.63,22.93,22.93,0,0,0-3.75-4.19,24.59,24.59,0,0,0-4.45-3.06,85.71,85.71,0,0,1,13-1,35.6,35.6,0,0,0,1.77,6.51,19.54,19.54,0,0,0,4.3,7,7.55,7.55,0,0,0,3.66,2,5.48,5.48,0,0,0,4.15-.91c2.41-1.72,3.63-4.48,4.46-7.13a24.89,24.89,0,0,0,.76-3.15,21,21,0,0,1,4.19,3.13,13.22,13.22,0,0,1,3.68,5.91A12.56,12.56,0,0,1,289.35,612.77Z" transform="translate(-58.24 -285.52)"/><path class="cls-5" d="M257.07,609.26c0,.12-.72.32-1.43.13a9.71,9.71,0,0,1-2.2-.79,17.1,17.1,0,0,1-2.5-1.53v0l-.46-.62a31.27,31.27,0,0,0-4.16-4.28l-.59-.46a12.15,12.15,0,0,1-1-2c-.33-.73-.34-1.59-.22-1.59a1.9,1.9,0,0,1,1.4,0A10.11,10.11,0,0,1,248,599a21.1,21.1,0,0,1,4,2.93,27.53,27.53,0,0,1,3.46,3.69,13.18,13.18,0,0,1,1.29,2.08A2.74,2.74,0,0,1,257.07,609.26Z" transform="translate(-58.24 -285.52)"/><line class="cls-2" x1="14.12" y1="75.43" x2="13.63" y2="75.62"/><path class="cls-7" d="M98,358.56l-8.64,8.16c-3.63-4.32-2.37-2.87-3.63-4.32a7.51,7.51,0,0,1-1.41-3.87c1.38-4.63-.21-9.2-3.56-10.19s-7.17,2-8.55,6.59c-.69,2.32-1,4.36-.38,6.21L60.65,365.4h0l-.37-.44c-4.6-5.77-1.11-16.22,7.82-23.34s19.88-8.21,24.49-2.44a16.4,16.4,0,0,1,3,4.23c1.44,2.79,1,4.89.3,8.43S98,358.56,98,358.56Z" transform="translate(-58.24 -285.52)"/><path class="cls-2" d="M61,365.71l-.3-.31" transform="translate(-58.24 -285.52)"/><ellipse class="cls-7" cx="46.61" cy="84.53" rx="8.19" ry="7.38"/><line class="cls-2" x1="16.36" y1="138.22" x2="16.11" y2="138.68"/><path class="cls-7" d="M92.64,405.31l-1.31,11.81c-5.57-.95-3.67-.66-5.57-.95a7.52,7.52,0,0,1-3.57-2c-2-4.43-6.12-6.88-9.31-5.48s-4.2,6.14-2.26,10.56c1,2.22,2,4,3.73,5l-5.81,10.51a5,5,0,0,1-.56-.09c-7.25-1.42-11.34-11.65-9.14-22.85s9.85-19.13,17.1-17.71a16.34,16.34,0,0,1,5,1.29c2.9,1.19,3.9,3.1,5.68,6.23S92.64,405.31,92.64,405.31Z" transform="translate(-58.24 -285.52)"/><path class="cls-2" d="M69,434.76l-.44-.05" transform="translate(-58.24 -285.52)"/><path class="cls-7" d="M110,415.29c-3.45,2.93-8.39,2.78-11-.33s-2-8,1.47-10.92,8.38-2.78,11,.33S113.49,412.37,110,415.29Z" transform="translate(-58.24 -285.52)"/><line class="cls-2" x1="79.25" y1="53.67" x2="78.75" y2="53.49"/><path class="cls-7" d="M166.54,340.76c-.7,3.06-2.42,4.36-5.21,6.64s-2.68,6.53-2.68,6.53l-11.87.66c0-5.65,0-3.73,0-5.65a7.48,7.48,0,0,1,1.41-3.86c4-2.65,5.78-7.17,3.86-10.09s-6.74-3.13-10.78-.47c-2,1.32-3.6,2.67-4.3,4.49l-11.32-4a5.42,5.42,0,0,1,0-.57c.21-7.38,9.62-13.11,21-12.79s20.49,6.55,20.29,13.94A16.42,16.42,0,0,1,166.54,340.76Z" transform="translate(-58.24 -285.52)"/><path class="cls-2" d="M125.69,335.46c0-.14,0-.29,0-.44" transform="translate(-58.24 -285.52)"/><path class="cls-7" d="M162.7,372.38c-2.63,3.12-7.57,3.28-11,.36s-4.13-7.81-1.5-10.93,7.56-3.27,11-.35S165.33,369.27,162.7,372.38Z" transform="translate(-58.24 -285.52)"/></svg>